<svg width="70" height="64" viewBox="0 0 70 64" fill="none" xmlns="http://www.w3.org/2000/svg">
<g clip-path="url(#clip0_712_5277)">
<path d="M34.2495 63.4748C34.2495 63.4748 33.9596 63.2574 33.3981 62.9495C33.0539 62.7502 32.5829 62.5147 32.0394 62.2249C31.7134 62.0618 31.4054 61.8988 31.0069 61.7177C31.0069 61.3191 30.8801 60.9387 30.6989 60.5764C30.4816 60.1235 30.1555 59.7069 29.7932 59.3627C29.1229 58.7468 28.5795 58.2396 27.8549 57.4425C27.6375 58.62 27.873 59.6344 28.3259 60.4858C27.9636 60.3228 27.6194 60.1598 27.239 59.9967C27.1665 59.9786 27.0941 59.9424 27.0397 59.9062C26.9854 59.4352 27.0397 58.5294 26.3695 57.4788C26.2608 57.3157 26.1521 57.1346 26.0072 56.9716C25.355 56.102 24.4131 55.4499 23.8515 54.6891C23.8153 56.1745 23.779 57.1889 24.0689 58.1128C24.0689 58.0766 24.0689 58.0222 24.0689 57.986C24.1232 58.2215 24.2319 58.457 24.3406 58.6925C23.7066 58.3845 23.0726 58.0947 22.4204 57.7324C22.3661 57.7143 22.3298 57.678 22.2755 57.6418C22.5835 55.6854 21.4784 53.9826 20.9169 52.5334C20.9169 52.4972 20.8806 52.4428 20.8625 52.4066C20.7901 52.1892 20.7176 51.99 20.6814 51.7726C20.4278 52.0805 20.2285 52.3885 20.0474 52.6964C19.9568 52.8414 19.9024 52.9863 19.83 53.1312C19.7575 53.2942 19.6851 53.4573 19.6307 53.6203C19.5583 53.8014 19.5039 54.0007 19.4677 54.2C19.4496 54.3087 19.4315 54.4174 19.4133 54.526C19.3409 54.997 19.3409 55.468 19.4133 55.939C18.9242 55.6311 18.4351 55.2869 17.9279 54.9427C18.0366 54.4174 18.6344 53.421 18.3627 51.2472C18.1996 49.9067 17.5475 48.4938 17.2758 47.9866C17.1852 47.8235 17.1309 47.7511 17.149 47.8235C16.4063 49.2908 15.2107 51.4465 15.6454 53.2037C15.1926 52.8232 14.7578 52.4428 14.3231 52.0262C14.631 51.0661 15.3013 50.577 15.1926 48.693C15.1926 48.4757 15.1563 48.2402 15.1201 47.9866C15.1201 47.8779 15.0839 47.7692 15.0658 47.6424C15.0114 47.2982 14.939 46.9178 14.8303 46.4649C14.5042 45.1244 13.7434 43.9107 13.526 42.5521C13.1456 43.5846 12.7289 45.0338 12.3304 46.3019C12.2036 46.7004 12.1493 47.117 12.1311 47.5337C12.1311 47.6424 12.1311 47.733 12.1311 47.8416C12.1311 48.5481 12.2036 49.2727 12.3666 49.9611C12.2398 49.8162 12.113 49.6894 11.9862 49.5263C11.2979 48.7112 10.6457 47.8416 10.0479 46.9178C10.3921 46.2838 11.8051 44.7621 11.7326 41.9724C11.7145 40.8312 11.3884 39.2008 11.1892 38.0596C10.682 39.4182 9.83055 39.8892 9.17842 41.2659C9.05161 41.5195 8.94292 41.7731 8.85235 42.0268C8.58062 42.7514 8.45382 43.4941 8.52628 44.2911C8.34513 43.9288 8.14587 43.5665 7.98283 43.2042C7.63865 42.4253 7.34881 41.6282 7.0952 40.8312C7.71111 40.3964 9.26899 39.5088 10.1566 37.0089C10.682 35.5235 10.845 33.9475 11.0986 32.4077C10.1747 33.4403 8.99727 34.0743 7.96472 34.9257C7.62053 35.2155 7.29446 35.5235 6.98651 35.8677C6.85971 36.0126 6.75102 36.1756 6.64233 36.3206C6.58798 36.393 6.55175 36.4655 6.51552 36.5379C6.46118 36.6285 6.40683 36.7191 6.35249 36.8097C6.31626 36.8821 6.29814 36.9546 6.26191 37.027C6.22568 37.0995 6.18945 37.1901 6.17134 37.2625C6.08076 36.7734 5.99019 36.2662 5.91773 35.759C5.82716 35.0163 5.7547 34.2736 5.71847 33.549C6.20757 33.4041 7.42127 33.3135 8.68931 32.2447C10.9356 30.3607 11.008 28.4949 11.8232 26.6291C11.5696 26.9008 11.2797 27.1363 10.9718 27.3356C10.6638 27.5529 10.3559 27.7341 10.0298 27.9152C9.06973 28.4406 7.34881 28.9478 6.28003 30.0709C6.06265 30.3064 5.8815 30.56 5.73658 30.8317C5.79093 29.9079 5.86339 28.984 6.00831 28.0602C6.04454 27.8065 6.11699 27.5529 6.17134 27.2812C9.72186 27.1906 12.6021 24.6545 14.0876 21.6294C13.7071 21.883 13.3448 22.046 12.9644 22.1547C12.584 22.2634 12.1855 22.3358 11.7326 22.4083C10.8269 22.5532 10.1566 22.6981 9.25087 22.8974C8.99727 22.9517 8.70743 23.0785 8.39947 23.2235C8.36324 23.2416 8.32701 23.2597 8.29078 23.2778C8.00095 23.4227 7.72922 23.6039 7.47561 23.8031C7.25823 23.9843 7.05897 24.1654 6.89594 24.3466C7.27635 23.151 7.72922 22.0098 8.23644 20.9048C8.3089 20.7417 8.39947 20.5968 8.49005 20.4338C9.26899 20.4338 10.4102 20.7055 11.7507 20.3794C13.8883 19.8541 15.5367 18.1875 17.0765 16.0681C16.0077 16.6659 15.1201 16.7021 13.9245 16.9738C13.3267 17.1006 12.6384 17.1731 11.95 17.2999C11.2616 17.4267 10.5914 17.5716 10.066 17.8796C9.99359 17.9158 9.92113 17.9883 9.86678 18.0426C9.79432 18.0969 9.72186 18.1694 9.66752 18.26C10.2472 17.2637 10.8631 16.3217 11.4971 15.4159C12.4391 16.0318 14.1419 16.2492 15.1563 15.9594C18.0185 15.108 18.2721 13.8218 19.993 12.5719C19.1597 12.7349 18.3627 12.7712 17.5656 12.8255C17.2577 12.8255 16.9497 12.8617 16.6418 12.8799C15.8628 12.9342 15.0839 13.0067 14.2868 13.224C14.0151 13.2965 13.7434 13.3871 13.4717 13.4776C13.1637 13.5863 12.892 13.7675 12.6565 13.9486C12.6021 13.9849 12.5659 14.0392 12.5116 14.0754C13.3448 13.0067 14.1781 12.0285 15.0114 11.1227C15.3375 11.1952 16.6236 12.0103 18.7612 11.8111C20.4821 11.648 21.9675 10.5793 23.3081 9.49236C23.2718 9.49236 23.2356 9.49236 23.1812 9.49236C21.732 9.80031 20.1742 9.61917 18.6706 9.58294C18.3808 9.58294 18.1091 9.58294 17.8373 9.60105C17.7468 9.60105 17.6562 9.61917 17.5656 9.63728C17.4207 9.6554 17.2758 9.69163 17.149 9.72786C17.0403 9.76409 16.9316 9.7822 16.8229 9.81843C16.7323 9.85466 16.6599 9.87278 16.5874 9.909C16.1889 10.072 15.8809 10.2532 15.6273 10.4525C15.736 10.3438 15.8447 10.1988 15.9715 10.0902C16.6961 9.32933 17.4207 8.65908 18.1453 8.02505C18.7974 8.13374 20.5002 8.804 22.4748 8.22432C23.924 7.73522 25.4094 6.52151 26.1702 5.19913C25.7173 5.38028 25.1739 5.48897 24.6123 5.57954C24.0689 5.67011 23.5073 5.72446 23.0182 5.7788C22.674 5.81503 22.3661 5.85126 22.0581 5.90561C22.0038 5.90561 21.9313 5.92372 21.877 5.94184C21.2248 6.05053 20.627 6.21356 20.0836 6.44906C20.0836 6.44906 20.0836 6.44906 20.0655 6.44906C20.0655 6.44906 20.0655 6.44906 20.0474 6.44906C20.8988 5.79692 21.6596 5.23536 22.348 4.71002C23.1994 4.54699 25.1195 4.63756 26.7318 2.84419C28.1991 1.21385 29.0142 -0.0541992 29.0142 -0.0541992C28.2353 0.19941 27.5288 0.362444 26.8405 0.561708C26.1521 0.760972 25.4818 0.978351 24.7754 1.32253C24.5761 1.41311 24.3949 1.53991 24.2319 1.66672C24.1957 1.70295 24.1595 1.73918 24.1232 1.77541C23.9964 1.8841 23.8696 1.99279 23.7428 2.10148C23.6885 2.15582 23.6522 2.19205 23.616 2.2464C23.5073 2.35508 23.4167 2.46377 23.3081 2.59058C23.2718 2.64492 23.2356 2.69927 23.1812 2.77173C23.0907 2.88042 23.0182 3.00722 22.9458 3.11591C22.8914 3.18837 22.8552 3.26083 22.8189 3.33329C22.7646 3.44198 22.6921 3.53255 22.6378 3.62313C22.5835 3.7137 22.5472 3.80428 22.511 3.87674C22.4748 3.9492 22.4385 4.02166 22.4023 4.076C22.348 4.18469 22.3117 4.27527 22.2755 4.36584C22.2755 4.40207 22.2393 4.4383 22.2393 4.45641C22.2212 4.51076 22.203 4.5651 22.1849 4.60133C21.8589 4.83683 21.5147 5.09044 21.1524 5.36216C20.8444 5.57954 20.5365 5.81503 20.2285 6.05053C20.627 5.59765 21.0075 5.07232 21.3516 4.45641C22.0944 3.13403 22.3661 1.5218 23.3624 0.380559C22.04 0.942121 20.6814 1.53991 19.7213 2.60869C19.4496 2.93476 19.2141 3.26083 19.0329 3.56878C18.9967 3.64124 18.9605 3.7137 18.9242 3.78616C18.7793 4.03977 18.6525 4.27527 18.5619 4.51076C18.5076 4.63756 18.4714 4.74625 18.4351 4.87306C18.3808 5.03609 18.3264 5.19913 18.2902 5.36216C18.254 5.5252 18.2178 5.67011 18.1996 5.81503C18.1815 5.95995 18.1453 6.10487 18.1272 6.23168C18.1272 6.28602 18.1091 6.34037 18.1091 6.39471C18.1091 6.39471 18.1091 6.35848 18.1091 6.34037C18.0366 7.04685 18.0547 7.5903 18.0004 7.8439C17.8917 7.93448 17.783 8.04317 17.6562 8.15186C17.2577 8.49604 16.8773 8.87646 16.4787 9.25687C16.6961 8.804 16.8773 8.24243 16.9497 7.55407C17.149 6.0143 16.9859 4.32961 17.7468 2.98911C16.4606 4.14846 15.1745 5.45274 14.7759 7.13742C14.7216 7.39103 14.6672 7.64464 14.6491 7.88013C14.6491 7.89825 14.6491 7.91636 14.6491 7.95259C14.631 8.16997 14.6129 8.36924 14.6129 8.55039C14.5948 9.70974 14.8846 10.5249 14.9027 10.9053C14.1962 11.648 13.5079 12.427 12.8195 13.2603C12.8739 13.1335 12.9282 13.0067 12.9644 12.8617C13.6166 10.5793 13.1818 8.31489 13.7071 5.94184C12.6021 7.73521 10.6457 8.73154 10.4646 11.7024C10.4646 11.793 10.4646 11.9198 10.4646 12.0285C10.4646 13.061 10.6638 14.4377 11.2616 15.2529C10.682 16.05 10.1204 16.847 9.59506 17.7165C9.66752 17.4992 9.70375 17.2999 9.70375 17.155C9.70375 15.9594 9.54071 15.1986 9.34145 14.4921C9.25088 14.1841 9.17842 13.8943 9.06973 13.5863C8.97915 13.2965 8.90669 13.0067 8.81612 12.6987C8.6712 12.1009 8.54439 11.5031 8.47193 10.9053C8.4357 10.5974 8.41759 10.3075 8.4357 9.99958C8.20021 10.4706 7.98283 10.9416 7.76545 11.4307C7.72922 11.485 7.71111 11.5575 7.67488 11.6118C7.47561 12.0828 7.29446 12.5538 7.13143 13.0248C7.11332 13.0972 7.07709 13.1697 7.05897 13.224C6.89594 13.7131 6.76913 14.2022 6.67856 14.6913C6.67856 14.7457 6.67856 14.8 6.66044 14.8544C6.53364 15.6695 6.49741 16.4847 6.62421 17.3361C6.82348 18.6404 7.76545 19.7273 8.21832 20.2164C8.12775 20.3975 8.01906 20.5606 7.92849 20.7598C7.43938 21.7562 7.02274 22.7887 6.66044 23.8756C6.67856 23.0604 6.56987 22.2634 6.35249 21.4482C6.26191 21.0859 6.13511 20.7055 6.00831 20.3251C5.86339 19.9084 5.71847 19.528 5.59166 19.1476C5.19313 18.0064 4.9033 16.9014 4.79461 15.4159C4.57723 15.8869 4.37796 16.376 4.1787 16.8651C4.16058 16.9195 4.14247 16.9738 4.10624 17.0282C3.90698 17.5173 3.74394 18.0064 3.58091 18.4955C3.58091 18.5498 3.54468 18.6042 3.52656 18.6585C3.38164 19.1657 3.25484 19.6729 3.18238 20.1983C3.18238 20.2345 3.18238 20.2889 3.18238 20.3251C3.05557 21.1403 3.03746 21.9735 3.16426 22.8249C3.61714 26.0313 5.28371 26.7921 5.79093 27.2269C5.60978 28.1326 5.44674 29.0384 5.35617 29.9803C5.33805 30.2339 5.31994 30.4875 5.30182 30.7412C5.21125 30.3426 5.10256 29.9622 4.95764 29.5818C4.95764 29.5456 4.93953 29.5093 4.92141 29.4731C4.75838 29.0927 4.59534 28.7123 4.37796 28.35C3.47222 26.8827 2.07737 25.7052 1.44335 24.1111C1.47958 26.2668 1.06293 28.6579 1.95056 30.7593C3.05557 33.1504 4.55911 33.241 5.24748 33.549C5.28371 34.346 5.33805 35.125 5.42863 35.922C5.50109 36.4292 5.59166 36.9546 5.70035 37.4618C5.62789 37.2988 5.55543 37.1538 5.46486 37.0089C5.44674 36.9727 5.42863 36.9365 5.41051 36.9002C5.24748 36.6466 5.04821 36.393 4.79461 36.1756C3.65337 35.1612 2.20417 34.5815 1.2622 33.5852C1.11728 33.4222 0.936129 33.2954 0.827439 33.0961H0.71875C1.00859 35.4329 1.58827 37.8966 3.27295 39.5631C4.45042 40.7406 5.7547 40.6681 6.56987 41.0304C6.84159 41.8637 7.14954 42.6789 7.51184 43.4578C7.65676 43.7477 7.80168 44.0375 7.9466 44.3273C7.85603 44.2187 7.76545 44.1281 7.69299 44.0375C7.69299 44.0375 7.52996 43.8564 7.43938 43.7839C6.35249 42.7876 5.01198 42.2985 3.61714 41.7369C3.14615 41.5558 2.67516 41.3565 2.20417 41.1391C3.23672 43.1136 3.63525 44.9976 5.22936 46.3019C6.33437 47.2076 8.63497 47.0627 9.54071 47.117C9.86678 47.6061 10.211 48.0952 10.5551 48.5481C10.8993 48.9829 11.2435 49.4176 11.5877 49.8343C11.6239 49.8886 11.6783 49.9249 11.7145 49.9792C11.2435 49.6531 10.7182 49.4176 10.1747 49.2546C9.68563 49.1097 9.17842 49.001 8.6712 48.9648C7.71111 48.8742 6.44306 48.7655 5.5192 49.0191C5.5192 49.0191 5.55543 49.0372 5.55543 49.0553C5.82716 49.2908 6.15322 49.4539 6.42495 49.7075C7.27635 50.4864 7.91037 51.5371 8.90669 52.1168C10.3921 53.0044 12.2761 52.6602 13.9608 52.316C13.9608 52.316 13.9608 52.2979 13.9426 52.2798C14.3774 52.6783 14.8303 53.0769 15.2831 53.4573C15.102 53.3848 14.9027 53.3486 14.7216 53.3305C14.0332 53.2761 12.5116 53.4935 11.8413 53.6928C11.5877 53.7652 11.1892 53.9283 10.7906 54.1094C10.4102 54.2906 10.0479 54.5079 9.84867 54.7072C9.84867 54.7072 10.7725 54.8521 11.3341 55.1057C12.421 55.5948 13.2362 56.247 14.4499 56.3375C16.3519 56.4825 17.1127 55.5224 17.783 55.3593C17.783 55.3593 17.7649 55.3412 17.7468 55.3231C18.3083 55.7216 18.888 56.102 19.4496 56.4462C18.6706 56.3375 17.783 56.5006 16.9859 56.7723C16.678 56.881 16.37 57.0078 16.0983 57.1346C15.5005 57.4244 15.0295 57.7686 14.8303 58.0041C16.6055 57.9316 17.3845 59.1272 19.5764 58.928C20.8082 58.8193 21.6415 58.0947 22.0944 57.9498C22.1125 57.9498 22.1306 57.9679 22.1668 57.986C23.0182 58.4389 23.8696 58.8374 24.6667 59.2178C24.6304 59.2178 24.5942 59.2178 24.558 59.2178C24.3406 59.2178 24.1232 59.2178 23.8696 59.2722C23.6885 59.3084 23.4892 59.3808 23.2537 59.5076C22.6016 59.8337 21.8226 60.4858 21.1524 61.3916C21.0799 61.4822 21.0075 61.5546 20.935 61.6633C21.9313 61.3554 22.8371 61.8264 24.721 61.3554C25.663 61.1199 26.4057 60.3228 26.8586 60.2141C26.8586 60.2141 26.8586 60.2141 26.8405 60.2141C26.8948 60.2322 26.9673 60.2685 27.0216 60.2866C27.5832 60.5221 28.1085 60.7395 28.5976 60.9749C28.5614 60.9749 28.5251 60.9749 28.507 60.9749C27.9274 61.0474 27.7281 61.5184 27.239 61.9894C27.1303 62.0981 26.9854 62.2792 26.8223 62.4785C26.6412 62.6778 26.4419 62.877 26.1883 63.0219C26.9673 63.3299 28.4889 63.1487 29.2316 62.6959C29.8113 62.3155 30.1917 62.0437 30.5902 61.8807C30.6627 61.9169 30.7533 61.9532 30.8257 61.9894C31.8583 62.4785 32.6191 62.9676 33.0901 63.3299C33.5611 63.7103 33.7604 63.9458 33.7422 63.9277C33.869 64.0545 34.0502 64.0364 34.177 63.9277C34.3038 63.8009 34.2857 63.6197 34.177 63.4929L34.2495 63.4748Z" fill="#6D6D6D"/>
<path d="M62.6357 43.4213C62.9979 42.6424 63.2878 41.8091 63.5776 40.9939C64.3928 40.6316 65.679 40.7222 66.8745 39.5266C68.5592 37.8419 69.1208 35.3964 69.4287 33.0596C68.994 33.7298 68.3419 34.2008 67.6173 34.6537C66.8927 35.1066 66.1137 35.5413 65.4616 36.121C65.208 36.3384 65.0087 36.592 64.8457 36.8456C64.8276 36.8818 64.8094 36.918 64.7913 36.9543C64.7008 37.0992 64.6283 37.2441 64.5558 37.4072C64.6645 36.8999 64.7551 36.3746 64.8276 35.8674C64.9181 35.2152 64.9725 34.545 65.0087 33.8929C65.0087 33.7661 65.0087 33.6392 65.0087 33.4943C65.6971 33.1864 67.2006 33.1139 68.3056 30.7046C69.2114 28.6214 68.7947 26.2121 68.8128 24.0565C68.5049 24.8535 67.9977 25.56 67.4542 26.2302C67.0738 26.7012 66.6934 27.1903 66.3311 27.6794C66.1862 27.8787 66.0231 28.0961 65.8782 28.3135C65.6608 28.6758 65.4797 29.0562 65.3348 29.4366C65.3348 29.4728 65.3167 29.509 65.2985 29.5453C65.1536 29.9257 65.0449 30.3061 64.9544 30.7046C64.8638 29.5272 64.7008 28.3497 64.4653 27.1903C64.9725 26.7556 66.639 25.9948 67.0919 22.7884C67.2187 21.937 67.1825 21.1218 67.0738 20.2886C67.0738 20.2523 67.0738 20.2161 67.0738 20.1618C67.0013 19.6364 66.8745 19.1292 66.7296 18.622C66.7296 18.5676 66.6934 18.5133 66.6753 18.459C66.5304 17.9698 66.3492 17.4626 66.1499 16.9916C66.1318 16.9373 66.1137 16.9011 66.0956 16.8467C65.8963 16.3576 65.679 15.8685 65.4616 15.3975C65.3529 16.883 65.063 17.988 64.6645 19.1292C64.5377 19.5096 64.3928 19.89 64.2479 20.3067C63.795 21.5385 63.5595 22.6797 63.5776 23.8572C63.2153 22.7884 62.7987 21.7377 62.3096 20.7414C62.219 20.5603 62.1103 20.3791 62.0197 20.198C62.4545 19.727 63.4146 18.622 63.6139 17.3177C63.7407 16.4663 63.7044 15.6511 63.5776 14.836C63.5776 14.7816 63.5776 14.7273 63.5595 14.6729C63.4689 14.1838 63.3421 13.6947 63.1791 13.2056C63.161 13.1332 63.1429 13.0788 63.1066 13.0064C62.9436 12.5354 62.7625 12.0463 62.5632 11.5753C62.5451 11.5209 62.5088 11.4485 62.4726 11.3941C62.2552 10.9231 62.0379 10.434 61.8024 9.96306C61.8024 10.271 61.8024 10.579 61.7661 10.8688C61.6756 11.7745 61.4401 12.6622 61.1865 13.5498C61.0959 13.8759 61.0053 14.1657 60.9147 14.4556C60.7155 15.1802 60.5705 15.9229 60.5524 17.1184C60.5524 17.2634 60.6068 17.4807 60.6611 17.68C60.1358 16.8105 59.5742 15.9953 58.9946 15.2164C59.5923 14.4012 59.8097 13.0245 59.7916 11.9919C59.7916 11.8832 59.7916 11.7564 59.7916 11.6659C59.7735 11.2854 59.7191 10.9594 59.6467 10.6333C59.4293 9.69133 59.0127 8.96673 58.5236 8.33271C58.1975 7.91607 57.8533 7.51754 57.5091 7.13713C57.1649 6.75672 56.8389 6.34007 56.5672 5.90531C57.0925 8.27837 56.6577 10.5427 57.3099 12.8252C57.3461 12.952 57.4004 13.0788 57.4548 13.2056C57.1468 12.8252 56.857 12.4267 56.5309 12.0825C56.1505 11.6477 55.752 11.2492 55.3716 10.8507C55.3716 10.4522 55.6795 9.6551 55.6614 8.49575C55.6614 8.29648 55.6614 8.09722 55.6252 7.87984C55.6252 7.86172 55.6252 7.84361 55.6252 7.8255C55.5889 7.59 55.5527 7.35451 55.4984 7.08278C55.0998 5.3981 53.7956 4.09382 52.5275 2.93447C53.2884 4.29309 53.1434 5.95966 53.3246 7.49943C53.397 8.18779 53.5601 8.74936 53.7956 9.20223C53.397 8.82182 52.9985 8.4414 52.6181 8.09722C52.5094 7.98853 52.4007 7.89795 52.2739 7.78927C52.2196 7.53566 52.2377 7.01032 52.1652 6.28573C52.1652 6.30384 52.1652 6.34007 52.1652 6.34007C52.1652 6.28573 52.1471 6.23138 52.1471 6.17704C52.1471 6.03212 52.1109 5.90531 52.0747 5.74228C52.0565 5.59736 52.0203 5.45244 51.9841 5.30752C51.9479 5.14449 51.8935 4.98145 51.821 4.81842C51.7848 4.69161 51.7486 4.58292 51.6942 4.45612C51.6037 4.22063 51.4769 3.96702 51.3319 3.73152C51.2957 3.65906 51.2595 3.5866 51.2233 3.51414C51.024 3.18808 50.8066 2.88012 50.5349 2.55405C49.7197 1.64831 48.6147 1.08675 47.4916 0.597644C47.2923 0.507069 47.0931 0.416494 46.8938 0.32592C46.8938 0.32592 46.8938 0.344035 46.9119 0.36215C47.9082 1.50339 48.1618 3.07939 48.9045 4.40178C49.2487 4.99957 49.6291 5.5249 50.0277 5.99589C49.7378 5.77851 49.4661 5.57925 49.1944 5.37998C48.7959 5.09014 48.4154 4.8003 48.0531 4.5467C48.0531 4.49235 48.0169 4.45612 47.9988 4.40178C47.9988 4.36555 47.9626 4.32932 47.9626 4.3112C47.9263 4.22063 47.8901 4.13005 47.8358 4.02136C47.7995 3.9489 47.7633 3.87644 47.7271 3.80398C47.6908 3.71341 47.6546 3.64095 47.6003 3.55037C47.5459 3.4598 47.4916 3.35111 47.4191 3.26054C47.3829 3.18808 47.3467 3.11562 47.2923 3.04316C47.2199 2.91635 47.1293 2.80766 47.0387 2.68086C47.0025 2.62651 46.9663 2.57217 46.93 2.51782C46.8394 2.39102 46.7308 2.28233 46.6221 2.17364C46.5858 2.1193 46.5496 2.08307 46.4953 2.02872C46.3866 1.90192 46.2598 1.81134 46.1148 1.70265C46.0786 1.66642 46.0424 1.63019 46.0062 1.59396C45.825 1.46716 45.6439 1.34036 45.4627 1.24978C44.7381 0.905597 44.086 0.688218 43.3976 0.488954C42.7092 0.28969 42.0028 0.126656 41.2238 -0.126953C41.2238 -0.126953 42.039 1.14109 43.5063 2.77143C45.1185 4.56481 47.0387 4.49235 47.8901 4.63727C48.5966 5.14449 49.3574 5.70605 50.1907 6.3763C50.1907 6.3763 50.1907 6.3763 50.1726 6.3763C50.1726 6.3763 50.1726 6.3763 50.1545 6.3763C49.611 6.14081 49.0132 5.97777 48.3611 5.86908C48.3068 5.86908 48.2343 5.85097 48.18 5.83285C47.872 5.77851 47.5459 5.74228 47.2199 5.70605C46.7308 5.65171 46.1692 5.59736 45.6257 5.50679C45.0823 5.41621 44.5207 5.28941 44.0679 5.12637C44.8287 6.46688 46.3141 7.66246 47.7633 8.15156C49.7378 8.73124 51.4406 8.0791 52.0928 7.9523C52.7993 8.58632 53.5238 9.25657 54.2666 10.0174C54.3752 10.1261 54.4839 10.271 54.6107 10.3797C54.3571 10.1985 54.0492 9.99928 53.6507 9.83625C53.5782 9.80002 53.4876 9.78191 53.4152 9.74568C53.3065 9.70945 53.2159 9.67322 53.0891 9.6551C52.9623 9.61887 52.8174 9.60076 52.6724 9.56453C52.5819 9.56453 52.4913 9.5283 52.4007 9.5283C52.1471 9.51018 51.8754 9.49207 51.5674 9.51018C50.0458 9.54641 48.4879 9.72756 47.0568 9.41961C47.0206 9.41961 46.9844 9.41961 46.9481 9.41961C48.2886 10.5065 49.7741 11.5753 51.495 11.7383C53.6144 11.9376 54.9006 11.1224 55.2448 11.05C56.0781 11.9557 56.9295 12.9339 57.7446 14.0027C57.6903 13.9665 57.654 13.9121 57.5997 13.8759C57.3461 13.6766 57.0744 13.5136 56.7845 13.4049C56.5128 13.2962 56.2411 13.2237 55.9694 13.1513C55.1542 12.9339 54.3571 12.8614 53.542 12.8071C53.2521 12.8071 52.9804 12.7709 52.6906 12.7528C51.8935 12.7165 51.0965 12.6622 50.2632 12.4991C51.966 13.7491 52.2377 15.0352 55.0998 15.8866C56.1143 16.1765 57.8171 15.9591 58.7591 15.3432C59.3931 16.2489 60.009 17.1909 60.5887 18.1872C60.5162 18.1148 60.4619 18.0423 60.3894 17.9698C60.3169 17.9155 60.2445 17.843 60.1901 17.8068C59.6648 17.517 58.9946 17.3539 58.3062 17.2271C57.6178 17.1003 56.9295 17.0279 56.3317 16.9011C56.0418 16.8286 55.752 16.7924 55.4803 16.738C54.6832 16.5931 53.9767 16.4482 53.1797 16.0134C54.7013 18.1329 56.3498 19.7995 58.5055 20.3248C59.846 20.6509 61.0053 20.3972 61.7661 20.3791C61.8386 20.5422 61.9473 20.6871 62.0197 20.8501C62.5451 21.9551 62.998 23.0964 63.3603 24.292C63.1972 24.0927 62.9979 23.9297 62.7806 23.7485C62.527 23.5492 62.2371 23.3681 61.9654 23.2232C61.9292 23.2051 61.8929 23.1869 61.8567 23.1688C61.5669 23.0239 61.277 22.8971 61.0053 22.8428C60.1177 22.6435 59.4474 22.4986 58.5236 22.3537C58.0707 22.2812 57.6722 22.2087 57.2918 22.1C56.9113 21.9914 56.549 21.8283 56.1686 21.5747C57.6541 24.618 60.5524 27.136 64.0848 27.2266C64.1392 27.4802 64.1935 27.7338 64.2479 28.0055C64.3928 28.9113 64.4834 29.8351 64.5196 30.7771C64.4834 30.6865 64.429 30.6141 64.3747 30.5416C64.2479 30.3605 64.1211 30.1793 63.958 30.0163C62.8893 28.8931 61.1865 28.3859 60.2083 27.8606C59.5561 27.5164 58.9221 27.0998 58.4149 26.5744C59.23 28.4584 59.3025 30.3242 61.5488 32.1901C62.8168 33.2407 64.0305 33.3494 64.5196 33.4943C64.4834 34.237 64.429 34.9798 64.3203 35.7043C64.2479 36.2116 64.1573 36.7007 64.0667 37.2079C64.0486 37.1173 64.0124 37.0449 63.9762 36.9724C63.9399 36.8999 63.9218 36.8275 63.8856 36.755C63.8312 36.6644 63.7769 36.5739 63.7225 36.4833C63.6863 36.4108 63.6501 36.3384 63.5957 36.284C63.4871 36.121 63.3784 35.9761 63.2516 35.8312C62.6538 35.1247 61.9292 34.5993 61.2046 34.0921C60.48 33.5849 59.7554 33.0777 59.1395 32.3712C59.3931 33.911 59.5742 35.487 60.0814 36.9724C60.951 39.4541 62.5088 40.3418 63.1429 40.7946C62.8711 41.5917 62.5813 42.3888 62.2552 43.1677C62.0922 43.53 61.8929 43.8923 61.7118 44.2546C61.8024 43.1677 61.5125 42.1895 61.0597 41.2294C60.4075 39.8527 59.5742 39.3817 59.0489 38.0231C58.8496 39.1462 58.5236 40.7765 58.5055 41.9359C58.433 44.7437 59.846 46.2653 60.1901 46.8813C59.5924 47.8051 58.9402 48.6746 58.2518 49.4898C58.125 49.6347 57.9982 49.7796 57.8714 49.9246C58.0163 49.2362 58.1069 48.5116 58.1069 47.8051C58.1069 47.6964 58.1069 47.6059 58.1069 47.4972C58.0888 47.0805 58.0345 46.6639 57.9077 46.2653C57.5272 44.9973 57.0925 43.5481 56.7121 42.5156C56.4947 43.8742 55.7339 45.0879 55.4078 46.4284C55.2991 46.8631 55.2267 47.2436 55.1723 47.5877C55.1542 47.6964 55.1361 47.8232 55.118 47.9319C55.0817 48.1855 55.0636 48.421 55.0455 48.6384C54.9368 50.5224 55.6071 51.0115 55.915 51.9715C55.4803 52.3701 55.0455 52.7686 54.5926 53.149C55.0274 51.3919 53.8318 49.2543 53.0891 47.7689C53.1797 47.4972 52.1109 49.3992 51.8754 51.1926C51.8754 51.2288 51.8754 51.2651 51.8754 51.3013C51.6399 53.3845 52.2015 54.3808 52.3102 54.888C51.821 55.2322 51.3319 55.5764 50.8247 55.8844C50.8972 55.3953 50.8791 54.9243 50.8247 54.4714C50.8247 54.3627 50.7885 54.254 50.7704 54.1453C50.7342 53.9461 50.6798 53.7649 50.6073 53.5657C50.553 53.4026 50.4805 53.2396 50.4081 53.0766C50.3356 52.9316 50.2813 52.7867 50.1907 52.6418C50.0096 52.3338 49.8103 52.0259 49.5567 51.7179C49.5205 51.9172 49.448 52.1346 49.3755 52.352C49.3755 52.3882 49.3393 52.4425 49.3212 52.4788C49.1038 53.0403 48.814 53.6381 48.5422 54.2721C48.1075 55.2685 47.7814 56.3735 47.9626 57.5691C47.9082 57.5872 47.872 57.6234 47.8177 57.6596C47.1655 58.0219 46.5315 58.3118 45.8975 58.6197C46.0062 58.3842 46.0967 58.1487 46.1692 57.9132C46.1692 57.9676 46.1692 58.0038 46.1692 58.0582C46.459 57.1343 46.4228 56.138 46.3866 54.6344C45.825 55.3953 44.883 56.0655 44.2309 56.9169C44.086 57.0981 43.9773 57.2611 43.8686 57.4241C43.1983 58.4748 43.2527 59.3805 43.1983 59.8515C43.1259 59.8878 43.0534 59.9059 42.9991 59.9421C42.6187 60.1051 42.2745 60.2682 41.9122 60.4312C42.3469 59.5798 42.6006 58.5835 42.3832 57.3879C41.6586 58.185 41.1151 58.6922 40.4449 59.3081C40.0826 59.6523 39.7565 60.0689 39.5391 60.5218C39.358 60.8841 39.2493 61.2826 39.2312 61.663C38.7058 61.9166 38.253 62.1521 37.8544 62.3514C37.4559 62.5507 37.1117 62.7499 36.84 62.8948C36.5683 63.0398 36.3509 63.1666 36.2241 63.2571C36.0792 63.3477 36.0067 63.4021 36.0067 63.4202C35.9343 63.4926 35.9162 63.5832 35.9343 63.6738C35.9343 63.6738 35.9524 63.8006 36.0067 63.8549C36.1335 63.9817 36.3147 63.9817 36.4415 63.8549C36.4415 63.8549 36.6226 63.6375 37.0936 63.2571C37.5646 62.8948 38.3254 62.4057 39.358 61.9166C39.4304 61.8804 39.521 61.8442 39.5935 61.8079C39.992 61.971 40.3724 62.2427 40.9521 62.6231C41.6767 63.0941 43.1983 63.2571 43.9954 62.9492C43.7418 62.7861 43.5425 62.5869 43.3614 62.4057C43.1802 62.2065 43.0534 62.0253 42.9447 61.9166C42.4556 61.4275 42.2564 60.9747 41.6767 60.9022C41.6405 60.9022 41.6042 60.9022 41.5861 60.9022C42.0933 60.6848 42.6006 60.4493 43.1621 60.2138C43.2165 60.1957 43.2889 60.1595 43.3433 60.1414C43.3433 60.1414 43.3433 60.1414 43.3252 60.1414C43.778 60.2501 44.5207 61.0471 45.4627 61.2826C47.3286 61.7536 48.2524 61.2826 49.2487 61.5906C49.1763 61.5 49.1038 61.4094 49.0314 61.3188C48.3792 60.4131 47.6003 59.761 46.93 59.4349C46.7126 59.3262 46.4953 59.2356 46.3141 59.1994C46.0605 59.1451 45.8431 59.1269 45.6257 59.1451C45.5895 59.1451 45.5533 59.1451 45.5171 59.1451C46.3141 58.7828 47.1655 58.3661 48.0169 57.9132C48.035 57.9132 48.0531 57.8951 48.0894 57.877C48.5422 58.0219 49.3755 58.7465 50.6073 58.8552C52.7993 59.0545 53.5782 57.8589 55.3535 57.9314C55.0998 57.6053 54.3571 57.1343 53.4514 56.772C52.6 56.4459 51.6218 56.2285 50.7523 56.3554C51.3138 56.0112 51.8935 55.6308 52.4551 55.2322L52.4188 55.2685C53.071 55.4315 53.8318 56.3735 55.752 56.2467C56.9657 56.1561 57.7809 55.504 58.8677 55.0149C59.4293 54.7612 60.3532 54.6163 60.3532 54.6163C60.2626 54.5076 60.1177 54.4171 59.9546 54.3084C59.4655 54.0004 58.7591 53.7106 58.3605 53.6019C58.0345 53.5113 57.491 53.4026 56.9295 53.3302C56.386 53.2577 55.8244 53.2215 55.4803 53.2396C55.2991 53.2396 55.0998 53.2939 54.9187 53.3664C55.3716 52.986 55.8063 52.6056 56.2592 52.1889C56.2592 52.1889 56.2592 52.207 56.2411 52.2252C57.9258 52.5693 59.8097 52.8954 61.2951 52.0259C62.3096 51.4281 62.9255 50.3955 63.7769 49.6166C64.0486 49.363 64.3747 49.2 64.6464 48.9645C64.6464 48.9645 64.6826 48.9464 64.6826 48.9282C63.7407 48.6746 62.4907 48.7833 61.5306 48.8739C61.0234 48.9282 60.5162 49.0188 60.0271 49.1637C59.538 49.3087 59.0851 49.526 58.6504 49.7978C58.6504 49.7978 58.5417 49.8521 58.4873 49.8883C58.5236 49.834 58.5779 49.7978 58.6141 49.7434C59.3568 48.892 60.0271 47.9682 60.6611 47.0081C61.5669 46.9537 63.8675 47.0986 64.9725 46.1929C66.5847 44.8886 66.9651 43.0047 67.9977 41.0301C67.0557 41.4649 66.1137 41.791 65.2261 42.1714C64.3385 42.5518 63.5052 43.0047 62.7806 43.6568C62.7443 43.693 62.69 43.7474 62.6357 43.8017C62.527 43.9104 62.4002 44.0553 62.2734 44.2002C62.4183 43.9104 62.5813 43.6387 62.7081 43.3307L62.6357 43.4213Z" fill="#6D6D6D"/>
<path fill-rule="evenodd" clip-rule="evenodd" d="M35.4448 8.98504L34.9919 7.64453L34.5028 8.98504L33.0898 9.00315L34.213 9.87267L33.7782 11.2313L34.9557 10.4161L36.115 11.2494L35.7165 9.89078L36.8577 9.03938L35.4448 8.98504ZM41.3328 10.1802L40.9524 9.0752L40.5539 10.1802L39.3945 10.1983L40.3184 10.9048L39.9742 12.0279L40.9343 11.3758L41.8944 12.046L41.5683 10.9229L42.5103 10.2164L41.3328 10.1802ZM29.1589 9.0752L29.5574 10.1802L30.7349 10.1983L29.811 10.9048L30.1552 12.0279L29.1951 11.3758L28.235 12.046L28.5611 10.9229L27.6191 10.2164L28.7966 10.1802L29.1589 9.0752ZM46.2234 13.0246L45.8792 12.0283L45.535 13.0065L44.4844 13.0246L45.3177 13.6587L44.9916 14.6731L45.8611 14.0753L46.7306 14.6912L46.4227 13.6768L47.2741 13.0428L46.2234 13.0246ZM24.2322 12.0283L24.5945 13.0065L25.6452 13.0246L24.8119 13.6587L25.1198 14.6731L24.2503 14.0753L23.3989 14.6912L23.6888 13.6768L22.8555 13.0428L23.9061 13.0246L24.2322 12.0283ZM50.9694 16.557L49.9187 16.5207L49.5926 15.5244L49.2304 16.5207L48.1797 16.5388L49.013 17.1729L48.705 18.1692L49.5745 17.5895L50.4259 18.1873L50.1361 17.191L50.9694 16.557ZM20.5369 15.5244L20.8992 16.5207L21.9499 16.5388L21.1166 17.1729L21.4245 18.1692L20.555 17.5895L19.7036 18.1873L19.9934 17.191L19.1602 16.557L20.2108 16.5207L20.5369 15.5244ZM53.2515 20.2164L52.2914 20.1802L51.9834 19.2744L51.6574 20.1802H50.6973L51.4581 20.778L51.1683 21.6837L51.9653 21.1403L52.7443 21.7018L52.4725 20.778L53.2515 20.2164ZM18.145 19.2744L18.453 20.1802H19.413L18.6703 20.778L18.9421 21.6837L18.1631 21.1403L17.3661 21.7018L17.6378 20.778L16.877 20.2164L17.837 20.1802L18.145 19.2744Z" fill="#6D6D6D"/>
<path fill-rule="evenodd" clip-rule="evenodd" d="M45.2269 46.2291C45.1726 46.1023 45.0458 46.0842 44.9552 46.1566C44.3031 46.8631 43.4698 47.2254 42.6365 47.4609C42.243 47.5892 41.8456 47.6933 41.4459 47.7979C40.9992 47.9149 40.5498 48.0325 40.1004 48.1855L40.0284 48.2105C39.6339 48.3474 39.2261 48.4889 38.8505 48.7108C38.452 48.9282 38.0534 49.2181 37.6911 49.5804C37.3288 49.9427 37.0209 50.3774 36.7492 50.8665C36.6042 51.1201 36.4955 51.3737 36.3869 51.6455C36.2782 51.9172 36.1876 52.2433 36.1332 52.515C36.1332 52.5512 36.1332 52.5693 36.1514 52.5874C36.136 52.6181 36.1193 52.6487 36.1023 52.6797L36.1023 52.6798C36.059 52.7589 36.0143 52.8406 35.9883 52.9316C35.8977 53.1852 35.8434 53.4026 35.7891 53.6381V53.8736C35.8434 54.0004 35.9521 54.0366 36.0427 53.9642C36.6223 53.4932 37.2745 53.2215 37.9447 53.0765C38.1224 53.0381 38.3026 53.0035 38.4839 52.9687L38.484 52.9687C38.9869 52.8722 39.4991 52.7738 39.9917 52.5874C40.662 52.3519 41.3322 52.044 41.93 51.5368C42.238 51.2832 42.5097 50.9571 42.7452 50.5767C42.9626 50.2325 43.1256 49.8159 43.2705 49.3992C43.3611 49.3449 43.4517 49.2905 43.5241 49.2362C44.3212 48.6565 44.9552 47.6421 45.2632 46.4646C45.2632 46.4646 45.2632 46.2834 45.245 46.211L45.2269 46.2291ZM41.8032 51.2832C41.2598 51.8266 40.5895 52.1164 39.9374 52.3701C39.3833 52.6009 38.8031 52.6879 38.2189 52.7756L38.2188 52.7756C38.1154 52.7911 38.012 52.8066 37.9085 52.8229C37.3651 52.8954 36.8035 53.0765 36.2782 53.3301C36.2782 53.2939 36.2963 53.2396 36.3144 53.2033C36.3869 53.0222 36.4774 52.8229 36.568 52.6599C36.7673 52.3338 37.0209 52.0621 37.3107 51.8447C37.8904 51.41 38.5425 51.1926 39.2128 50.9933C39.5123 50.8982 39.8181 50.8131 40.1268 50.7272C40.9944 50.4857 41.8854 50.2377 42.7271 49.7434C42.7029 49.8098 42.6808 49.8781 42.6587 49.9465L42.6586 49.9467C42.6144 50.0835 42.5701 50.2204 42.5097 50.3412C42.3285 50.7216 42.0749 51.0296 41.8032 51.2832ZM43.3249 48.7833C43.2334 48.8617 43.1325 48.9213 43.0289 48.9824C42.989 49.006 42.9486 49.0298 42.9082 49.055C42.872 49.0731 42.8403 49.0912 42.8086 49.1093L42.8086 49.1094C42.7769 49.1275 42.7452 49.1456 42.709 49.1637C42.5459 49.2543 42.3467 49.3449 42.1836 49.4173C41.7851 49.5804 41.3685 49.7253 40.9518 49.8521C40.7435 49.9155 40.5352 49.9766 40.3268 50.0378C39.7019 50.2212 39.0769 50.4046 38.452 50.6491C38.0353 50.8122 37.6187 51.0114 37.2201 51.265C37.0571 51.3737 36.9122 51.5005 36.7673 51.6273L36.7673 51.6273C36.8216 51.4462 36.8941 51.2651 36.9665 51.084L36.9665 51.0839L36.9665 51.0839C37.202 50.5948 37.4919 50.16 37.8179 49.7977C38.4882 49.055 39.3034 48.6746 40.1366 48.4029C40.8106 48.1978 41.4964 48.0401 42.1844 47.8818C42.3471 47.8444 42.5099 47.807 42.6727 47.7689C43.343 47.6058 44.0132 47.3885 44.6473 46.9899C44.3393 47.7508 43.8864 48.3667 43.3249 48.7833ZM34.1595 52.9684C34.1354 52.8838 34.0951 52.8154 34.0549 52.747C34.0347 52.7127 34.0146 52.6785 33.9965 52.6423V52.5336C33.924 52.2619 33.8334 51.9358 33.7429 51.6641C33.6342 51.3924 33.5074 51.1207 33.3806 50.8852C33.1089 50.3961 32.8009 49.9432 32.4386 49.599C32.0763 49.2367 31.6959 48.9469 31.2792 48.7295C30.8626 48.5121 30.446 48.3491 30.0293 48.2042C29.5799 48.0512 29.1305 47.9335 28.6838 47.8165C28.2842 47.7119 27.8867 47.6079 27.4932 47.4796C26.6599 47.2259 25.8267 46.8636 25.1745 46.1753C25.1745 46.1753 25.0658 46.1028 24.9934 46.1391C24.8847 46.1934 24.8485 46.3383 24.8847 46.4832C25.1926 47.6607 25.8267 48.6933 26.6237 49.2729C26.6936 49.3289 26.7528 49.3632 26.8178 49.401L26.8178 49.401L26.8178 49.401C26.837 49.4121 26.8567 49.4236 26.8773 49.436C27.0222 49.8526 27.1853 50.2693 27.4027 50.6134C27.6381 50.9938 27.9099 51.3199 28.2178 51.5735C28.8337 52.0807 29.504 52.3887 30.1561 52.6242C30.6487 52.8106 31.1609 52.9089 31.6639 53.0055L31.6639 53.0055C31.8453 53.0403 32.0255 53.0749 32.2031 53.1133C32.8734 53.2582 33.5255 53.5299 34.1052 54.0009C34.1414 54.0372 34.2139 54.0553 34.2501 54.019C34.3407 53.9828 34.395 53.8379 34.3769 53.693C34.3226 53.4394 34.2682 53.222 34.1776 52.9684H34.1595ZM25.4825 46.9905C26.1165 47.389 26.8049 47.6064 27.457 47.7694L27.4572 47.7694C28.3085 47.9687 29.1599 48.1679 29.9931 48.4034C30.8264 48.6751 31.6597 49.0556 32.3118 49.7983C32.6379 50.1606 32.9277 50.5953 33.1632 51.0844L33.1632 51.0845L33.1632 51.0845C33.2357 51.2656 33.3081 51.4468 33.3625 51.6279C33.3329 51.602 33.3033 51.5754 33.2736 51.5486L33.2736 51.5486C33.1576 51.4442 33.0394 51.3377 32.9096 51.2656C32.5111 51.012 32.0944 50.8127 31.6778 50.6497C31.0873 50.4186 30.4878 50.2421 29.8985 50.0687C29.6561 49.9973 29.4155 49.9265 29.1779 49.8526C28.7613 49.7258 28.3446 49.5809 27.9461 49.4179C27.765 49.3454 27.5838 49.2548 27.4208 49.1642C27.3845 49.1461 27.3528 49.128 27.3211 49.1099L27.3211 49.1099C27.2894 49.0918 27.2577 49.0737 27.2215 49.0556C27.1811 49.0303 27.1408 49.0065 27.1008 48.9829C26.9973 48.9218 26.8963 48.8622 26.8049 48.7838C26.2433 48.3672 25.7904 47.7513 25.4825 46.9905ZM32.2031 52.8416C32.0344 52.8105 31.8656 52.7838 31.6974 52.7571C31.1794 52.6751 30.6665 52.5938 30.1742 52.3887C29.5221 52.1351 28.8518 51.8271 28.3084 51.3018C28.0367 51.0301 27.7831 50.7221 27.6019 50.3598C27.5415 50.2391 27.4973 50.1022 27.453 49.9653L27.453 49.9653C27.4308 49.8969 27.4087 49.8285 27.3845 49.762C28.1999 50.2409 29.0522 50.4793 29.8953 50.7152C30.2323 50.8095 30.5678 50.9033 30.8988 51.012C31.5691 51.2112 32.2212 51.4286 32.8009 51.8634C33.0907 52.0807 33.3443 52.3525 33.5436 52.6785C33.6388 52.8213 33.7062 52.992 33.7702 53.1538L33.7972 53.222C33.7972 53.2582 33.8153 53.3126 33.8334 53.3488C33.29 53.0952 32.7466 52.9321 32.2031 52.8416ZM35.861 49.5439C35.8972 49.7612 35.8972 49.9786 35.8972 50.196L35.9335 50.1598C35.9335 50.3772 35.8972 50.6126 35.8429 50.83C35.7342 51.2829 35.4806 51.6633 35.2089 51.9169C35.1002 52.0075 34.9734 52.0075 34.8828 51.9169C34.8659 51.9 34.8472 51.883 34.8272 51.865C34.7833 51.8252 34.7334 51.78 34.6835 51.7177C34.6731 51.7037 34.6619 51.6891 34.6504 51.6739C34.602 51.6103 34.5463 51.5372 34.5024 51.464C34.3937 51.2648 34.3031 51.0655 34.2488 50.83C34.1763 50.5945 34.1582 50.359 34.1582 50.1417V49.8156C34.1582 49.725 34.1763 49.6163 34.1944 49.5077L34.1944 49.5076C34.3394 48.6743 34.6473 47.986 35.0096 47.352C35.0277 47.2976 35.0821 47.2976 35.1183 47.3338V47.352C35.4625 48.0041 35.7342 48.7106 35.861 49.5439ZM35.3357 50.5945C35.39 50.4496 35.4262 50.3047 35.4444 50.1417L35.4625 50.1598C35.4806 49.9967 35.4806 49.8156 35.4806 49.6344C35.4444 49.0004 35.2813 48.3302 35.0639 47.7143C34.8285 48.3302 34.6292 48.9823 34.593 49.6344V49.9062V50.1598C34.6111 50.3228 34.6473 50.4858 34.7017 50.6126C34.756 50.7394 34.8285 50.8663 34.9009 50.9568L35.0096 51.0655C35.1364 50.9387 35.2632 50.7938 35.3357 50.5945Z" fill="#6D6D6D"/>
<path d="M22.5025 38C22.5025 37.7573 22.5328 37.5403 22.5935 37.349C22.6588 37.1577 22.7428 36.985 22.8455 36.831C22.9528 36.677 23.0695 36.5347 23.1955 36.404C23.3262 36.2733 23.4592 36.145 23.5945 36.019C23.9352 35.7017 24.1755 35.4147 24.3155 35.158C24.4602 34.9013 24.5325 34.647 24.5325 34.395C24.5325 34.2457 24.5138 34.101 24.4765 33.961C24.4392 33.821 24.3715 33.7067 24.2735 33.618C24.1755 33.5247 24.0378 33.4803 23.8605 33.485C23.7345 33.485 23.6202 33.5153 23.5175 33.576C23.4195 33.632 23.3448 33.6997 23.2935 33.779C23.3448 33.8303 23.3798 33.891 23.3985 33.961C23.4218 34.031 23.4335 34.0917 23.4335 34.143C23.4335 34.1943 23.4172 34.2573 23.3845 34.332C23.3518 34.402 23.3005 34.4627 23.2305 34.514C23.1652 34.5653 23.0742 34.591 22.9575 34.591C22.8128 34.5817 22.7008 34.528 22.6215 34.43C22.5468 34.332 22.5095 34.2153 22.5095 34.08C22.5095 33.9727 22.5422 33.8583 22.6075 33.737C22.6728 33.611 22.7708 33.492 22.9015 33.38C23.0322 33.2633 23.1908 33.17 23.3775 33.1C23.5688 33.0253 23.7882 32.988 24.0355 32.988C24.2222 32.988 24.4065 33.0113 24.5885 33.058C24.7752 33.1047 24.9455 33.1793 25.0995 33.282C25.2535 33.3847 25.3748 33.52 25.4635 33.688C25.5568 33.856 25.6035 34.0637 25.6035 34.311C25.6035 34.4277 25.5825 34.5513 25.5405 34.682C25.4985 34.808 25.4215 34.948 25.3095 35.102C25.1975 35.2513 25.0412 35.424 24.8405 35.62C24.6398 35.816 24.3808 36.0447 24.0635 36.306C23.8068 36.516 23.6178 36.7073 23.4965 36.88C23.3752 37.0527 23.3028 37.1857 23.2795 37.279L24.6515 37.314C24.7588 37.3187 24.8498 37.3117 24.9245 37.293C25.0038 37.2697 25.0645 37.2253 25.1065 37.16C25.1532 37.09 25.1765 36.9897 25.1765 36.859H25.6245L25.5685 38H22.5025ZM27.7119 38.112C27.4086 38.112 27.1496 38.063 26.9349 37.965C26.7202 37.867 26.5546 37.7457 26.4379 37.601C26.3259 37.4517 26.2699 37.3023 26.2699 37.153C26.2699 37.0177 26.3119 36.8963 26.3959 36.789C26.4799 36.6817 26.5942 36.6257 26.7389 36.621C26.8556 36.6163 26.9466 36.6397 27.0119 36.691C27.0772 36.7377 27.1239 36.796 27.1519 36.866C27.1799 36.936 27.1939 37.0037 27.1939 37.069C27.1939 37.1063 27.1869 37.153 27.1729 37.209C27.1636 37.2603 27.1449 37.3093 27.1169 37.356C27.1402 37.4073 27.1822 37.454 27.2429 37.496C27.3036 37.5333 27.3712 37.5637 27.4459 37.587C27.5252 37.6057 27.5976 37.615 27.6629 37.615C27.8496 37.615 27.9989 37.566 28.1109 37.468C28.2276 37.37 28.3116 37.244 28.3629 37.09C28.4142 36.936 28.4399 36.7797 28.4399 36.621C28.4399 36.5137 28.4329 36.3923 28.4189 36.257C28.4049 36.1217 28.3699 35.9887 28.3139 35.858C28.2626 35.7273 28.1786 35.62 28.0619 35.536C27.9499 35.452 27.7959 35.41 27.5999 35.41C27.5346 35.41 27.4576 35.4193 27.3689 35.438C27.2802 35.452 27.1822 35.4777 27.0749 35.515C26.9722 35.5523 26.8672 35.6037 26.7599 35.669L26.4589 35.438L26.4309 33.1H28.2439C28.4072 33.1 28.5356 33.0743 28.6289 33.023C28.7269 32.967 28.7759 32.841 28.7759 32.645H29.2169L29.1679 33.779L26.9699 33.821V35.067C27.0772 35.0203 27.2102 34.9807 27.3689 34.948C27.5276 34.9153 27.6769 34.899 27.8169 34.899C28.1062 34.899 28.3582 34.941 28.5729 35.025C28.7876 35.109 28.9649 35.2257 29.1049 35.375C29.2449 35.5197 29.3476 35.6877 29.4129 35.879C29.4829 36.0657 29.5179 36.264 29.5179 36.474C29.5179 36.8333 29.4292 37.1367 29.2519 37.384C29.0792 37.6267 28.8552 37.8087 28.5799 37.93C28.3046 38.0513 28.0152 38.112 27.7119 38.112ZM31.7512 38.112C31.3359 38.112 31.0045 38.0163 30.7572 37.825C30.5099 37.629 30.3325 37.3537 30.2252 36.999C30.1179 36.6443 30.0642 36.2267 30.0642 35.746C30.0642 35.5827 30.0805 35.3843 30.1132 35.151C30.1459 34.9177 30.2019 34.6773 30.2812 34.43C30.3605 34.178 30.4725 33.9423 30.6172 33.723C30.7619 33.5037 30.9462 33.3263 31.1702 33.191C31.3942 33.0557 31.6649 32.988 31.9822 32.988C32.2762 32.988 32.5165 33.037 32.7032 33.135C32.8945 33.233 33.0345 33.3543 33.1232 33.499C33.2119 33.639 33.2562 33.7813 33.2562 33.926C33.2562 34.052 33.2189 34.1663 33.1442 34.269C33.0695 34.3717 32.9599 34.423 32.8152 34.423C32.6425 34.423 32.5212 34.374 32.4512 34.276C32.3859 34.1733 32.3532 34.0753 32.3532 33.982C32.3532 33.9447 32.3602 33.8957 32.3742 33.835C32.3882 33.7743 32.4139 33.7207 32.4512 33.674C32.4139 33.618 32.3532 33.569 32.2692 33.527C32.1899 33.485 32.0919 33.4687 31.9752 33.478C31.8399 33.4873 31.7209 33.5317 31.6182 33.611C31.5202 33.6857 31.4362 33.786 31.3662 33.912C31.3009 34.0333 31.2472 34.171 31.2052 34.325C31.1679 34.479 31.1375 34.6377 31.1142 34.801C31.0955 34.9643 31.0839 35.1207 31.0792 35.27C31.1305 35.2093 31.2029 35.151 31.2962 35.095C31.3942 35.0343 31.5039 34.9853 31.6252 34.948C31.7465 34.906 31.8632 34.8827 31.9752 34.878C32.2365 34.8687 32.4605 34.9037 32.6472 34.983C32.8339 35.0577 32.9879 35.1697 33.1092 35.319C33.2305 35.4637 33.3192 35.6363 33.3752 35.837C33.4359 36.0377 33.4662 36.257 33.4662 36.495C33.4662 36.789 33.3915 37.0597 33.2422 37.307C33.0975 37.5497 32.8945 37.7457 32.6332 37.895C32.3765 38.0397 32.0825 38.112 31.7512 38.112ZM31.7862 37.622C31.9495 37.622 32.0755 37.5777 32.1642 37.489C32.2575 37.3957 32.3205 37.2767 32.3532 37.132C32.3905 36.9827 32.4092 36.8287 32.4092 36.67C32.4092 36.5627 32.4022 36.4413 32.3882 36.306C32.3789 36.166 32.3532 36.0307 32.3112 35.9C32.2692 35.7647 32.2062 35.655 32.1222 35.571C32.0382 35.4823 31.9239 35.438 31.7792 35.438C31.6812 35.438 31.5855 35.459 31.4922 35.501C31.4035 35.543 31.3219 35.599 31.2472 35.669C31.1772 35.739 31.1212 35.816 31.0792 35.9C31.0792 36.0633 31.0909 36.243 31.1142 36.439C31.1375 36.635 31.1749 36.824 31.2262 37.006C31.2822 37.1833 31.3545 37.3303 31.4432 37.447C31.5365 37.5637 31.6509 37.622 31.7862 37.622ZM34.1256 36.18V35.424H36.7016V36.159L34.1256 36.18ZM37.2563 38V37.538C37.3636 37.5333 37.4523 37.5193 37.5223 37.496C37.5969 37.4727 37.6529 37.419 37.6903 37.335C37.7323 37.251 37.7533 37.1157 37.7533 36.929V34.248C37.7533 34.122 37.7556 34.0007 37.7603 33.884C37.7696 33.7673 37.7766 33.6787 37.7812 33.618C37.7066 33.6227 37.6133 33.6273 37.5013 33.632C37.3893 33.632 37.3076 33.6343 37.2563 33.639V33.1C37.5783 33.0953 37.9003 33.093 38.2223 33.093C38.5489 33.093 38.8733 33.0907 39.1953 33.086C39.7553 33.0813 40.1986 33.1863 40.5253 33.401C40.8566 33.611 41.0106 33.9307 40.9873 34.36C40.9779 34.4953 40.9359 34.6283 40.8612 34.759C40.7866 34.885 40.6746 34.9993 40.5253 35.102C40.3806 35.2047 40.1986 35.2863 39.9793 35.347V35.354C40.4459 35.4287 40.7889 35.585 41.0083 35.823C41.2276 36.0563 41.3373 36.3177 41.3373 36.607C41.3373 36.9103 41.2626 37.167 41.1133 37.377C40.9686 37.5823 40.7679 37.7387 40.5113 37.846C40.2546 37.9487 39.9629 38 39.6363 38H37.2563ZM38.7403 37.503C38.8243 37.503 38.9036 37.503 38.9783 37.503C39.0529 37.503 39.1276 37.503 39.2023 37.503C39.2769 37.4983 39.3493 37.496 39.4193 37.496C39.7039 37.482 39.9116 37.391 40.0423 37.223C40.1729 37.055 40.2383 36.8427 40.2383 36.586C40.2383 36.3713 40.1939 36.2033 40.1053 36.082C40.0166 35.956 39.9023 35.8673 39.7623 35.816C39.6269 35.7647 39.4846 35.739 39.3353 35.739C39.2186 35.739 39.1183 35.739 39.0343 35.739C38.9503 35.739 38.8616 35.7413 38.7683 35.746V36.887C38.7683 37.013 38.7659 37.132 38.7613 37.244C38.7566 37.356 38.7496 37.4423 38.7403 37.503ZM38.7683 35.249L39.1323 35.242C39.3283 35.2373 39.4823 35.193 39.5943 35.109C39.7109 35.025 39.7926 34.913 39.8393 34.773C39.8906 34.6283 39.9163 34.472 39.9163 34.304C39.9163 34.1173 39.8789 33.9727 39.8043 33.87C39.7296 33.7627 39.6363 33.6857 39.5243 33.639C39.4123 33.5923 39.2956 33.5713 39.1743 33.576C39.0996 33.576 39.0319 33.5877 38.9713 33.611C38.9106 33.6343 38.8616 33.688 38.8243 33.772C38.7869 33.8513 38.7683 33.982 38.7683 34.164V35.249ZM43.818 33.562C43.7153 33.5667 43.6267 33.5807 43.552 33.604C43.4773 33.6273 43.419 33.681 43.377 33.765C43.3397 33.8443 43.321 33.9797 43.321 34.171V36.852C43.321 36.978 43.3187 37.0993 43.314 37.216C43.3093 37.3327 43.3023 37.4213 43.293 37.482C43.3677 37.4727 43.461 37.468 43.573 37.468C43.6897 37.4633 43.7713 37.461 43.818 37.461V38H41.809V37.538C41.9163 37.5333 42.005 37.5193 42.075 37.496C42.1497 37.4727 42.2057 37.419 42.243 37.335C42.285 37.251 42.306 37.1157 42.306 36.929V34.248C42.306 34.122 42.3083 34.0007 42.313 33.884C42.3223 33.7673 42.3293 33.6787 42.334 33.618C42.2593 33.6227 42.166 33.6273 42.054 33.632C41.942 33.632 41.8603 33.6343 41.809 33.639V33.1H43.818V33.562ZM48.135 34.682C48.135 34.43 48.1 34.2223 48.03 34.059C47.96 33.891 47.8597 33.7673 47.729 33.688C47.603 33.604 47.4513 33.5643 47.274 33.569H46.938V36.852C46.938 36.978 46.9357 37.0993 46.931 37.216C46.9263 37.3327 46.9193 37.4213 46.91 37.482C46.9893 37.4727 47.0897 37.468 47.211 37.468C47.337 37.4633 47.4233 37.461 47.47 37.461V38H45.426V37.538C45.5333 37.5333 45.622 37.5193 45.692 37.496C45.7667 37.4727 45.8227 37.419 45.86 37.335C45.902 37.251 45.923 37.1157 45.923 36.929V33.576H45.601C45.335 33.5807 45.125 33.6717 44.971 33.849C44.817 34.0263 44.74 34.304 44.74 34.682H44.278L44.313 33.1H48.555L48.597 34.682H48.135Z" fill="#6D6D6D"/>
<path d="M23.8733 42.988C23.8733 42.8733 23.856 42.7907 23.8213 42.74C23.7893 42.6893 23.74 42.6587 23.6733 42.648C23.6067 42.6347 23.524 42.6307 23.4253 42.636L23.1933 42.644V43.476C23.1933 43.548 23.192 43.612 23.1893 43.668C23.1893 43.7213 23.1867 43.7653 23.1813 43.8L23.8693 43.792C23.9733 43.7893 24.0667 43.7707 24.1493 43.736C24.232 43.6987 24.2973 43.636 24.3453 43.548C24.3933 43.46 24.4173 43.34 24.4173 43.188H24.5933L24.5693 44H22.4893V43.824C22.5773 43.8187 22.64 43.8 22.6773 43.768C22.7173 43.736 22.7427 43.688 22.7533 43.624C22.764 43.56 22.7693 43.4787 22.7693 43.38V41.716C22.7693 41.6573 22.7707 41.6013 22.7733 41.548C22.776 41.492 22.7787 41.444 22.7813 41.404C22.736 41.4067 22.6867 41.4093 22.6333 41.412C22.58 41.4147 22.532 41.4173 22.4893 41.42V41.2H24.4413L24.4613 41.924H24.2853C24.2853 41.772 24.26 41.656 24.2093 41.576C24.1613 41.496 24.0973 41.4427 24.0173 41.416C23.94 41.3893 23.856 41.3773 23.7653 41.38L23.4853 41.388C23.4027 41.388 23.34 41.4027 23.2973 41.432C23.2547 41.4587 23.2267 41.504 23.2133 41.568C23.2 41.6293 23.1933 41.7133 23.1933 41.82V42.448H23.8533L23.8293 42.104H24.0493V42.988H23.8733ZM27.1495 44.056L25.6615 42.08C25.6322 42.0453 25.6042 42.0093 25.5775 41.972C25.5509 41.9347 25.5229 41.896 25.4935 41.856H25.4895L25.5015 43.412C25.5015 43.4787 25.5002 43.5453 25.4975 43.612C25.4975 43.6787 25.4949 43.74 25.4895 43.796C25.5349 43.7907 25.5842 43.788 25.6375 43.788C25.6935 43.7853 25.7415 43.7827 25.7815 43.78V44H24.9895V43.824C25.0642 43.824 25.1202 43.8093 25.1575 43.78C25.1975 43.7507 25.2242 43.712 25.2375 43.664C25.2535 43.616 25.2615 43.56 25.2615 43.496V41.704C25.2615 41.6507 25.2615 41.5973 25.2615 41.544C25.2615 41.4907 25.2629 41.444 25.2655 41.404C25.2229 41.4067 25.1749 41.4093 25.1215 41.412C25.0709 41.4147 25.0255 41.4173 24.9855 41.42V41.2H25.5135L26.9215 43.052C26.9669 43.1107 27.0069 43.1653 27.0415 43.216C27.0789 43.2667 27.1149 43.3147 27.1495 43.36H27.1535L27.1575 41.716C27.1575 41.6573 27.1589 41.6013 27.1615 41.548C27.1642 41.492 27.1669 41.444 27.1695 41.404C27.1215 41.4067 27.0709 41.4093 27.0175 41.412C26.9642 41.4147 26.9175 41.4173 26.8775 41.42V41.2H27.6695V41.376C27.5842 41.3787 27.5215 41.3973 27.4815 41.432C27.4442 41.464 27.4202 41.512 27.4095 41.576C27.4015 41.6373 27.3975 41.7187 27.3975 41.82L27.3935 44.056H27.1495ZM30.1807 42.092C30.1514 41.852 30.0687 41.668 29.9327 41.54C29.7967 41.4093 29.6194 41.3427 29.4007 41.34C29.262 41.34 29.134 41.3707 29.0167 41.432C28.8994 41.4933 28.798 41.58 28.7127 41.692C28.6274 41.8013 28.5607 41.932 28.5127 42.084C28.4674 42.2333 28.4447 42.3973 28.4447 42.576C28.4447 42.8187 28.4874 43.0347 28.5727 43.224C28.658 43.4107 28.7754 43.556 28.9247 43.66C29.0767 43.764 29.2487 43.816 29.4407 43.816C29.6114 43.816 29.7794 43.776 29.9447 43.696C30.1127 43.6133 30.2514 43.4973 30.3607 43.348L30.4927 43.46C30.3727 43.6253 30.2447 43.752 30.1087 43.84C29.9727 43.928 29.8367 43.9867 29.7007 44.016C29.5674 44.048 29.446 44.064 29.3367 44.064C29.1367 44.064 28.9527 44.028 28.7847 43.956C28.6167 43.884 28.4714 43.784 28.3487 43.656C28.2287 43.5253 28.1354 43.3747 28.0687 43.204C28.0047 43.0307 27.9727 42.844 27.9727 42.644C27.9727 42.4573 28.002 42.2747 28.0607 42.096C28.1194 41.9173 28.206 41.756 28.3207 41.612C28.4354 41.4653 28.5794 41.3493 28.7527 41.264C28.9287 41.1787 29.1327 41.136 29.3647 41.136C29.5007 41.136 29.6327 41.1547 29.7607 41.192C29.8914 41.2293 30.0167 41.2867 30.1367 41.364L30.1167 41.164H30.3647V42.092H30.1807ZM30.7979 44V43.824C30.8859 43.8187 30.9486 43.8 30.9859 43.768C31.0259 43.736 31.0513 43.688 31.0619 43.624C31.0726 43.56 31.0779 43.4787 31.0779 43.38V41.716C31.0779 41.6573 31.0793 41.6013 31.0819 41.548C31.0846 41.492 31.0873 41.444 31.0899 41.404C31.0446 41.4067 30.9953 41.4093 30.9419 41.412C30.8886 41.4147 30.8406 41.4173 30.7979 41.42V41.2C30.9606 41.1973 31.1246 41.196 31.2899 41.196C31.4553 41.1933 31.6219 41.1933 31.7899 41.196C32.0406 41.196 32.2473 41.2253 32.4099 41.284C32.5726 41.34 32.6939 41.424 32.7739 41.536C32.8566 41.648 32.8966 41.7893 32.8939 41.96C32.8966 42.0667 32.8753 42.1733 32.8299 42.28C32.7846 42.384 32.7086 42.4773 32.6019 42.56C32.4953 42.6427 32.3486 42.7053 32.1619 42.748C32.2153 42.78 32.2633 42.824 32.3059 42.88C32.3486 42.936 32.3926 42.9987 32.4379 43.068L32.6819 43.444C32.7326 43.524 32.7793 43.592 32.8219 43.648C32.8646 43.704 32.9126 43.748 32.9659 43.78C33.0193 43.8093 33.0833 43.824 33.1579 43.824V44H32.6019C32.5326 43.9413 32.4726 43.8787 32.4219 43.812C32.3739 43.7427 32.3219 43.6653 32.2659 43.58L31.9899 43.132C31.9553 43.0787 31.9179 43.0213 31.8779 42.96C31.8406 42.8987 31.7993 42.8467 31.7539 42.804C31.7113 42.804 31.6686 42.804 31.6259 42.804C31.5859 42.804 31.5446 42.804 31.5019 42.804V43.464C31.5019 43.536 31.5006 43.6013 31.4979 43.66C31.4979 43.716 31.4953 43.7613 31.4899 43.796C31.5219 43.7933 31.5553 43.792 31.5899 43.792C31.6273 43.7893 31.6633 43.7867 31.6979 43.784C31.7353 43.7813 31.7673 43.78 31.7939 43.78V44H30.7979ZM31.7339 42.608C31.8806 42.6053 32.0059 42.5827 32.1099 42.54C32.2139 42.4947 32.2939 42.4267 32.3499 42.336C32.4059 42.2427 32.4339 42.1227 32.4339 41.976C32.4339 41.8667 32.4179 41.7747 32.3859 41.7C32.3539 41.6253 32.3086 41.5653 32.2499 41.52C32.1913 41.472 32.1206 41.4387 32.0379 41.42C31.9579 41.3987 31.8713 41.388 31.7779 41.388C31.6926 41.388 31.6299 41.404 31.5899 41.436C31.5526 41.468 31.5286 41.5147 31.5179 41.576C31.5073 41.6373 31.5019 41.716 31.5019 41.812V42.596C31.5419 42.5987 31.5793 42.6027 31.6139 42.608C31.6513 42.6107 31.6913 42.6107 31.7339 42.608ZM33.969 44V43.824C34.057 43.8187 34.1197 43.8 34.157 43.768C34.1943 43.736 34.2183 43.688 34.229 43.624C34.2397 43.5573 34.245 43.476 34.245 43.38L34.249 42.96L33.537 41.84C33.481 41.7467 33.4357 41.664 33.401 41.592C33.369 41.52 33.3503 41.46 33.345 41.412C33.3023 41.4147 33.2623 41.416 33.225 41.416C33.1877 41.416 33.1503 41.4173 33.113 41.42V41.2H34.193V41.376C34.0863 41.3733 34.0077 41.388 33.957 41.42C33.909 41.452 33.8877 41.4987 33.893 41.56C33.8983 41.6187 33.925 41.688 33.973 41.768L34.289 42.272C34.3103 42.304 34.3343 42.3413 34.361 42.384C34.3877 42.4267 34.4143 42.4707 34.441 42.516C34.4703 42.5587 34.497 42.6027 34.521 42.648H34.529C34.553 42.5973 34.5797 42.544 34.609 42.488C34.641 42.4293 34.673 42.3653 34.705 42.296L35.001 41.732C35.0143 41.7053 35.0317 41.672 35.053 41.632C35.0743 41.592 35.097 41.552 35.121 41.512C35.1477 41.4693 35.1743 41.4347 35.201 41.408C35.153 41.4107 35.0997 41.4133 35.041 41.416C34.985 41.416 34.9343 41.4173 34.889 41.42V41.2H35.725V41.376C35.6077 41.3867 35.509 41.4307 35.429 41.508C35.3517 41.5827 35.269 41.7013 35.181 41.864C35.093 42.032 35.0063 42.1973 34.921 42.36C34.8357 42.52 34.753 42.6773 34.673 42.832C34.673 42.8747 34.6717 42.9293 34.669 42.996C34.669 43.0627 34.669 43.1293 34.669 43.196C34.669 43.2627 34.669 43.3213 34.669 43.372C34.669 43.42 34.669 43.4507 34.669 43.464C34.669 43.536 34.6677 43.6013 34.665 43.66C34.665 43.716 34.6623 43.7613 34.657 43.796C34.7103 43.7907 34.7663 43.788 34.825 43.788C34.8863 43.7853 34.9397 43.7827 34.985 43.78V44H33.969ZM35.9151 43.824C36.0031 43.8187 36.0658 43.8 36.1031 43.768C36.1431 43.736 36.1685 43.688 36.1791 43.624C36.1898 43.56 36.1951 43.4787 36.1951 43.38V41.716C36.1951 41.6573 36.1965 41.6013 36.1991 41.548C36.2018 41.492 36.2045 41.444 36.2071 41.404C36.1618 41.4067 36.1125 41.4093 36.0591 41.412C36.0058 41.4147 35.9578 41.4173 35.9151 41.42V41.2C36.0725 41.1973 36.2325 41.196 36.3951 41.196C36.5578 41.1933 36.7231 41.192 36.8911 41.192C37.1418 41.192 37.3538 41.2227 37.5271 41.284C37.7031 41.3427 37.8378 41.4333 37.9311 41.556C38.0271 41.676 38.0765 41.828 38.0791 42.012C38.0818 42.116 38.0631 42.224 38.0231 42.336C37.9831 42.4453 37.9151 42.548 37.8191 42.644C37.7231 42.7373 37.5925 42.8133 37.4271 42.872C37.2645 42.9307 37.0591 42.96 36.8111 42.96C36.7845 42.9627 36.7538 42.964 36.7191 42.964C36.6871 42.964 36.6538 42.9627 36.6191 42.96V43.464C36.6191 43.536 36.6178 43.6013 36.6151 43.66C36.6151 43.716 36.6125 43.7613 36.6071 43.796C36.6445 43.7933 36.6845 43.7907 36.7271 43.788C36.7698 43.7853 36.8111 43.784 36.8511 43.784C36.8938 43.7813 36.9325 43.7787 36.9671 43.776V44H35.9151V43.824ZM36.6191 42.748C36.6645 42.7533 36.7031 42.7573 36.7351 42.76C36.7698 42.76 36.8098 42.76 36.8551 42.76C37.0045 42.76 37.1365 42.732 37.2511 42.676C37.3658 42.62 37.4551 42.5387 37.5191 42.432C37.5831 42.3253 37.6151 42.1987 37.6151 42.052C37.6151 41.924 37.5951 41.8173 37.5551 41.732C37.5178 41.644 37.4645 41.576 37.3951 41.528C37.3285 41.4773 37.2511 41.4413 37.1631 41.42C37.0751 41.3987 36.9818 41.388 36.8831 41.388C36.8031 41.388 36.7445 41.404 36.7071 41.436C36.6698 41.468 36.6458 41.5147 36.6351 41.576C36.6245 41.6373 36.6191 41.716 36.6191 41.812V42.748ZM40.4719 42.064C40.4692 41.912 40.4519 41.7853 40.4199 41.684C40.3879 41.5827 40.3345 41.5067 40.2599 41.456C40.1879 41.4053 40.0879 41.3813 39.9599 41.384H39.6719L39.6679 43.464C39.6679 43.536 39.6665 43.6013 39.6639 43.66C39.6639 43.716 39.6612 43.7613 39.6559 43.796C39.7065 43.7907 39.7612 43.788 39.8199 43.788C39.8812 43.7853 39.9359 43.7827 39.9839 43.78V44H38.9679V43.824C39.0559 43.8187 39.1185 43.8 39.1559 43.768C39.1932 43.736 39.2172 43.688 39.2279 43.624C39.2385 43.5573 39.2439 43.476 39.2439 43.38V41.388L38.9079 41.392C38.7452 41.392 38.6265 41.4467 38.5519 41.556C38.4772 41.6653 38.4399 41.8347 38.4399 42.064H38.2519L38.2759 41.2H40.6359L40.6599 42.064H40.4719ZM41.9382 41.376C41.8529 41.3787 41.7902 41.3973 41.7502 41.432C41.7102 41.464 41.6849 41.512 41.6742 41.576C41.6635 41.6373 41.6582 41.7187 41.6582 41.82V43.464C41.6582 43.536 41.6569 43.6013 41.6542 43.66C41.6542 43.716 41.6515 43.7613 41.6462 43.796C41.6915 43.7907 41.7409 43.788 41.7942 43.788C41.8502 43.7853 41.8982 43.7827 41.9382 43.78V44H40.9542V43.824C41.0422 43.8187 41.1049 43.8 41.1422 43.768C41.1822 43.736 41.2075 43.688 41.2182 43.624C41.2289 43.56 41.2342 43.4787 41.2342 43.38V41.716C41.2342 41.6573 41.2355 41.6013 41.2382 41.548C41.2409 41.492 41.2435 41.444 41.2462 41.404C41.2009 41.4067 41.1515 41.4093 41.0982 41.412C41.0449 41.4147 40.9969 41.4173 40.9542 41.42V41.2H41.9382V41.376ZM44.5284 44.056L43.0404 42.08C43.0111 42.0453 42.9831 42.0093 42.9564 41.972C42.9298 41.9347 42.9018 41.896 42.8724 41.856H42.8684L42.8804 43.412C42.8804 43.4787 42.8791 43.5453 42.8764 43.612C42.8764 43.6787 42.8738 43.74 42.8684 43.796C42.9138 43.7907 42.9631 43.788 43.0164 43.788C43.0724 43.7853 43.1204 43.7827 43.1604 43.78V44H42.3684V43.824C42.4431 43.824 42.4991 43.8093 42.5364 43.78C42.5764 43.7507 42.6031 43.712 42.6164 43.664C42.6324 43.616 42.6404 43.56 42.6404 43.496V41.704C42.6404 41.6507 42.6404 41.5973 42.6404 41.544C42.6404 41.4907 42.6418 41.444 42.6444 41.404C42.6018 41.4067 42.5538 41.4093 42.5004 41.412C42.4498 41.4147 42.4044 41.4173 42.3644 41.42V41.2H42.8924L44.3004 43.052C44.3458 43.1107 44.3858 43.1653 44.4204 43.216C44.4578 43.2667 44.4938 43.3147 44.5284 43.36H44.5324L44.5364 41.716C44.5364 41.6573 44.5378 41.6013 44.5404 41.548C44.5431 41.492 44.5458 41.444 44.5484 41.404C44.5004 41.4067 44.4498 41.4093 44.3964 41.412C44.3431 41.4147 44.2964 41.4173 44.2564 41.42V41.2H45.0484V41.376C44.9631 41.3787 44.9004 41.3973 44.8604 41.432C44.8231 41.464 44.7991 41.512 44.7884 41.576C44.7804 41.6373 44.7764 41.7187 44.7764 41.82L44.7724 44.056H44.5284ZM46.7156 44.064C46.4436 44.064 46.2049 44.0053 45.9996 43.888C45.7943 43.7707 45.6356 43.6067 45.5236 43.396C45.4116 43.1827 45.3556 42.9347 45.3556 42.652C45.3556 42.4653 45.3836 42.2827 45.4396 42.104C45.4983 41.9253 45.5849 41.7627 45.6996 41.616C45.8169 41.4693 45.9623 41.3533 46.1356 41.268C46.3116 41.18 46.5156 41.136 46.7476 41.136C46.8356 41.136 46.9276 41.144 47.0236 41.16C47.1196 41.176 47.2129 41.2 47.3036 41.232C47.3969 41.264 47.4809 41.3027 47.5556 41.348L47.5396 41.164H47.7876V42.084H47.6036C47.5903 41.924 47.5449 41.7893 47.4676 41.68C47.3929 41.568 47.2956 41.484 47.1756 41.428C47.0583 41.3693 46.9276 41.34 46.7836 41.34C46.6423 41.34 46.5129 41.372 46.3956 41.436C46.2809 41.4973 46.1809 41.584 46.0956 41.696C46.0103 41.8053 45.9436 41.9347 45.8956 42.084C45.8503 42.2333 45.8276 42.3933 45.8276 42.564C45.8276 42.8093 45.8676 43.028 45.9476 43.22C46.0303 43.4093 46.1463 43.5587 46.2956 43.668C46.4449 43.7773 46.6196 43.832 46.8196 43.832C46.8836 43.832 46.9529 43.8267 47.0276 43.816C47.1049 43.8027 47.1809 43.784 47.2556 43.76C47.3329 43.7333 47.4023 43.7 47.4636 43.66V43.212C47.4636 43.1453 47.4636 43.08 47.4636 43.016C47.4663 42.9493 47.4676 42.888 47.4676 42.832C47.4249 42.8347 47.3769 42.8373 47.3236 42.84C47.2703 42.8427 47.2236 42.8453 47.1836 42.848V42.628H48.1396V42.804C48.0756 42.804 48.0236 42.8187 47.9836 42.848C47.9463 42.8773 47.9183 42.9147 47.8996 42.96C47.8836 43.0027 47.8729 43.0493 47.8676 43.1C47.8623 43.148 47.8596 43.1933 47.8596 43.236V43.86H47.7556C47.6996 43.86 47.6343 43.8693 47.5596 43.888C47.4849 43.904 47.4009 43.9293 47.3076 43.964C47.2249 43.9933 47.1303 44.0173 47.0236 44.036C46.9169 44.0547 46.8143 44.064 46.7156 44.064Z" fill="#6D6D6D"/>
<mask id="mask0_712_5277" style="mask-type:alpha" maskUnits="userSpaceOnUse" x="26" y="15" width="17" height="16">
<rect x="26.7188" y="15" width="16" height="16" fill="#D9D9D9"/>
</mask>
<g mask="url(#mask0_712_5277)">
<path d="M30.7667 29.7902C30.3496 29.7902 29.9925 29.6417 29.6955 29.3447C29.3985 29.0476 29.25 28.6906 29.25 28.2735V21.7025C29.25 21.2854 29.3985 20.9284 29.6955 20.6313C29.9925 20.3343 30.3496 20.1858 30.7667 20.1858H31.3257V18.9681C31.3257 18.0246 31.656 17.2212 32.3167 16.5579C32.9773 15.8946 33.778 15.563 34.7189 15.563C35.6597 15.563 36.4604 15.8946 37.121 16.5579C37.7817 17.2212 38.112 18.0246 38.112 18.9681V20.1858H38.671C39.0881 20.1858 39.4452 20.3343 39.7422 20.6313C40.0392 20.9284 40.1877 21.2854 40.1877 21.7025V28.2735C40.1877 28.6906 40.0392 29.0476 39.7422 29.3447C39.4452 29.6417 39.0881 29.7902 38.671 29.7902H30.7667ZM34.7189 26.3213C35.0855 26.3213 35.3994 26.1908 35.6605 25.9297C35.9216 25.6686 36.0522 25.3547 36.0522 24.988C36.0522 24.6213 35.9216 24.3074 35.6605 24.0463C35.3994 23.7852 35.0855 23.6547 34.7189 23.6547C34.3522 23.6547 34.0383 23.7852 33.7772 24.0463C33.5161 24.3074 33.3855 24.6213 33.3855 24.988C33.3855 25.3547 33.5161 25.6686 33.7772 25.9297C34.0383 26.1908 34.3522 26.3213 34.7189 26.3213ZM32.8424 20.1858H36.5953V18.9681C36.5953 18.4435 36.4135 17.9976 36.0498 17.6305C35.6862 17.2633 35.2425 17.0797 34.7189 17.0797C34.1952 17.0797 33.7515 17.2633 33.3879 17.6305C33.0242 17.9976 32.8424 18.4435 32.8424 18.9681V20.1858Z" fill="#6D6D6D"/>
</g>
</g>
<defs>
<clipPath id="clip0_712_5277">
<rect width="68.6918" height="64" fill="white" transform="translate(0.71875)"/>
</clipPath>
</defs>
</svg>
