<svg width="44" height="45" viewBox="0 0 44 45" fill="none" xmlns="http://www.w3.org/2000/svg">
<path fill-rule="evenodd" clip-rule="evenodd" d="M41.8431 18.6333C42.683 18.5984 43.3922 19.251 43.4271 20.0908C43.4995 21.8312 43.4995 23.8625 43.4995 26.215V26.3569C43.4995 30.0863 43.4995 33.0405 43.1886 35.3524C42.8686 37.7318 42.1943 39.6578 40.6747 41.1761C39.1566 42.695 37.2309 43.3691 34.852 43.689C32.54 44 29.5858 43.9999 25.8564 43.9999H17.5097C13.7803 43.9999 10.8261 44 8.5141 43.689C6.13473 43.369 4.20873 42.6947 2.69046 41.1752C2.09631 40.5805 2.09672 39.6168 2.69138 39.0226C3.28604 38.4285 4.24977 38.4289 4.84392 39.0235C5.70213 39.8825 6.87811 40.3974 8.91987 40.672C11.0054 40.9525 13.7546 40.9558 17.6242 40.9558H25.7419C29.6115 40.9558 32.3607 40.9525 34.4462 40.672C36.488 40.3974 37.664 39.8825 38.5222 39.0235C39.3811 38.1653 39.897 36.9884 40.1716 34.9467C40.4521 32.8611 40.4553 30.1119 40.4553 26.2424C40.4553 23.8576 40.455 21.8877 40.3856 20.2173C40.3507 19.3774 41.0032 18.6682 41.8431 18.6333Z" fill="#E6B323" stroke="#E6B323" stroke-linecap="round"/>
<path fill-rule="evenodd" clip-rule="evenodd" d="M21.6829 16.6245C22.5113 16.6245 23.1829 17.2961 23.1829 18.1245V18.163C25.3925 18.7128 27.2418 20.4507 27.2418 22.8592C27.2418 23.6876 26.5702 24.3592 25.7418 24.3592C24.9133 24.3592 24.2418 23.6876 24.2418 22.8592C24.2418 22.0652 23.365 20.9781 21.6829 20.9781C20.0008 20.9781 19.124 22.0652 19.124 22.8592C19.124 23.6557 20.0014 24.7423 21.6829 24.7423C24.4871 24.7423 27.2418 26.6861 27.2418 29.6253C27.2418 32.0338 25.3925 33.7717 23.1829 34.3215V34.36C23.1829 35.1884 22.5113 35.86 21.6829 35.86C20.8545 35.86 20.1829 35.1884 20.1829 34.36V34.3215C17.9733 33.7717 16.124 32.0338 16.124 29.6253C16.124 28.7969 16.7956 28.1253 17.624 28.1253C18.4525 28.1253 19.124 28.7969 19.124 29.6253C19.124 30.4193 20.0008 31.5064 21.6829 31.5064C23.365 31.5064 24.2418 30.4193 24.2418 29.6253C24.2418 28.8303 23.3637 27.7423 21.6829 27.7423C18.8793 27.7423 16.124 25.8009 16.124 22.8592C16.124 20.4507 17.9733 18.7128 20.1829 18.163V18.1245C20.1829 17.2961 20.8545 16.6245 21.6829 16.6245Z" fill="#E6B323"/>
<path d="M40 12.344C37.6366 10 33.8301 10 26.2192 10H18.1462C10.5353 10 6.72881 10 4.36541 12.344C2 14.686 2 18.458 2 26C2 28.34 2 30.316 2.07064 32M22.1827 2C25.9892 2 27.8904 2 29.0731 3.172C30.2558 4.344 30.2558 6.228 30.2558 10M15.2923 3.172C14.1096 4.344 14.1096 6.228 14.1096 10" stroke="#E6B323" stroke-width="4" stroke-linecap="round"/>
</svg>
