<svg width="38" height="40" viewBox="0 0 38 40" fill="none" xmlns="http://www.w3.org/2000/svg">
<path d="M19 3.80777C17.5057 3.80777 16.0727 4.40984 15.0161 5.48153C13.9595 6.55322 13.3659 8.00674 13.3659 9.52233C13.3659 11.0379 13.9595 12.4915 15.0161 13.5631C16.0727 14.6348 17.5057 15.2369 19 15.2369C20.4942 15.2369 21.9273 14.6348 22.9839 13.5631C24.0405 12.4915 24.6341 11.0379 24.6341 9.52233C24.6341 8.00674 24.0405 6.55322 22.9839 5.48153C21.9273 4.40984 20.4942 3.80777 19 3.80777ZM9.60986 9.52233C9.61023 7.72028 10.1146 5.95531 11.0645 4.43242C12.0143 2.90952 13.3706 1.69118 14.9759 0.918918C16.5811 0.146653 18.3694 -0.147853 20.1331 0.069606C21.8968 0.287065 23.5635 1.00756 24.9396 2.14742C26.3157 3.28728 27.3447 4.79972 27.9072 6.50908C28.4696 8.21845 28.5424 10.0546 28.1171 11.8042C27.6918 13.5539 26.7858 15.1453 25.5044 16.3935C24.223 17.6418 22.6188 18.4957 20.878 18.8561V30.4757H17.122V18.8561C15.0013 18.4163 13.0955 17.2472 11.7267 15.5465C10.3579 13.8458 9.61013 11.7178 9.60986 9.52233ZM2.29495 19.0466H11.4879V22.8563H5.65662L4.19551 36.1903H33.8045L32.3434 22.8563H26.5121V19.0466H35.7051L38 40H0L2.29495 19.0466Z" fill="#E6B323"/>
</svg>
