<svg width="43" height="42" viewBox="0 0 43 42" fill="none" xmlns="http://www.w3.org/2000/svg">
<path fill-rule="evenodd" clip-rule="evenodd" d="M20.1589 0.318743C20.4228 0.112213 20.7482 0 21.0833 0H21.9167C22.2518 0 22.5772 0.112213 22.8411 0.318743C28.0934 4.42919 32.9362 6.90501 41.1698 9.83692C41.7675 10.0497 42.1667 10.6156 42.1667 11.25V12.5217C42.1667 13.3502 41.4951 14.0217 40.6667 14.0217H2.33333C1.50491 14.0217 0.833333 13.3502 0.833333 12.5217V11.25C0.833333 10.6156 1.23248 10.0497 1.83015 9.83692C10.0638 6.90501 14.9066 4.42919 20.1589 0.318743ZM21.5 3.07469C17.1394 6.41883 12.9705 8.72215 7.20734 11.0217H35.7927C30.0295 8.72215 25.8606 6.41883 21.5 3.07469ZM5.66667 14.413C6.49509 14.413 7.16667 15.0846 7.16667 15.913V32.8696C7.16667 33.698 6.49509 34.3696 5.66667 34.3696C4.83824 34.3696 4.16667 33.698 4.16667 32.8696V15.913C4.16667 15.0846 4.83824 14.413 5.66667 14.413ZM10.6667 14.413C11.4951 14.413 12.1667 15.0846 12.1667 15.913V32.8696C12.1667 33.698 11.4951 34.3696 10.6667 34.3696C9.83824 34.3696 9.16667 33.698 9.16667 32.8696V15.913C9.16667 15.0846 9.83824 14.413 10.6667 14.413ZM21.5 14.413C22.3284 14.413 23 15.0846 23 15.913V17.8043H23.1667C24.0149 17.8043 24.8231 18.1474 25.4149 18.7495C26.0059 19.3507 26.3333 20.1607 26.3333 21V21.8478C26.3333 22.6763 25.6618 23.3478 24.8333 23.3478C24.7729 23.3478 24.7133 23.3443 24.6547 23.3373C25.0673 23.5589 25.4272 23.8706 25.7074 24.2507C26.1151 24.8038 26.3333 25.4731 26.3333 26.1582V27.7826C26.3333 28.6219 26.0059 29.4319 25.4149 30.0331C24.8231 30.6352 24.0149 30.9783 23.1667 30.9783H23V32.8696C23 33.698 22.3284 34.3696 21.5 34.3696C20.6716 34.3696 20 33.698 20 32.8696V30.9783H19.8333C18.9851 30.9783 18.1769 30.6352 17.5851 30.0331C16.9941 29.4319 16.6667 28.6219 16.6667 27.7826V26.9348C16.6667 26.1064 17.3382 25.4348 18.1667 25.4348C18.9951 25.4348 19.6667 26.1064 19.6667 26.9348V27.7826C19.6667 27.8428 19.6904 27.8954 19.7246 27.9301C19.7579 27.964 19.7976 27.9783 19.8333 27.9783H23.1667C23.2024 27.9783 23.2421 27.964 23.2754 27.9301C23.3096 27.8954 23.3333 27.8428 23.3333 27.7826V26.1582C23.3333 26.1095 23.3177 26.0648 23.2926 26.0308C23.2679 25.9973 23.2366 25.9773 23.2066 25.9684L18.9399 24.7017C18.2776 24.5052 17.7006 24.0968 17.2926 23.5433C16.8849 22.9903 16.6667 22.3209 16.6667 21.6359V21C16.6667 20.1607 16.9941 19.3507 17.5851 18.7495C18.1769 18.1474 18.9851 17.8043 19.8333 17.8043H20V15.913C20 15.0846 20.6716 14.413 21.5 14.413ZM23.9486 23.0592C23.5756 22.7863 23.3333 22.3454 23.3333 21.8478V21C23.3333 20.9398 23.3096 20.8873 23.2754 20.8525C23.2421 20.8186 23.2024 20.8043 23.1667 20.8043H19.8333C19.7976 20.8043 19.7579 20.8186 19.7246 20.8525C19.6904 20.8873 19.6667 20.9398 19.6667 21V21.6359C19.6667 21.6846 19.6823 21.7292 19.7074 21.7632C19.7321 21.7968 19.7634 21.8168 19.7934 21.8257L23.9486 23.0592ZM32.3333 14.413C33.1618 14.413 33.8333 15.0846 33.8333 15.913V32.8696C33.8333 33.698 33.1618 34.3696 32.3333 34.3696C31.5049 34.3696 30.8333 33.698 30.8333 32.8696V15.913C30.8333 15.0846 31.5049 14.413 32.3333 14.413ZM37.3333 14.413C38.1618 14.413 38.8333 15.0846 38.8333 15.913V32.8696C38.8333 33.698 38.1618 34.3696 37.3333 34.3696C36.5049 34.3696 35.8333 33.698 35.8333 32.8696V15.913C35.8333 15.0846 36.5049 14.413 37.3333 14.413ZM3.33333 36.2609C3.33333 35.4324 4.00491 34.7609 4.83333 34.7609H38.1667C38.9951 34.7609 39.6667 35.4324 39.6667 36.2609C39.6667 37.0893 38.9951 37.7609 38.1667 37.7609H4.83333C4.00491 37.7609 3.33333 37.0893 3.33333 36.2609ZM0 40.5C0 39.6716 0.671573 39 1.5 39H41.5C42.3284 39 43 39.6716 43 40.5C43 41.3284 42.3284 42 41.5 42H1.5C0.671573 42 0 41.3284 0 40.5Z" fill="#E6B323"/>
</svg>
