<svg width="44" height="45" viewBox="0 0 44 45" fill="none" xmlns="http://www.w3.org/2000/svg">
<path fill-rule="evenodd" clip-rule="evenodd" d="M41.8441 18.6333C42.684 18.5984 43.3932 19.251 43.4281 20.0908C43.5004 21.8312 43.5004 23.8625 43.5004 26.215V26.3569C43.5005 30.0863 43.5005 33.0405 43.1895 35.3524C42.8695 37.7318 42.1952 39.6578 40.6757 41.1761C39.1576 42.695 37.2318 43.3691 34.853 43.689C32.541 44 29.5868 43.9999 25.8574 43.9999H17.5107C13.7813 43.9999 10.8271 44 8.51507 43.689C6.13571 43.369 4.2097 42.6947 2.69144 41.1752C2.09729 40.5805 2.0977 39.6168 2.69236 39.0226C3.28702 38.4285 4.25075 38.4289 4.8449 39.0235C5.7031 39.8825 6.87909 40.3974 8.92085 40.672C11.0064 40.9525 13.7556 40.9558 17.6251 40.9558H25.7429C29.6124 40.9558 32.3617 40.9525 34.4472 40.672C36.4889 40.3974 37.6649 39.8825 38.5231 39.0235C39.3821 38.1653 39.898 36.9884 40.1726 34.9467C40.4531 32.8611 40.4563 30.1119 40.4563 26.2424C40.4563 23.8576 40.456 21.8877 40.3866 20.2173C40.3517 19.3774 41.0042 18.6682 41.8441 18.6333Z" fill="#E6B323" stroke="#E6B323" stroke-linecap="round"/>
<path fill-rule="evenodd" clip-rule="evenodd" d="M21.6839 16.6245C22.5123 16.6245 23.1839 17.2961 23.1839 18.1245V18.163C25.3934 18.7128 27.2427 20.4507 27.2427 22.8592C27.2427 23.6876 26.5712 24.3592 25.7427 24.3592C24.9143 24.3592 24.2427 23.6876 24.2427 22.8592C24.2427 22.0652 23.366 20.9781 21.6839 20.9781C20.0018 20.9781 19.125 22.0652 19.125 22.8592C19.125 23.6557 20.0024 24.7423 21.6839 24.7423C24.4881 24.7423 27.2427 26.6861 27.2427 29.6253C27.2427 32.0338 25.3934 33.7717 23.1839 34.3215V34.36C23.1839 35.1884 22.5123 35.86 21.6839 35.86C20.8554 35.86 20.1839 35.1884 20.1839 34.36V34.3215C17.9743 33.7717 16.125 32.0338 16.125 29.6253C16.125 28.7969 16.7966 28.1253 17.625 28.1253C18.4534 28.1253 19.125 28.7969 19.125 29.6253C19.125 30.4193 20.0018 31.5064 21.6839 31.5064C23.366 31.5064 24.2427 30.4193 24.2427 29.6253C24.2427 28.8303 23.3647 27.7423 21.6839 27.7423C18.8803 27.7423 16.125 25.8009 16.125 22.8592C16.125 20.4507 17.9743 18.7128 20.1839 18.163V18.1245C20.1839 17.2961 20.8554 16.6245 21.6839 16.6245Z" fill="#E6B323"/>
<path d="M40 12.344C37.6366 10 33.8301 10 26.2192 10H18.1462C10.5353 10 6.72881 10 4.36541 12.344C2 14.686 2 18.458 2 26C2 28.34 2 30.316 2.07064 32M22.1827 2C25.9892 2 27.8904 2 29.0731 3.172C30.2558 4.344 30.2558 6.228 30.2558 10M15.2923 3.172C14.1096 4.344 14.1096 6.228 14.1096 10" stroke="#E6B323" stroke-width="4" stroke-linecap="round"/>
</svg>
