<svg width="44" height="36" viewBox="0 0 44 36" fill="none" xmlns="http://www.w3.org/2000/svg">
<path fill-rule="evenodd" clip-rule="evenodd" d="M1.17157 1.17157C1.92172 0.421428 2.93913 0 4 0H40C41.0609 0 42.0783 0.421427 42.8284 1.17157C43.5786 1.92172 44 2.93914 44 4V32C44 33.0609 43.5786 34.0783 42.8284 34.8284C42.0783 35.5786 41.0609 36 40 36H4C2.93914 36 1.92172 35.5786 1.17157 34.8284C0.421426 34.0783 0 33.0609 0 32V4C0 2.93913 0.421427 1.92172 1.17157 1.17157ZM40 4L4 4V32H40V4Z" fill="#E6B323"/>
<path fill-rule="evenodd" clip-rule="evenodd" d="M0 8H44V12H0V8Z" fill="#E6B323"/>
<path fill-rule="evenodd" clip-rule="evenodd" d="M2 2C3.10457 2 4 2.89543 4 4V20C4 21.1046 3.10457 22 2 22C0.89543 22 0 21.1046 0 20V4C0 2.89543 0.89543 2 2 2ZM42 2C43.1046 2 44 2.89543 44 4V20C44 21.1046 43.1046 22 42 22C40.8954 22 40 21.1046 40 20V4C40 2.89543 40.8954 2 42 2ZM23 26C23 24.8954 23.8954 24 25 24H34C35.1046 24 36 24.8954 36 26C36 27.1046 35.1046 28 34 28H25C23.8954 28 23 27.1046 23 26Z" fill="#E6B323"/>
</svg>
