<svg width="38" height="45" viewBox="0 0 38 45" fill="none" xmlns="http://www.w3.org/2000/svg">
<path d="M29.3598 1.42433L16.2416 14.2173C15.477 14.9626 14.9344 15.8964 14.6717 16.919L13.6532 20.8866C13.5528 21.2813 13.5587 21.6945 13.6704 22.0862C13.7822 22.4779 13.9959 22.8348 14.2908 23.1222C14.5858 23.4096 14.9519 23.6176 15.3537 23.7262C15.7555 23.8348 16.1792 23.8402 16.5838 23.7419L20.6523 22.7513C21.7011 22.4955 22.6587 21.9663 23.4226 21.2204L36.5408 8.42738C37.4809 7.49591 38.0054 6.23983 38 4.93287C37.9945 3.62591 37.4596 2.37402 36.5118 1.45003C35.5639 0.526042 34.28 0.00484767 32.9398 3.36454e-05C31.5996 -0.00478038 30.3118 0.507176 29.357 1.42433M21.5703 5.27018L23.8517 3.04531C23.1803 2.76589 22.4579 2.62174 21.7278 2.62153H5.43196C3.99132 2.62153 2.60968 3.17963 1.59098 4.17307C0.572294 5.16651 0 6.5139 0 7.91883V39.7027C0 41.1076 0.572294 42.455 1.59098 43.4485C2.60968 44.4419 3.99132 45 5.43196 45H21.7278C23.1685 45 24.5501 44.4419 25.5688 43.4485C26.5875 42.455 27.1598 41.1076 27.1598 39.7027V21.321L25.3455 23.0956C25.0633 23.3697 24.762 23.6246 24.4438 23.8584V39.7027C24.4438 40.4052 24.1577 41.0789 23.6483 41.5756C23.139 42.0723 22.4482 42.3513 21.7278 42.3513H5.43196C4.71164 42.3513 4.02082 42.0723 3.51147 41.5756C3.00213 41.0789 2.71598 40.4052 2.71598 39.7027V7.91883C2.71598 7.21637 3.00213 6.54267 3.51147 6.04595C4.02082 5.54923 4.71164 5.27018 5.43196 5.27018H21.5703ZM10.8639 34.4054C10.5038 34.4054 10.1584 34.5449 9.90368 34.7933C9.64901 35.0416 9.50593 35.3785 9.50593 35.7297C9.50593 36.0809 9.64901 36.4178 9.90368 36.6662C10.1584 36.9145 10.5038 37.054 10.8639 37.054H16.2959C16.656 37.054 17.0015 36.9145 17.2561 36.6662C17.5108 36.4178 17.6539 36.0809 17.6539 35.7297C17.6539 35.3785 17.5108 35.0416 17.2561 34.7933C17.0015 34.5449 16.656 34.4054 16.2959 34.4054H10.8639Z" fill="#E6B323"/>
</svg>
