<svg width="42" height="42" viewBox="0 0 42 42" fill="none" xmlns="http://www.w3.org/2000/svg">
<path d="M28.4455 0C21.1909 0.190909 15.2727 6.10909 15.2727 13.3636C15.2727 20.8091 21.1909 26.7273 28.6364 26.7273C36.0818 26.7273 42 20.8091 42 13.3636C42 5.91818 36.0818 0 28.4455 0ZM28.6364 3.81818C33.9818 3.81818 38.1818 8.01818 38.1818 13.3636C38.1818 18.7091 33.9818 22.9091 28.6364 22.9091C23.2909 22.9091 19.0909 18.7091 19.0909 13.3636C19.0909 8.01818 23.2909 3.81818 28.6364 3.81818ZM26.7273 5.72727V15.2727L33.6 19.4727L35.1273 17.1818L29.5909 13.9364V5.72727H26.7273ZM6.87273 22.5273C9.54545 27.8727 14.1273 32.4545 19.4727 35.1273L23.6727 30.9273C24.2455 30.3545 25.0091 30.1636 25.5818 30.5455C27.6818 31.3091 29.9727 31.6909 32.4545 31.6909C33.4091 31.6909 34.3636 32.6455 34.3636 33.6V40.0909C34.3636 41.0455 33.4091 42 32.4545 42C14.5091 42 0 27.4909 0 9.54545C0 8.4 0.954545 7.63636 1.90909 7.63636H8.59091C9.73636 7.63636 10.5 8.4 10.5 9.54545C10.5 11.8364 10.8818 14.1273 11.6455 16.4182C11.8364 17.1818 11.6455 17.7545 11.2636 18.3273L6.87273 22.5273Z" fill="#E6B323"/>
</svg>
