<svg width="44" height="40" viewBox="0 0 44 40" fill="none" xmlns="http://www.w3.org/2000/svg">
<path d="M11.825 39.9892C10.505 39.9522 9.2488 39.6106 8.0564 38.9642C6.864 38.3179 5.73687 37.3654 4.675 36.1068C3.20833 34.3319 2.06287 32.2154 1.2386 29.7573C0.414333 27.2992 0.00146667 24.7752 0 22.1854C0 19.1164 0.577867 16.2323 1.7336 13.5331C2.88933 10.8339 4.45647 8.48592 6.435 6.48923C8.415 4.49255 10.7433 2.91221 13.42 1.74821C16.0967 0.584216 18.9567 0.00147903 22 0C25.0433 0 27.9033 0.591611 30.58 1.77483C33.2567 2.95806 35.585 4.5665 37.565 6.60016C39.545 8.63382 41.1129 11.0188 42.2686 13.755C43.4243 16.4912 44.0015 19.4307 44 22.5737C44 25.4208 43.5417 28.083 42.625 30.5604C41.7083 33.0378 40.4067 35.1269 38.72 36.8278C37.6933 37.8631 36.6117 38.6492 35.475 39.1861C34.3383 39.723 33.1833 39.9907 32.01 39.9892C31.35 39.9892 30.69 39.9064 30.03 39.7407C29.37 39.5751 28.71 39.3251 28.05 38.9909L24.97 37.4379C24.53 37.216 24.0621 37.0496 23.5664 36.9387C23.0707 36.8278 22.5485 36.7723 22 36.7723C21.45 36.7723 20.9279 36.8278 20.4336 36.9387C19.9393 37.0496 19.4715 37.216 19.03 37.4379L15.95 38.9909C15.2533 39.3606 14.5662 39.6291 13.8886 39.7962C13.211 39.9633 12.5231 40.0277 11.825 39.9892ZM11.935 35.5521C12.265 35.5521 12.6045 35.5152 12.9536 35.4412C13.3027 35.3672 13.6415 35.2378 13.97 35.053L17.05 33.5C17.82 33.0932 18.6179 32.7974 19.4436 32.6126C20.2693 32.4277 21.1031 32.3352 21.945 32.3352C22.7883 32.3352 23.6317 32.4277 24.475 32.6126C25.3183 32.7974 26.125 33.0932 26.895 33.5L30.03 35.053C30.36 35.2378 30.69 35.3672 31.02 35.4412C31.35 35.5152 31.68 35.5521 32.01 35.5521C32.7067 35.5521 33.3667 35.3672 33.99 34.9975C34.6133 34.6277 35.2367 34.0731 35.86 33.3336C37.0333 31.9285 37.95 30.2461 38.61 28.2864C39.27 26.3267 39.6 24.3115 39.6 22.2409C39.6 17.2861 37.895 13.0805 34.485 9.62403C31.075 6.16754 26.9133 4.43856 22 4.43708C17.0867 4.43708 12.925 6.17494 9.515 9.65065C6.105 13.1264 4.4 17.3416 4.4 22.2963C4.4 24.404 4.7388 26.4561 5.4164 28.4528C6.094 30.4495 7.03853 32.1319 8.25 33.5C8.87333 34.2395 9.47833 34.7668 10.065 35.0818C10.6517 35.3968 11.275 35.5536 11.935 35.5521ZM22 26.6225C23.21 26.6225 24.2462 26.1877 25.1086 25.318C25.971 24.4483 26.4015 23.4041 26.4 22.1854C26.4 21.8896 26.3721 21.5938 26.3164 21.298C26.2607 21.0022 26.1785 20.7064 26.07 20.4106L28.82 16.6945C29.1867 17.1752 29.5079 17.6833 29.7836 18.2187C30.0593 18.7541 30.2881 19.3368 30.47 19.9669H34.98C34.43 16.713 32.9362 14.0508 30.4986 11.9801C28.061 9.90948 25.2281 8.87417 22 8.87417C18.7733 8.87417 15.9317 9.9191 13.475 12.009C11.0183 14.0988 9.53333 16.7515 9.02 19.9669H13.53C14.0433 17.9702 15.0883 16.3617 16.665 15.1415C18.2417 13.9213 20.02 13.3112 22 13.3112C22.6233 13.3112 23.21 13.3667 23.76 13.4776C24.31 13.5886 24.8417 13.755 25.355 13.9768L22.55 17.8038C22.4767 17.8038 22.385 17.7942 22.275 17.775C22.165 17.7557 22.0733 17.7469 22 17.7483C20.79 17.7483 19.7545 18.1832 18.8936 19.0528C18.0327 19.9225 17.6015 20.9667 17.6 22.1854C17.6 23.4056 18.0312 24.4505 18.8936 25.3202C19.756 26.1899 20.7915 26.624 22 26.6225Z" fill="#E6B323"/>
</svg>
