<svg width="48" height="39" viewBox="0 0 48 39" fill="none" xmlns="http://www.w3.org/2000/svg">
<path d="M40.1313 3.11745C39.4262 2.40119 39.4262 1.24298 40.1313 0.534342C40.8364 -0.174299 41.9766 -0.181919 42.6742 0.534342L47.4749 5.41101C47.8125 5.7539 48 6.21871 48 6.70637C48 7.19404 47.8125 7.65885 47.4749 8.00174L42.6742 12.8784C41.9691 13.5947 40.8289 13.5947 40.1313 12.8784C39.4337 12.1621 39.4262 11.0039 40.1313 10.2953L41.8565 8.54274L28.8045 8.5275C27.8068 8.5275 27.0042 7.71218 27.0042 6.69875C27.0042 5.68532 27.8068 4.87 28.8045 4.87H41.864L40.1313 3.11745ZM7.87623 28.7199L6.15096 30.4725H19.203C20.2007 30.4725 21.0033 31.2878 21.0033 32.3012C21.0033 33.3147 20.2007 34.13 19.203 34.13H6.14346L7.86873 35.8825C8.57384 36.5988 8.57384 37.757 7.86873 38.4657C7.16362 39.1743 6.02344 39.1819 5.32583 38.4657L0.525082 33.5966C0.187529 33.2537 0 32.7889 0 32.3012C0 31.8136 0.187529 31.3488 0.525082 31.0059L5.32583 26.1292C6.03094 25.413 7.17112 25.413 7.86873 26.1292C8.56634 26.8455 8.57384 28.0037 7.86873 28.7123L7.87623 28.7199ZM7.20112 4.87H25.3465C25.0689 5.41863 24.9039 6.03583 24.9039 6.69875C24.9039 8.88563 26.6517 10.661 28.8045 10.661H37.6109C37.3108 11.9564 37.6559 13.3661 38.646 14.3795C40.1688 15.9263 42.6367 15.9263 44.1594 14.3795L45.6071 12.9089V29.2533C45.6071 31.9431 43.4543 34.13 40.8064 34.13H22.661C22.9386 33.5814 23.1036 32.9642 23.1036 32.3012C23.1036 30.1144 21.3558 28.339 19.203 28.339H10.3966C10.6967 27.0436 10.3516 25.6339 9.36146 24.6205C7.83872 23.0737 5.37084 23.0737 3.8481 24.6205L2.40037 26.0911V9.74667C2.40037 7.05688 4.55321 4.87 7.20112 4.87ZM12.0019 9.74667H7.20112V14.6233C9.84904 14.6233 12.0019 12.4365 12.0019 9.74667ZM40.8064 24.3767C38.1585 24.3767 36.0056 26.5635 36.0056 29.2533H40.8064V24.3767ZM24.0037 26.815C25.9136 26.815 27.7452 26.0443 29.0957 24.6725C30.4462 23.3007 31.2049 21.4401 31.2049 19.5C31.2049 17.5599 30.4462 15.6993 29.0957 14.3275C27.7452 12.9557 25.9136 12.185 24.0037 12.185C22.0939 12.185 20.2623 12.9557 18.9118 14.3275C17.5613 15.6993 16.8026 17.5599 16.8026 19.5C16.8026 21.4401 17.5613 23.3007 18.9118 24.6725C20.2623 26.0443 22.0939 26.815 24.0037 26.815Z" fill="#E6B323"/>
</svg>
