<svg width="40" height="38" viewBox="0 0 40 38" fill="none" xmlns="http://www.w3.org/2000/svg">
<path d="M36.9231 10.6419H30.1769C30.2519 10.5792 30.3288 10.5184 30.4019 10.4519C30.986 9.9393 31.4567 9.31312 31.7846 8.61257C32.1125 7.91202 32.2906 7.15215 32.3077 6.38051C32.333 5.53635 32.1833 4.69599 31.8679 3.91103C31.5526 3.12608 31.0781 2.41308 30.4738 1.81582C29.8694 1.21856 29.1478 0.749635 28.3534 0.437837C27.5589 0.126039 26.7083 -0.0220529 25.8538 0.00265248C25.0724 0.0192798 24.3029 0.19508 23.5935 0.51905C22.884 0.843019 22.2499 1.30818 21.7308 1.88542C21.0125 2.70786 20.4285 3.63604 20 4.63643C19.5715 3.63604 18.9875 2.70786 18.2692 1.88542C17.7501 1.30818 17.116 0.843019 16.4065 0.51905C15.6971 0.19508 14.9276 0.0192798 14.1462 0.00265248C13.2917 -0.0220529 12.4411 0.126039 11.6466 0.437837C10.8522 0.749635 10.1306 1.21856 9.52625 1.81582C8.92187 2.41308 8.44743 3.12608 8.13206 3.91103C7.81669 4.69599 7.66705 5.53635 7.69231 6.38051C7.7094 7.15215 7.88748 7.91202 8.21539 8.61257C8.54331 9.31312 9.01402 9.9393 9.59808 10.4519C9.67115 10.5146 9.74808 10.5754 9.82308 10.6419H3.07692C2.26087 10.6419 1.47824 10.9622 0.90121 11.5322C0.324175 12.1023 0 12.8755 0 13.6817V19.7613C0 20.5675 0.324175 21.3407 0.90121 21.9107C1.47824 22.4808 2.26087 22.8011 3.07692 22.8011V34.9602C3.07692 35.7664 3.4011 36.5396 3.97813 37.1097C4.55517 37.6797 5.3378 38 6.15385 38H33.8462C34.6622 38 35.4448 37.6797 36.0219 37.1097C36.5989 36.5396 36.9231 35.7664 36.9231 34.9602V22.8011C37.7391 22.8011 38.5218 22.4808 39.0988 21.9107C39.6758 21.3407 40 20.5675 40 19.7613V13.6817C40 12.8755 39.6758 12.1023 39.0988 11.5322C38.5218 10.9622 37.7391 10.6419 36.9231 10.6419ZM24.0385 3.89928C24.2821 3.63353 24.5786 3.4204 24.9096 3.27327C25.2405 3.12615 25.5987 3.04821 25.9615 3.04434H26.0558C26.4811 3.04697 26.9016 3.13344 27.2927 3.29868C27.6837 3.46392 28.0375 3.70461 28.3332 4.00665C28.6289 4.30869 28.8606 4.666 29.0147 5.05764C29.1688 5.44928 29.2423 5.86737 29.2308 6.28741C29.2269 6.64592 29.148 6.99974 28.999 7.32669C28.8501 7.65363 28.6344 7.94663 28.3654 8.18728C26.5404 9.78317 23.5115 10.3455 21.6346 10.5431C21.8654 8.53116 22.5 5.60726 24.0385 3.89928ZM11.7135 3.96768C12.3095 3.37889 13.1167 3.04637 13.9596 3.04244H14.0538C14.4167 3.04631 14.7749 3.12425 15.1058 3.27137C15.4368 3.4185 15.7333 3.63163 15.9769 3.89738C17.5904 5.69845 18.1596 8.68505 18.3596 10.5317C16.4904 10.3417 13.4673 9.77177 11.6442 8.17778C11.3752 7.93713 11.1595 7.64413 11.0106 7.31719C10.8617 6.99025 10.7828 6.63642 10.7788 6.27791C10.7669 5.85089 10.8429 5.42592 11.0023 5.0288C11.1616 4.63167 11.4009 4.27066 11.7058 3.96768H11.7135ZM3.07692 13.6817H18.4615V19.7613H3.07692V13.6817ZM6.15385 22.8011H18.4615V34.9602H6.15385V22.8011ZM33.8462 34.9602H21.5385V22.8011H33.8462V34.9602ZM36.9231 19.7613H21.5385V13.6817H36.9231V19.7613Z" fill="#E6B323"/>
</svg>
