<svg width="44" height="43" viewBox="0 0 44 43" fill="none" xmlns="http://www.w3.org/2000/svg">
<path fill-rule="evenodd" clip-rule="evenodd" d="M8.51554 13.9448C9.49303 13.5399 10.5407 13.3315 11.5987 13.3315C12.6567 13.3315 13.7044 13.5399 14.6819 13.9448C15.6594 14.3497 16.5475 14.9432 17.2957 15.6913C18.0438 16.4394 18.6373 17.3276 19.0422 18.3051C19.447 19.2826 19.6554 20.3302 19.6554 21.3883C19.6554 22.4463 19.447 23.494 19.0422 24.4714C18.6373 25.4489 18.0438 26.3371 17.2957 27.0852C16.5475 27.8334 15.6594 28.4268 14.6819 28.8317C13.7044 29.2366 12.6567 29.445 11.5987 29.445C10.5407 29.445 9.49303 29.2366 8.51554 28.8317C7.53805 28.4268 6.64989 27.8334 5.90175 27.0852C5.15362 26.3371 4.56016 25.4489 4.15527 24.4714C3.75039 23.494 3.54199 22.4463 3.54199 21.3883C3.54199 20.3302 3.75039 19.2826 4.15527 18.3051C4.56016 17.3276 5.15362 16.4394 5.90175 15.6913C6.64989 14.9432 7.53805 14.3497 8.51554 13.9448ZM11.5987 17.3315C11.066 17.3315 10.5385 17.4365 10.0463 17.6403C9.55409 17.8442 9.10688 18.143 8.73018 18.5197C8.35348 18.8964 8.05466 19.3436 7.85079 19.8358C7.64692 20.328 7.54199 20.8555 7.54199 21.3883C7.54199 21.921 7.64692 22.4485 7.85079 22.9407C8.05466 23.4329 8.35348 23.8801 8.73018 24.2568C9.10688 24.6335 9.55409 24.9323 10.0463 25.1362C10.5385 25.3401 11.066 25.445 11.5987 25.445C12.1315 25.445 12.659 25.3401 13.1512 25.1362C13.6433 24.9323 14.0905 24.6335 14.4673 24.2568C14.844 23.8801 15.1428 23.4329 15.3466 22.9407C15.5505 22.4485 15.6554 21.921 15.6554 21.3883C15.6554 20.8555 15.5505 20.328 15.3466 19.8358C15.1428 19.3436 14.844 18.8964 14.4673 18.5197C14.0905 18.143 13.6433 17.8442 13.1512 17.6403C12.659 17.4365 12.1314 17.3315 11.5987 17.3315Z" fill="#E6B323"/>
<path fill-rule="evenodd" clip-rule="evenodd" d="M0.00585938 40.2393C0.00585938 39.1347 0.90129 38.2393 2.00586 38.2393H39.5113C40.6159 38.2393 41.5113 39.1347 41.5113 40.2393C41.5113 41.3438 40.6159 42.2393 39.5113 42.2393H2.00586C0.90129 42.2393 0.00585938 41.3438 0.00585938 40.2393Z" fill="#E6B323"/>
<path fill-rule="evenodd" clip-rule="evenodd" d="M30.2559 11.542C31.3604 11.542 32.2559 12.4374 32.2559 13.542V17.8026C32.2559 18.9072 31.3604 19.8026 30.2559 19.8026C29.1513 19.8026 28.2559 18.9072 28.2559 17.8026V13.542C28.2559 12.4374 29.1513 11.542 30.2559 11.542Z" fill="#E6B323"/>
<path fill-rule="evenodd" clip-rule="evenodd" d="M28.0773 0.17144C31.0352 -0.311805 34.0694 0.233745 36.6738 1.71709C39.2781 3.20043 41.2951 5.53188 42.3884 8.32253C43.4816 11.1132 43.585 14.1943 42.6813 17.052C41.7775 19.9096 39.9213 22.371 37.4222 24.0256C34.9231 25.6801 31.9323 26.4278 28.9486 26.1439C25.9649 25.86 23.1688 24.5616 21.0266 22.4654C20.2372 21.6929 20.2234 20.4267 20.996 19.6372C21.7685 18.8477 23.0347 18.834 23.8242 19.6065C25.3124 21.0627 27.2548 21.9646 29.3275 22.1619C31.4003 22.3591 33.4779 21.8397 35.214 20.6903C36.9501 19.5409 38.2396 17.831 38.8674 15.8458C39.4953 13.8606 39.4235 11.7202 38.664 9.78158C37.9045 7.84294 36.5033 6.22331 34.6941 5.19285C32.8849 4.16239 30.7771 3.7834 28.7222 4.1191C26.6674 4.45481 24.7897 5.48491 23.4025 7.03757C22.0153 8.59024 21.2024 10.5716 21.0994 12.6511C21.0448 13.7544 20.1062 14.6044 19.0029 14.5497C17.8997 14.4951 17.0497 13.5565 17.1043 12.4532C17.2526 9.45976 18.4228 6.60761 20.4196 4.37256C22.4165 2.1375 25.1193 0.654684 28.0773 0.17144ZM11.5974 29.4472C9.58241 29.4472 7.65 30.2477 6.22521 31.6724C4.80043 33.0972 4 35.0296 4 37.0446V40.2432C4 41.3478 3.10457 42.2432 2 42.2432C0.89543 42.2432 0 41.3478 0 40.2432V37.0446C0 33.9688 1.22186 31.0189 3.39679 28.844C5.57171 26.6691 8.52155 25.4472 11.5974 25.4472C14.6732 25.4472 17.623 26.6691 19.7979 28.844C21.9729 31.0189 23.1947 33.9688 23.1947 37.0446V40.2432C23.1947 41.3478 22.2993 42.2432 21.1947 42.2432C20.0901 42.2432 19.1947 41.3478 19.1947 40.2432V37.0446C19.1947 35.0296 18.3943 33.0972 16.9695 31.6724C15.5447 30.2477 13.6123 29.4472 11.5974 29.4472Z" fill="#E6B323"/>
<circle cx="30.25" cy="8.25" r="2.25" fill="#E6B323"/>
</svg>
