<svg width="70" height="64" viewBox="0 0 70 64" fill="none" xmlns="http://www.w3.org/2000/svg">
<g clip-path="url(#clip0_712_5248)">
<path d="M34.1196 63.4748C34.1196 63.4748 33.8297 63.2574 33.2682 62.9495C32.924 62.7502 32.453 62.5147 31.9096 62.2249C31.5835 62.0618 31.2755 61.8988 30.877 61.7177C30.877 61.3191 30.7502 60.9387 30.569 60.5764C30.3517 60.1235 30.0256 59.7069 29.6633 59.3627C28.9931 58.7468 28.4496 58.2396 27.725 57.4425C27.5076 58.62 27.7431 59.6344 28.196 60.4858C27.8337 60.3228 27.4895 60.1598 27.1091 59.9967C27.0366 59.9786 26.9642 59.9424 26.9098 59.9062C26.8555 59.4352 26.9098 58.5294 26.2396 57.4788C26.1309 57.3157 26.0222 57.1346 25.8773 56.9716C25.2252 56.102 24.2832 55.4499 23.7216 54.6891C23.6854 56.1745 23.6492 57.1889 23.939 58.1128C23.939 58.0766 23.939 58.0222 23.939 57.986C23.9933 58.2215 24.102 58.457 24.2107 58.6925C23.5767 58.3845 22.9427 58.0947 22.2905 57.7324C22.2362 57.7143 22.2 57.678 22.1456 57.6418C22.4536 55.6854 21.3486 53.9826 20.787 52.5334C20.787 52.4972 20.7508 52.4428 20.7327 52.4066C20.6602 52.1892 20.5877 51.99 20.5515 51.7726C20.2979 52.0805 20.0986 52.3885 19.9175 52.6964C19.8269 52.8414 19.7726 52.9863 19.7001 53.1312C19.6276 53.2942 19.5552 53.4573 19.5008 53.6203C19.4284 53.8014 19.374 54.0007 19.3378 54.2C19.3197 54.3087 19.3016 54.4174 19.2835 54.526C19.211 54.997 19.211 55.468 19.2835 55.939C18.7944 55.6311 18.3053 55.2869 17.798 54.9427C17.9067 54.4174 18.5045 53.421 18.2328 51.2472C18.0698 49.9067 17.4176 48.4938 17.1459 47.9866C17.0553 47.8235 17.001 47.7511 17.0191 47.8235C16.2764 49.2908 15.0808 51.4465 15.5156 53.2037C15.0627 52.8232 14.6279 52.4428 14.1932 52.0262C14.5011 51.0661 15.1714 50.577 15.0627 48.693C15.0627 48.4757 15.0265 48.2402 14.9902 47.9866C14.9902 47.8779 14.954 47.7692 14.9359 47.6424C14.8815 47.2982 14.8091 46.9178 14.7004 46.4649C14.3743 45.1244 13.6135 43.9107 13.3961 42.5521C13.0157 43.5846 12.5991 45.0338 12.2005 46.3019C12.0737 46.7004 12.0194 47.117 12.0013 47.5337C12.0013 47.6424 12.0013 47.733 12.0013 47.8416C12.0013 48.5481 12.0737 49.2727 12.2368 49.9611C12.11 49.8162 11.9831 49.6894 11.8563 49.5263C11.168 48.7112 10.5158 47.8416 9.91805 46.9178C10.2622 46.2838 11.6752 44.7621 11.6027 41.9724C11.5846 40.8312 11.2586 39.2008 11.0593 38.0596C10.5521 39.4182 9.70067 39.8892 9.04853 41.2659C8.92173 41.5195 8.81304 41.7731 8.72246 42.0268C8.45074 42.7514 8.32394 43.4941 8.3964 44.2911C8.21525 43.9288 8.01598 43.5665 7.85295 43.2042C7.50877 42.4253 7.21893 41.6282 6.96532 40.8312C7.58122 40.3964 9.13911 39.5088 10.0267 37.0089C10.5521 35.5235 10.7151 33.9475 10.9687 32.4077C10.0449 33.4403 8.86738 34.0743 7.83483 34.9257C7.49065 35.2155 7.16458 35.5235 6.85663 35.8677C6.72982 36.0126 6.62113 36.1756 6.51244 36.3206C6.4581 36.393 6.42187 36.4655 6.38564 36.5379C6.3313 36.6285 6.27695 36.7191 6.22261 36.8097C6.18638 36.8821 6.16826 36.9546 6.13203 37.027C6.0958 37.0995 6.05957 37.1901 6.04146 37.2625C5.95088 36.7734 5.86031 36.2662 5.78785 35.759C5.69727 35.0163 5.62481 34.2736 5.58858 33.549C6.07769 33.4041 7.29139 33.3135 8.55943 32.2447C10.8057 30.3607 10.8781 28.4949 11.6933 26.6291C11.4397 26.9008 11.1499 27.1363 10.8419 27.3356C10.534 27.5529 10.226 27.7341 9.89993 27.9152C8.93984 28.4406 7.21893 28.9478 6.15015 30.0709C5.93277 30.3064 5.75162 30.56 5.6067 30.8317C5.66104 29.9079 5.7335 28.984 5.87842 28.0602C5.91465 27.8065 5.98711 27.5529 6.04146 27.2812C9.59198 27.1906 12.4723 24.6545 13.9577 21.6294C13.5773 21.883 13.215 22.046 12.8345 22.1547C12.4541 22.2634 12.0556 22.3358 11.6027 22.4083C10.697 22.5532 10.0267 22.6981 9.12099 22.8974C8.86738 22.9517 8.57754 23.0785 8.26959 23.2235C8.23336 23.2416 8.19713 23.2597 8.1609 23.2778C7.87106 23.4227 7.59934 23.6039 7.34573 23.8031C7.12835 23.9843 6.92909 24.1654 6.76605 24.3466C7.14647 23.151 7.59934 22.0098 8.10656 20.9048C8.17902 20.7417 8.26959 20.5968 8.36017 20.4338C9.13911 20.4338 10.2803 20.7055 11.6209 20.3794C13.7584 19.8541 15.4069 18.1875 16.9466 16.0681C15.8779 16.6659 14.9902 16.7021 13.7946 16.9738C13.1968 17.1006 12.5085 17.1731 11.8201 17.2999C11.1317 17.4267 10.4615 17.5716 9.93616 17.8796C9.8637 17.9158 9.79124 17.9883 9.7369 18.0426C9.66444 18.0969 9.59198 18.1694 9.53763 18.26C10.1173 17.2637 10.7332 16.3217 11.3672 15.4159C12.3092 16.0318 14.012 16.2492 15.0265 15.9594C17.8886 15.108 18.1422 13.8218 19.8631 12.5719C19.0299 12.7349 18.2328 12.7712 17.4357 12.8255C17.1278 12.8255 16.8198 12.8617 16.5119 12.8799C15.7329 12.9342 14.954 13.0067 14.1569 13.224C13.8852 13.2965 13.6135 13.3871 13.3418 13.4776C13.0338 13.5863 12.7621 13.7675 12.5266 13.9486C12.4723 13.9849 12.436 14.0392 12.3817 14.0754C13.215 13.0067 14.0482 12.0285 14.8815 11.1227C15.2076 11.1952 16.4938 12.0103 18.6313 11.8111C20.3522 11.648 21.8377 10.5793 23.1782 9.49236C23.1419 9.49236 23.1057 9.49236 23.0514 9.49236C21.6022 9.80031 20.0443 9.61917 18.5407 9.58294C18.2509 9.58294 17.9792 9.58294 17.7075 9.60105C17.6169 9.60105 17.5263 9.61917 17.4357 9.63728C17.2908 9.6554 17.1459 9.69163 17.0191 9.72786C16.9104 9.76409 16.8017 9.7822 16.693 9.81843C16.6025 9.85466 16.53 9.87278 16.4575 9.909C16.059 10.072 15.751 10.2532 15.4974 10.4525C15.6061 10.3438 15.7148 10.1988 15.8416 10.0902C16.5662 9.32933 17.2908 8.65908 18.0154 8.02505C18.6676 8.13374 20.3704 8.804 22.3449 8.22432C23.7941 7.73522 25.2795 6.52151 26.0403 5.19913C25.5875 5.38028 25.044 5.48897 24.4824 5.57954C23.939 5.67011 23.3774 5.72446 22.8883 5.7788C22.5441 5.81503 22.2362 5.85126 21.9282 5.90561C21.8739 5.90561 21.8014 5.92372 21.7471 5.94184C21.095 6.05053 20.4972 6.21356 19.9537 6.44906C19.9537 6.44906 19.9537 6.44906 19.9356 6.44906C19.9356 6.44906 19.9356 6.44906 19.9175 6.44906C20.7689 5.79692 21.5297 5.23536 22.2181 4.71002C23.0695 4.54699 24.9897 4.63756 26.6019 2.84419C28.0692 1.21385 28.8844 -0.0541992 28.8844 -0.0541992C28.1054 0.19941 27.3989 0.362444 26.7106 0.561708C26.0222 0.760972 25.352 0.978351 24.6455 1.32253C24.4462 1.41311 24.2651 1.53991 24.102 1.66672C24.0658 1.70295 24.0296 1.73918 23.9933 1.77541C23.8665 1.8841 23.7397 1.99279 23.6129 2.10148C23.5586 2.15582 23.5224 2.19205 23.4861 2.2464C23.3774 2.35508 23.2869 2.46377 23.1782 2.59058C23.1419 2.64492 23.1057 2.69927 23.0514 2.77173C22.9608 2.88042 22.8883 3.00722 22.8159 3.11591C22.7615 3.18837 22.7253 3.26083 22.6891 3.33329C22.6347 3.44198 22.5623 3.53255 22.5079 3.62313C22.4536 3.7137 22.4173 3.80428 22.3811 3.87674C22.3449 3.9492 22.3087 4.02166 22.2724 4.076C22.2181 4.18469 22.1818 4.27527 22.1456 4.36584C22.1456 4.40207 22.1094 4.4383 22.1094 4.45641C22.0913 4.51076 22.0732 4.5651 22.055 4.60133C21.729 4.83683 21.3848 5.09044 21.0225 5.36216C20.7145 5.57954 20.4066 5.81503 20.0986 6.05053C20.4972 5.59765 20.8776 5.07232 21.2218 4.45641C21.9645 3.13403 22.2362 1.5218 23.2325 0.380559C21.9101 0.942121 20.5515 1.53991 19.5914 2.60869C19.3197 2.93476 19.0842 3.26083 18.903 3.56878C18.8668 3.64124 18.8306 3.7137 18.7944 3.78616C18.6494 4.03977 18.5226 4.27527 18.4321 4.51076C18.3777 4.63756 18.3415 4.74625 18.3053 4.87306C18.2509 5.03609 18.1966 5.19913 18.1603 5.36216C18.1241 5.5252 18.0879 5.67011 18.0698 5.81503C18.0516 5.95995 18.0154 6.10487 17.9973 6.23168C17.9973 6.28602 17.9792 6.34037 17.9792 6.39471C17.9792 6.39471 17.9792 6.35848 17.9792 6.34037C17.9067 7.04685 17.9248 7.5903 17.8705 7.8439C17.7618 7.93448 17.6531 8.04317 17.5263 8.15186C17.1278 8.49604 16.7474 8.87646 16.3488 9.25687C16.5662 8.804 16.7474 8.24243 16.8198 7.55407C17.0191 6.0143 16.8561 4.32961 17.6169 2.98911C16.3307 4.14846 15.0446 5.45274 14.646 7.13742C14.5917 7.39103 14.5374 7.64464 14.5192 7.88013C14.5192 7.89825 14.5192 7.91636 14.5192 7.95259C14.5011 8.16997 14.483 8.36924 14.483 8.55039C14.4649 9.70974 14.7547 10.5249 14.7728 10.9053C14.0664 11.648 13.378 12.427 12.6896 13.2603C12.744 13.1335 12.7983 13.0067 12.8345 12.8617C13.4867 10.5793 13.0519 8.31489 13.5773 5.94184C12.4723 7.73521 10.5158 8.73154 10.3347 11.7024C10.3347 11.793 10.3347 11.9198 10.3347 12.0285C10.3347 13.061 10.534 14.4377 11.1317 15.2529C10.5521 16.05 9.99051 16.847 9.46518 17.7165C9.53763 17.4992 9.57386 17.2999 9.57386 17.155C9.57386 15.9594 9.41083 15.1986 9.21157 14.4921C9.12099 14.1841 9.04853 13.8943 8.93984 13.5863C8.84927 13.2965 8.77681 13.0067 8.68623 12.6987C8.54131 12.1009 8.41451 11.5031 8.34205 10.9053C8.30582 10.5974 8.28771 10.3075 8.30582 9.99958C8.07033 10.4706 7.85295 10.9416 7.63557 11.4307C7.59934 11.485 7.58122 11.5575 7.54499 11.6118C7.34573 12.0828 7.16458 12.5538 7.00155 13.0248C6.98343 13.0972 6.9472 13.1697 6.92909 13.224C6.76605 13.7131 6.63925 14.2022 6.54867 14.6913C6.54867 14.7457 6.54867 14.8 6.53056 14.8544C6.40375 15.6695 6.36753 16.4847 6.49433 17.3361C6.69359 18.6404 7.63557 19.7273 8.08844 20.2164C7.99787 20.3975 7.88918 20.5606 7.7986 20.7598C7.3095 21.7562 6.89286 22.7887 6.53056 23.8756C6.54867 23.0604 6.43998 22.2634 6.22261 21.4482C6.13203 21.0859 6.00523 20.7055 5.87842 20.3251C5.7335 19.9084 5.58858 19.528 5.46178 19.1476C5.06325 18.0064 4.77341 16.9014 4.66472 15.4159C4.44734 15.8869 4.24808 16.376 4.04882 16.8651C4.0307 16.9195 4.01259 16.9738 3.97636 17.0282C3.77709 17.5173 3.61406 18.0064 3.45102 18.4955C3.45102 18.5498 3.41479 18.6042 3.39668 18.6585C3.25176 19.1657 3.12496 19.6729 3.0525 20.1983C3.0525 20.2345 3.0525 20.2889 3.0525 20.3251C2.92569 21.1403 2.90758 21.9735 3.03438 22.8249C3.48725 26.0313 5.15383 26.7921 5.66104 27.2269C5.47989 28.1326 5.31686 29.0384 5.22629 29.9803C5.20817 30.2339 5.19006 30.4875 5.17194 30.7412C5.08137 30.3426 4.97268 29.9622 4.82776 29.5818C4.82776 29.5456 4.80964 29.5093 4.79153 29.4731C4.62849 29.0927 4.46546 28.7123 4.24808 28.35C3.34233 26.8827 1.94749 25.7052 1.31346 24.1111C1.34969 26.2668 0.933051 28.6579 1.82068 30.7593C2.92569 33.1504 4.42923 33.241 5.1176 33.549C5.15383 34.346 5.20817 35.125 5.29874 35.922C5.3712 36.4292 5.46178 36.9546 5.57047 37.4618C5.49801 37.2988 5.42555 37.1538 5.33497 37.0089C5.31686 36.9727 5.29874 36.9365 5.28063 36.9002C5.1176 36.6466 4.91833 36.393 4.66472 36.1756C3.52348 35.1612 2.07429 34.5815 1.13231 33.5852C0.987395 33.4222 0.806246 33.2954 0.697557 33.0961H0.588867C0.878706 35.4329 1.45838 37.8966 3.14307 39.5631C4.32054 40.7406 5.62481 40.6681 6.43998 41.0304C6.71171 41.8637 7.01966 42.6789 7.38196 43.4578C7.52688 43.7477 7.6718 44.0375 7.81672 44.3273C7.72614 44.2187 7.63557 44.1281 7.56311 44.0375C7.56311 44.0375 7.40008 43.8564 7.3095 43.7839C6.22261 42.7876 4.8821 42.2985 3.48725 41.7369C3.01627 41.5558 2.54528 41.3565 2.07429 41.1391C3.10684 43.1136 3.50537 44.9976 5.09948 46.3019C6.20449 47.2076 8.50508 47.0627 9.41083 47.117C9.7369 47.6061 10.0811 48.0952 10.4253 48.5481C10.7694 48.9829 11.1136 49.4176 11.4578 49.8343C11.494 49.8886 11.5484 49.9249 11.5846 49.9792C11.1136 49.6531 10.5883 49.4176 10.0449 49.2546C9.55575 49.1097 9.04853 49.001 8.54131 48.9648C7.58122 48.8742 6.31318 48.7655 5.38932 49.0191C5.38932 49.0191 5.42555 49.0372 5.42555 49.0553C5.69727 49.2908 6.02334 49.4539 6.29507 49.7075C7.14647 50.4864 7.78049 51.5371 8.77681 52.1168C10.2622 53.0044 12.1462 52.6602 13.8309 52.316C13.8309 52.316 13.8309 52.2979 13.8128 52.2798C14.2475 52.6783 14.7004 53.0769 15.1533 53.4573C14.9721 53.3848 14.7728 53.3486 14.5917 53.3305C13.9033 53.2761 12.3817 53.4935 11.7114 53.6928C11.4578 53.7652 11.0593 53.9283 10.6608 54.1094C10.2803 54.2906 9.91805 54.5079 9.71878 54.7072C9.71878 54.7072 10.6426 54.8521 11.2042 55.1057C12.2911 55.5948 13.1063 56.247 14.32 56.3375C16.222 56.4825 16.9829 55.5224 17.6531 55.3593C17.6531 55.3593 17.635 55.3412 17.6169 55.3231C18.1784 55.7216 18.7581 56.102 19.3197 56.4462C18.5407 56.3375 17.6531 56.5006 16.8561 56.7723C16.5481 56.881 16.2402 57.0078 15.9684 57.1346C15.3706 57.4244 14.8996 57.7686 14.7004 58.0041C16.4756 57.9316 17.2546 59.1272 19.4465 58.928C20.6783 58.8193 21.5116 58.0947 21.9645 57.9498C21.9826 57.9498 22.0007 57.9679 22.0369 57.986C22.8883 58.4389 23.7397 58.8374 24.5368 59.2178C24.5006 59.2178 24.4643 59.2178 24.4281 59.2178C24.2107 59.2178 23.9933 59.2178 23.7397 59.2722C23.5586 59.3084 23.3593 59.3808 23.1238 59.5076C22.4717 59.8337 21.6927 60.4858 21.0225 61.3916C20.95 61.4822 20.8776 61.5546 20.8051 61.6633C21.8014 61.3554 22.7072 61.8264 24.5911 61.3554C25.5331 61.1199 26.2758 60.3228 26.7287 60.2141C26.7287 60.2141 26.7287 60.2141 26.7106 60.2141C26.7649 60.2322 26.8374 60.2685 26.8917 60.2866C27.4533 60.5221 27.9786 60.7395 28.4677 60.9749C28.4315 60.9749 28.3953 60.9749 28.3771 60.9749C27.7975 61.0474 27.5982 61.5184 27.1091 61.9894C27.0004 62.0981 26.8555 62.2792 26.6925 62.4785C26.5113 62.6778 26.312 62.877 26.0584 63.0219C26.8374 63.3299 28.359 63.1487 29.1017 62.6959C29.6814 62.3155 30.0618 62.0437 30.4604 61.8807C30.5328 61.9169 30.6234 61.9532 30.6959 61.9894C31.7284 62.4785 32.4892 62.9676 32.9602 63.3299C33.4312 63.7103 33.6305 63.9458 33.6124 63.9277C33.7392 64.0545 33.9203 64.0364 34.0471 63.9277C34.1739 63.8009 34.1558 63.6197 34.0471 63.4929L34.1196 63.4748Z" fill="#6D6D6D"/>
<path d="M62.5058 43.4213C62.8681 42.6424 63.1579 41.8091 63.4477 40.9939C64.2629 40.6316 65.5491 40.7222 66.7447 39.5266C68.4293 37.8419 68.9909 35.3964 69.2989 33.0596C68.8641 33.7298 68.212 34.2008 67.4874 34.6537C66.7628 35.1066 65.9838 35.5413 65.3317 36.121C65.0781 36.3384 64.8788 36.592 64.7158 36.8456C64.6977 36.8818 64.6796 36.918 64.6614 36.9543C64.5709 37.0992 64.4984 37.2441 64.426 37.4072C64.5346 36.8999 64.6252 36.3746 64.6977 35.8674C64.7882 35.2152 64.8426 34.545 64.8788 33.8929C64.8788 33.7661 64.8788 33.6392 64.8788 33.4943C65.5672 33.1864 67.0707 33.1139 68.1757 30.7046C69.0815 28.6214 68.6648 26.2121 68.683 24.0565C68.375 24.8535 67.8678 25.56 67.3243 26.2302C66.9439 26.7012 66.5635 27.1903 66.2012 27.6794C66.0563 27.8787 65.8933 28.0961 65.7483 28.3135C65.531 28.6758 65.3498 29.0562 65.2049 29.4366C65.2049 29.4728 65.1868 29.509 65.1687 29.5453C65.0237 29.9257 64.9151 30.3061 64.8245 30.7046C64.7339 29.5272 64.5709 28.3497 64.3354 27.1903C64.8426 26.7556 66.5092 25.9948 66.962 22.7884C67.0888 21.937 67.0526 21.1218 66.9439 20.2886C66.9439 20.2523 66.9439 20.2161 66.9439 20.1618C66.8715 19.6364 66.7447 19.1292 66.5997 18.622C66.5997 18.5676 66.5635 18.5133 66.5454 18.459C66.4005 17.9698 66.2193 17.4626 66.0201 16.9916C66.0019 16.9373 65.9838 16.9011 65.9657 16.8467C65.7665 16.3576 65.5491 15.8685 65.3317 15.3975C65.223 16.883 64.9332 17.988 64.5346 19.1292C64.4078 19.5096 64.2629 19.89 64.118 20.3067C63.6651 21.5385 63.4296 22.6797 63.4477 23.8572C63.0854 22.7884 62.6688 21.7377 62.1797 20.7414C62.0891 20.5603 61.9804 20.3791 61.8899 20.198C62.3246 19.727 63.2847 18.622 63.484 17.3177C63.6108 16.4663 63.5746 15.6511 63.4477 14.836C63.4477 14.7816 63.4477 14.7273 63.4296 14.6729C63.3391 14.1838 63.2122 13.6947 63.0492 13.2056C63.0311 13.1332 63.013 13.0788 62.9768 13.0064C62.8137 12.5354 62.6326 12.0463 62.4333 11.5753C62.4152 11.5209 62.379 11.4485 62.3427 11.3941C62.1254 10.9231 61.908 10.434 61.6725 9.96306C61.6725 10.271 61.6725 10.579 61.6363 10.8688C61.5457 11.7745 61.3102 12.6622 61.0566 13.5498C60.966 13.8759 60.8754 14.1657 60.7849 14.4556C60.5856 15.1802 60.4407 15.9229 60.4226 17.1184C60.4226 17.2634 60.4769 17.4807 60.5312 17.68C60.0059 16.8105 59.4443 15.9953 58.8647 15.2164C59.4625 14.4012 59.6798 13.0245 59.6617 11.9919C59.6617 11.8832 59.6617 11.7564 59.6617 11.6659C59.6436 11.2854 59.5893 10.9594 59.5168 10.6333C59.2994 9.69133 58.8828 8.96673 58.3937 8.33271C58.0676 7.91607 57.7234 7.51754 57.3792 7.13713C57.0351 6.75672 56.709 6.34007 56.4373 5.90531C56.9626 8.27837 56.5278 10.5427 57.18 12.8252C57.2162 12.952 57.2706 13.0788 57.3249 13.2056C57.0169 12.8252 56.7271 12.4267 56.401 12.0825C56.0206 11.6477 55.6221 11.2492 55.2417 10.8507C55.2417 10.4522 55.5496 9.6551 55.5315 8.49575C55.5315 8.29648 55.5315 8.09722 55.4953 7.87984C55.4953 7.86172 55.4953 7.84361 55.4953 7.8255C55.4591 7.59 55.4228 7.35451 55.3685 7.08278C54.97 5.3981 53.6657 4.09382 52.3976 2.93447C53.1585 4.29309 53.0136 5.95966 53.1947 7.49943C53.2672 8.18779 53.4302 8.74936 53.6657 9.20223C53.2672 8.82182 52.8686 8.4414 52.4882 8.09722C52.3795 7.98853 52.2708 7.89795 52.144 7.78927C52.0897 7.53566 52.1078 7.01032 52.0353 6.28573C52.0353 6.30384 52.0353 6.34007 52.0353 6.34007C52.0353 6.28573 52.0172 6.23138 52.0172 6.17704C52.0172 6.03212 51.981 5.90531 51.9448 5.74228C51.9267 5.59736 51.8904 5.45244 51.8542 5.30752C51.818 5.14449 51.7636 4.98145 51.6912 4.81842C51.6549 4.69161 51.6187 4.58292 51.5644 4.45612C51.4738 4.22063 51.347 3.96702 51.2021 3.73152C51.1658 3.65906 51.1296 3.5866 51.0934 3.51414C50.8941 3.18808 50.6767 2.88012 50.405 2.55405C49.5898 1.64831 48.4848 1.08675 47.3617 0.597644C47.1624 0.507069 46.9632 0.416494 46.7639 0.32592C46.7639 0.32592 46.7639 0.344035 46.782 0.36215C47.7783 1.50339 48.032 3.07939 48.7747 4.40178C49.1188 4.99957 49.4993 5.5249 49.8978 5.99589C49.6079 5.77851 49.3362 5.57925 49.0645 5.37998C48.666 5.09014 48.2856 4.8003 47.9233 4.5467C47.9233 4.49235 47.887 4.45612 47.8689 4.40178C47.8689 4.36555 47.8327 4.32932 47.8327 4.3112C47.7965 4.22063 47.7602 4.13005 47.7059 4.02136C47.6697 3.9489 47.6334 3.87644 47.5972 3.80398C47.561 3.71341 47.5247 3.64095 47.4704 3.55037C47.416 3.4598 47.3617 3.35111 47.2892 3.26054C47.253 3.18808 47.2168 3.11562 47.1624 3.04316C47.09 2.91635 46.9994 2.80766 46.9088 2.68086C46.8726 2.62651 46.8364 2.57217 46.8001 2.51782C46.7096 2.39102 46.6009 2.28233 46.4922 2.17364C46.456 2.1193 46.4197 2.08307 46.3654 2.02872C46.2567 1.90192 46.1299 1.81134 45.985 1.70265C45.9487 1.66642 45.9125 1.63019 45.8763 1.59396C45.6951 1.46716 45.514 1.34036 45.3328 1.24978C44.6082 0.905597 43.9561 0.688218 43.2677 0.488954C42.5794 0.28969 41.8729 0.126656 41.0939 -0.126953C41.0939 -0.126953 41.9091 1.14109 43.3764 2.77143C44.9886 4.56481 46.9088 4.49235 47.7602 4.63727C48.4667 5.14449 49.2275 5.70605 50.0608 6.3763C50.0608 6.3763 50.0608 6.3763 50.0427 6.3763C50.0427 6.3763 50.0427 6.3763 50.0246 6.3763C49.4811 6.14081 48.8834 5.97777 48.2312 5.86908C48.1769 5.86908 48.1044 5.85097 48.0501 5.83285C47.7421 5.77851 47.416 5.74228 47.09 5.70605C46.6009 5.65171 46.0393 5.59736 45.4959 5.50679C44.9524 5.41621 44.3909 5.28941 43.938 5.12637C44.6988 6.46688 46.1842 7.66246 47.6334 8.15156C49.6079 8.73124 51.3108 8.0791 51.9629 7.9523C52.6694 8.58632 53.394 9.25657 54.1367 10.0174C54.2454 10.1261 54.3541 10.271 54.4809 10.3797C54.2273 10.1985 53.9193 9.99928 53.5208 9.83625C53.4483 9.80002 53.3577 9.78191 53.2853 9.74568C53.1766 9.70945 53.086 9.67322 52.9592 9.6551C52.8324 9.61887 52.6875 9.60076 52.5426 9.56453C52.452 9.56453 52.3614 9.5283 52.2708 9.5283C52.0172 9.51018 51.7455 9.49207 51.4376 9.51018C49.9159 9.54641 48.358 9.72756 46.9269 9.41961C46.8907 9.41961 46.8545 9.41961 46.8183 9.41961C48.1588 10.5065 49.6442 11.5753 51.3651 11.7383C53.4845 11.9376 54.7707 11.1224 55.1149 11.05C55.9482 11.9557 56.7996 12.9339 57.6147 14.0027C57.5604 13.9665 57.5242 13.9121 57.4698 13.8759C57.2162 13.6766 56.9445 13.5136 56.6547 13.4049C56.3829 13.2962 56.1112 13.2237 55.8395 13.1513C55.0243 12.9339 54.2273 12.8614 53.4121 12.8071C53.1222 12.8071 52.8505 12.7709 52.5607 12.7528C51.7636 12.7165 50.9666 12.6622 50.1333 12.4991C51.8361 13.7491 52.1078 15.0352 54.97 15.8866C55.9844 16.1765 57.6872 15.9591 58.6292 15.3432C59.2632 16.2489 59.8791 17.1909 60.4588 18.1872C60.3863 18.1148 60.332 18.0423 60.2595 17.9698C60.1871 17.9155 60.1146 17.843 60.0603 17.8068C59.5349 17.517 58.8647 17.3539 58.1763 17.2271C57.4879 17.1003 56.7996 17.0279 56.2018 16.9011C55.9119 16.8286 55.6221 16.7924 55.3504 16.738C54.5533 16.5931 53.8468 16.4482 53.0498 16.0134C54.5714 18.1329 56.2199 19.7995 58.3756 20.3248C59.7161 20.6509 60.8754 20.3972 61.6363 20.3791C61.7087 20.5422 61.8174 20.6871 61.8899 20.8501C62.4152 21.9551 62.8681 23.0964 63.2304 24.292C63.0673 24.0927 62.8681 23.9297 62.6507 23.7485C62.3971 23.5492 62.1072 23.3681 61.8355 23.2232C61.7993 23.2051 61.7631 23.1869 61.7268 23.1688C61.437 23.0239 61.1471 22.8971 60.8754 22.8428C59.9878 22.6435 59.3175 22.4986 58.3937 22.3537C57.9408 22.2812 57.5423 22.2087 57.1619 22.1C56.7815 21.9914 56.4192 21.8283 56.0387 21.5747C57.5242 24.618 60.4226 27.136 63.955 27.2266C64.0093 27.4802 64.0637 27.7338 64.118 28.0055C64.2629 28.9113 64.3535 29.8351 64.3897 30.7771C64.3535 30.6865 64.2991 30.6141 64.2448 30.5416C64.118 30.3605 63.9912 30.1793 63.8282 30.0163C62.7594 28.8931 61.0566 28.3859 60.0784 27.8606C59.4262 27.5164 58.7922 27.0998 58.285 26.5744C59.1002 28.4584 59.1726 30.3242 61.4189 32.1901C62.6869 33.2407 63.9006 33.3494 64.3897 33.4943C64.3535 34.237 64.2991 34.9798 64.1905 35.7043C64.118 36.2116 64.0274 36.7007 63.9368 37.2079C63.9187 37.1173 63.8825 37.0449 63.8463 36.9724C63.81 36.8999 63.7919 36.8275 63.7557 36.755C63.7014 36.6644 63.647 36.5739 63.5927 36.4833C63.5564 36.4108 63.5202 36.3384 63.4659 36.284C63.3572 36.121 63.2485 35.9761 63.1217 35.8312C62.5239 35.1247 61.7993 34.5993 61.0747 34.0921C60.3501 33.5849 59.6255 33.0777 59.0096 32.3712C59.2632 33.911 59.4443 35.487 59.9516 36.9724C60.8211 39.4541 62.379 40.3418 63.013 40.7946C62.7413 41.5917 62.4514 42.3888 62.1254 43.1677C61.9623 43.53 61.7631 43.8923 61.5819 44.2546C61.6725 43.1677 61.3826 42.1895 60.9298 41.2294C60.2776 39.8527 59.4443 39.3817 58.919 38.0231C58.7198 39.1462 58.3937 40.7765 58.3756 41.9359C58.3031 44.7437 59.7161 46.2653 60.0603 46.8813C59.4625 47.8051 58.8103 48.6746 58.122 49.4898C57.9952 49.6347 57.8683 49.7796 57.7415 49.9246C57.8865 49.2362 57.977 48.5116 57.977 47.8051C57.977 47.6964 57.977 47.6059 57.977 47.4972C57.9589 47.0805 57.9046 46.6639 57.7778 46.2653C57.3974 44.9973 56.9626 43.5481 56.5822 42.5156C56.3648 43.8742 55.604 45.0879 55.2779 46.4284C55.1692 46.8631 55.0968 47.2436 55.0424 47.5877C55.0243 47.6964 55.0062 47.8232 54.9881 47.9319C54.9519 48.1855 54.9337 48.421 54.9156 48.6384C54.8069 50.5224 55.4772 51.0115 55.7851 51.9715C55.3504 52.3701 54.9156 52.7686 54.4627 53.149C54.8975 51.3919 53.7019 49.2543 52.9592 47.7689C53.0498 47.4972 51.981 49.3992 51.7455 51.1926C51.7455 51.2288 51.7455 51.2651 51.7455 51.3013C51.51 53.3845 52.0716 54.3808 52.1803 54.888C51.6912 55.2322 51.2021 55.5764 50.6948 55.8844C50.7673 55.3953 50.7492 54.9243 50.6948 54.4714C50.6948 54.3627 50.6586 54.254 50.6405 54.1453C50.6043 53.9461 50.5499 53.7649 50.4775 53.5657C50.4231 53.4026 50.3507 53.2396 50.2782 53.0766C50.2057 52.9316 50.1514 52.7867 50.0608 52.6418C49.8797 52.3338 49.6804 52.0259 49.4268 51.7179C49.3906 51.9172 49.3181 52.1346 49.2457 52.352C49.2457 52.3882 49.2094 52.4425 49.1913 52.4788C48.9739 53.0403 48.6841 53.6381 48.4124 54.2721C47.9776 55.2685 47.6515 56.3735 47.8327 57.5691C47.7783 57.5872 47.7421 57.6234 47.6878 57.6596C47.0356 58.0219 46.4016 58.3118 45.7676 58.6197C45.8763 58.3842 45.9669 58.1487 46.0393 57.9132C46.0393 57.9676 46.0393 58.0038 46.0393 58.0582C46.3292 57.1343 46.2929 56.138 46.2567 54.6344C45.6951 55.3953 44.7532 56.0655 44.101 56.9169C43.9561 57.0981 43.8474 57.2611 43.7387 57.4241C43.0685 58.4748 43.1228 59.3805 43.0685 59.8515C42.996 59.8878 42.9235 59.9059 42.8692 59.9421C42.4888 60.1051 42.1446 60.2682 41.7823 60.4312C42.2171 59.5798 42.4707 58.5835 42.2533 57.3879C41.5287 58.185 40.9853 58.6922 40.315 59.3081C39.9527 59.6523 39.6266 60.0689 39.4093 60.5218C39.2281 60.8841 39.1194 61.2826 39.1013 61.663C38.576 61.9166 38.1231 62.1521 37.7246 62.3514C37.326 62.5507 36.9819 62.7499 36.7101 62.8948C36.4384 63.0398 36.221 63.1666 36.0942 63.2571C35.9493 63.3477 35.8768 63.4021 35.8768 63.4202C35.8044 63.4926 35.7863 63.5832 35.8044 63.6738C35.8044 63.6738 35.8225 63.8006 35.8768 63.8549C36.0036 63.9817 36.1848 63.9817 36.3116 63.8549C36.3116 63.8549 36.4928 63.6375 36.9637 63.2571C37.4347 62.8948 38.1956 62.4057 39.2281 61.9166C39.3006 61.8804 39.3911 61.8442 39.4636 61.8079C39.8621 61.971 40.2425 62.2427 40.8222 62.6231C41.5468 63.0941 43.0685 63.2571 43.8655 62.9492C43.6119 62.7861 43.4127 62.5869 43.2315 62.4057C43.0504 62.2065 42.9235 62.0253 42.8149 61.9166C42.3258 61.4275 42.1265 60.9747 41.5468 60.9022C41.5106 60.9022 41.4744 60.9022 41.4562 60.9022C41.9635 60.6848 42.4707 60.4493 43.0322 60.2138C43.0866 60.1957 43.159 60.1595 43.2134 60.1414C43.2134 60.1414 43.2134 60.1414 43.1953 60.1414C43.6481 60.2501 44.3909 61.0471 45.3328 61.2826C47.1987 61.7536 48.1225 61.2826 49.1188 61.5906C49.0464 61.5 48.9739 61.4094 48.9015 61.3188C48.2493 60.4131 47.4704 59.761 46.8001 59.4349C46.5828 59.3262 46.3654 59.2356 46.1842 59.1994C45.9306 59.1451 45.7132 59.1269 45.4959 59.1451C45.4596 59.1451 45.4234 59.1451 45.3872 59.1451C46.1842 58.7828 47.0356 58.3661 47.887 57.9132C47.9051 57.9132 47.9233 57.8951 47.9595 57.877C48.4124 58.0219 49.2457 58.7465 50.4775 58.8552C52.6694 59.0545 53.4483 57.8589 55.2236 57.9314C54.97 57.6053 54.2273 57.1343 53.3215 56.772C52.4701 56.4459 51.4919 56.2285 50.6224 56.3554C51.1839 56.0112 51.7636 55.6308 52.3252 55.2322L52.289 55.2685C52.9411 55.4315 53.7019 56.3735 55.6221 56.2467C56.8358 56.1561 57.651 55.504 58.7379 55.0149C59.2994 54.7612 60.2233 54.6163 60.2233 54.6163C60.1327 54.5076 59.9878 54.4171 59.8248 54.3084C59.3357 54.0004 58.6292 53.7106 58.2306 53.6019C57.9046 53.5113 57.3611 53.4026 56.7996 53.3302C56.2561 53.2577 55.6946 53.2215 55.3504 53.2396C55.1692 53.2396 54.97 53.2939 54.7888 53.3664C55.2417 52.986 55.6764 52.6056 56.1293 52.1889C56.1293 52.1889 56.1293 52.207 56.1112 52.2252C57.7959 52.5693 59.6798 52.8954 61.1653 52.0259C62.1797 51.4281 62.7956 50.3955 63.647 49.6166C63.9187 49.363 64.2448 49.2 64.5165 48.9645C64.5165 48.9645 64.5528 48.9464 64.5528 48.9282C63.6108 48.6746 62.3608 48.7833 61.4008 48.8739C60.8935 48.9282 60.3863 49.0188 59.8972 49.1637C59.4081 49.3087 58.9552 49.526 58.5205 49.7978C58.5205 49.7978 58.4118 49.8521 58.3575 49.8883C58.3937 49.834 58.448 49.7978 58.4843 49.7434C59.227 48.892 59.8972 47.9682 60.5312 47.0081C61.437 46.9537 63.7376 47.0986 64.8426 46.1929C66.4548 44.8886 66.8352 43.0047 67.8678 41.0301C66.9258 41.4649 65.9838 41.791 65.0962 42.1714C64.2086 42.5518 63.3753 43.0047 62.6507 43.6568C62.6145 43.693 62.5601 43.7474 62.5058 43.8017C62.3971 43.9104 62.2703 44.0553 62.1435 44.2002C62.2884 43.9104 62.4514 43.6387 62.5782 43.3307L62.5058 43.4213Z" fill="#6D6D6D"/>
<path fill-rule="evenodd" clip-rule="evenodd" d="M35.3149 8.98504L34.862 7.64453L34.3729 8.98504L32.96 9.00315L34.0831 9.87267L33.6483 11.2313L34.8258 10.4161L35.9852 11.2494L35.5866 9.89078L36.7279 9.03938L35.3149 8.98504ZM41.2029 10.1802L40.8225 9.0752L40.424 10.1802L39.2647 10.1983L40.1885 10.9048L39.8443 12.0279L40.8044 11.3758L41.7645 12.046L41.4384 10.9229L42.3804 10.2164L41.2029 10.1802ZM29.029 9.0752L29.4276 10.1802L30.605 10.1983L29.6812 10.9048L30.0253 12.0279L29.0653 11.3758L28.1052 12.046L28.4312 10.9229L27.4893 10.2164L28.6667 10.1802L29.029 9.0752ZM46.0935 13.0246L45.7493 12.0283L45.4052 13.0065L44.3545 13.0246L45.1878 13.6587L44.8617 14.6731L45.7312 14.0753L46.6007 14.6912L46.2928 13.6768L47.1442 13.0428L46.0935 13.0246ZM24.1023 12.0283L24.4646 13.0065L25.5153 13.0246L24.682 13.6587L24.99 14.6731L24.1204 14.0753L23.269 14.6912L23.5589 13.6768L22.7256 13.0428L23.7763 13.0246L24.1023 12.0283ZM50.8395 16.557L49.7888 16.5207L49.4628 15.5244L49.1005 16.5207L48.0498 16.5388L48.8831 17.1729L48.5751 18.1692L49.4446 17.5895L50.2961 18.1873L50.0062 17.191L50.8395 16.557ZM20.407 15.5244L20.7693 16.5207L21.82 16.5388L20.9867 17.1729L21.2946 18.1692L20.4251 17.5895L19.5737 18.1873L19.8636 17.191L19.0303 16.557L20.0809 16.5207L20.407 15.5244ZM53.1216 20.2164L52.1615 20.1802L51.8535 19.2744L51.5275 20.1802H50.5674L51.3282 20.778L51.0384 21.6837L51.8354 21.1403L52.6144 21.7018L52.3426 20.778L53.1216 20.2164ZM18.0151 19.2744L18.3231 20.1802H19.2832L18.5404 20.778L18.8122 21.6837L18.0332 21.1403L17.2362 21.7018L17.5079 20.778L16.7471 20.2164L17.7072 20.1802L18.0151 19.2744Z" fill="#6D6D6D"/>
<path fill-rule="evenodd" clip-rule="evenodd" d="M45.097 46.2291C45.0427 46.1023 44.9159 46.0842 44.8253 46.1566C44.1732 46.8631 43.3399 47.2254 42.5066 47.4609C42.1132 47.5892 41.7157 47.6933 41.3161 47.7979C40.8693 47.9149 40.4199 48.0325 39.9705 48.1855L39.8985 48.2105C39.504 48.3474 39.0962 48.4889 38.7206 48.7108C38.3221 48.9282 37.9235 49.2181 37.5612 49.5804C37.1989 49.9427 36.891 50.3774 36.6193 50.8665C36.4743 51.1201 36.3657 51.3737 36.257 51.6455C36.1483 51.9172 36.0577 52.2433 36.0034 52.515C36.0034 52.5512 36.0034 52.5693 36.0215 52.5874C36.0062 52.6181 35.9894 52.6487 35.9724 52.6797L35.9724 52.6798C35.9292 52.7589 35.8845 52.8406 35.8584 52.9316C35.7679 53.1852 35.7135 53.4026 35.6592 53.6381V53.8736C35.7135 54.0004 35.8222 54.0366 35.9128 53.9642C36.4925 53.4932 37.1446 53.2215 37.8149 53.0765C37.9925 53.0381 38.1727 53.0035 38.3541 52.9687L38.3541 52.9687C38.8571 52.8722 39.3692 52.7738 39.8618 52.5874C40.5321 52.3519 41.2023 52.044 41.8001 51.5368C42.1081 51.2832 42.3798 50.9571 42.6153 50.5767C42.8327 50.2325 42.9957 49.8159 43.1406 49.3992C43.2312 49.3449 43.3218 49.2905 43.3942 49.2362C44.1913 48.6565 44.8253 47.6421 45.1333 46.4646C45.1333 46.4646 45.1333 46.2834 45.1152 46.211L45.097 46.2291ZM41.6733 51.2832C41.1299 51.8266 40.4596 52.1164 39.8075 52.3701C39.2534 52.6009 38.6732 52.6879 38.089 52.7756L38.0889 52.7756C37.9856 52.7911 37.8821 52.8066 37.7786 52.8229C37.2352 52.8954 36.6736 53.0765 36.1483 53.3301C36.1483 53.2939 36.1664 53.2396 36.1845 53.2033C36.257 53.0222 36.3475 52.8229 36.4381 52.6599C36.6374 52.3338 36.891 52.0621 37.1808 51.8447C37.7605 51.41 38.4126 51.1926 39.0829 50.9933C39.3824 50.8982 39.6882 50.8131 39.9969 50.7272C40.8645 50.4857 41.7555 50.2377 42.5972 49.7434C42.5731 49.8098 42.5509 49.8781 42.5288 49.9465L42.5288 49.9467C42.4845 50.0835 42.4402 50.2204 42.3798 50.3412C42.1987 50.7216 41.9451 51.0296 41.6733 51.2832ZM43.195 48.7833C43.1035 48.8617 43.0026 48.9213 42.8991 48.9824C42.8591 49.006 42.8187 49.0298 42.7783 49.055C42.7421 49.0731 42.7104 49.0912 42.6787 49.1093L42.6787 49.1094C42.647 49.1275 42.6153 49.1456 42.5791 49.1637C42.416 49.2543 42.2168 49.3449 42.0537 49.4173C41.6552 49.5804 41.2386 49.7253 40.8219 49.8521C40.6136 49.9155 40.4053 49.9766 40.1969 50.0378C39.572 50.2212 38.947 50.4046 38.3221 50.6491C37.9054 50.8122 37.4888 51.0114 37.0903 51.265C36.9272 51.3737 36.7823 51.5005 36.6374 51.6273L36.6374 51.6273C36.6917 51.4462 36.7642 51.2651 36.8366 51.084L36.8366 51.0839L36.8366 51.0839C37.0721 50.5948 37.362 50.16 37.688 49.7977C38.3583 49.055 39.1735 48.6746 40.0068 48.4029C40.6807 48.1978 41.3665 48.0401 42.0545 47.8818C42.2172 47.8444 42.38 47.807 42.5428 47.7689C43.2131 47.6058 43.8834 47.3885 44.5174 46.9899C44.2094 47.7508 43.7565 48.3667 43.195 48.7833ZM34.0296 52.9684C34.0055 52.8838 33.9652 52.8154 33.925 52.747C33.9048 52.7127 33.8847 52.6785 33.8666 52.6423V52.5336C33.7941 52.2619 33.7036 51.9358 33.613 51.6641C33.5043 51.3924 33.3775 51.1207 33.2507 50.8852C32.979 50.3961 32.671 49.9432 32.3087 49.599C31.9464 49.2367 31.566 48.9469 31.1494 48.7295C30.7327 48.5121 30.3161 48.3491 29.8994 48.2042C29.45 48.0512 29.0006 47.9335 28.5539 47.8165C28.1543 47.7119 27.7568 47.6079 27.3633 47.4796C26.5301 47.2259 25.6968 46.8636 25.0446 46.1753C25.0446 46.1753 24.9359 46.1028 24.8635 46.1391C24.7548 46.1934 24.7186 46.3383 24.7548 46.4832C25.0628 47.6607 25.6968 48.6933 26.4938 49.2729C26.5638 49.3289 26.6229 49.3632 26.6879 49.401L26.6879 49.401L26.6879 49.401C26.7071 49.4121 26.7268 49.4236 26.7474 49.436C26.8924 49.8526 27.0554 50.2693 27.2728 50.6134C27.5083 50.9938 27.78 51.3199 28.0879 51.5735C28.7038 52.0807 29.3741 52.3887 30.0262 52.6242C30.5189 52.8106 31.031 52.9089 31.534 53.0055L31.5341 53.0055C31.7154 53.0403 31.8956 53.0749 32.0732 53.1133C32.7435 53.2582 33.3956 53.5299 33.9753 54.0009C34.0115 54.0372 34.084 54.0553 34.1202 54.019C34.2108 53.9828 34.2651 53.8379 34.247 53.693C34.1927 53.4394 34.1383 53.222 34.0477 52.9684H34.0296ZM25.3526 46.9905C25.9866 47.389 26.675 47.6064 27.3271 47.7694L27.3273 47.7694C28.1786 47.9687 29.03 48.1679 29.8632 48.4034C30.6965 48.6751 31.5298 49.0556 32.1819 49.7983C32.508 50.1606 32.7978 50.5953 33.0333 51.0844L33.0333 51.0845L33.0333 51.0845C33.1058 51.2656 33.1782 51.4468 33.2326 51.6279C33.203 51.602 33.1735 51.5754 33.1437 51.5486L33.1437 51.5486C33.0278 51.4442 32.9095 51.3377 32.7797 51.2656C32.3812 51.012 31.9645 50.8127 31.5479 50.6497C30.9574 50.4186 30.3579 50.2421 29.7686 50.0687C29.5262 49.9973 29.2856 49.9265 29.048 49.8526C28.6314 49.7258 28.2147 49.5809 27.8162 49.4179C27.6351 49.3454 27.4539 49.2548 27.2909 49.1642C27.2547 49.1461 27.223 49.128 27.1913 49.1099L27.1913 49.1099C27.1596 49.0918 27.1279 49.0737 27.0916 49.0556C27.0513 49.0303 27.0109 49.0065 26.9709 48.9829C26.8674 48.9218 26.7665 48.8622 26.675 48.7838C26.1134 48.3672 25.6605 47.7513 25.3526 46.9905ZM32.0732 52.8416C31.9045 52.8105 31.7357 52.7838 31.5675 52.7571C31.0495 52.6751 30.5366 52.5938 30.0444 52.3887C29.3922 52.1351 28.722 51.8271 28.1785 51.3018C27.9068 51.0301 27.6532 50.7221 27.472 50.3598C27.4117 50.2391 27.3674 50.1022 27.3231 49.9653L27.3231 49.9653C27.3009 49.8969 27.2788 49.8285 27.2547 49.762C28.07 50.2409 28.9223 50.4793 29.7654 50.7152C30.1024 50.8095 30.4379 50.9033 30.7689 51.012C31.4392 51.2112 32.0913 51.4286 32.671 51.8634C32.9609 52.0807 33.2145 52.3525 33.4137 52.6785C33.5089 52.8213 33.5763 52.992 33.6403 53.1538L33.6673 53.222C33.6673 53.2582 33.6855 53.3126 33.7036 53.3488C33.1601 53.0952 32.6167 52.9321 32.0732 52.8416ZM35.7311 49.5439C35.7674 49.7612 35.7674 49.9786 35.7674 50.196L35.8036 50.1598C35.8036 50.3772 35.7674 50.6126 35.713 50.83C35.6043 51.2829 35.3507 51.6633 35.079 51.9169C34.9703 52.0075 34.8435 52.0075 34.7529 51.9169C34.736 51.9 34.7173 51.883 34.6974 51.865C34.6534 51.8252 34.6035 51.78 34.5537 51.7177C34.5432 51.7037 34.532 51.6891 34.5205 51.6739C34.4721 51.6103 34.4164 51.5372 34.3725 51.464C34.2638 51.2648 34.1732 51.0655 34.1189 50.83C34.0464 50.5945 34.0283 50.359 34.0283 50.1417V49.8156C34.0283 49.725 34.0464 49.6163 34.0645 49.5077L34.0646 49.5076C34.2095 48.6743 34.5174 47.986 34.8797 47.352C34.8978 47.2976 34.9522 47.2976 34.9884 47.3338V47.352C35.3326 48.0041 35.6043 48.7106 35.7311 49.5439ZM35.2058 50.5945C35.2601 50.4496 35.2964 50.3047 35.3145 50.1417L35.3326 50.1598C35.3507 49.9967 35.3507 49.8156 35.3507 49.6344C35.3145 49.0004 35.1514 48.3302 34.9341 47.7143C34.6986 48.3302 34.4993 48.9823 34.4631 49.6344V49.9062V50.1598C34.4812 50.3228 34.5174 50.4858 34.5718 50.6126C34.6261 50.7394 34.6986 50.8663 34.771 50.9568L34.8797 51.0655C35.0065 50.9387 35.1333 50.7938 35.2058 50.5945Z" fill="#6D6D6D"/>
<path d="M17.3374 30.313C17.3374 30.117 17.3071 29.9747 17.2464 29.886C17.1858 29.7973 17.1018 29.7437 16.9944 29.725C16.8918 29.7017 16.7774 29.6923 16.6514 29.697L16.4694 29.704V30.852C16.4694 30.978 16.4671 31.097 16.4624 31.209C16.4578 31.321 16.4508 31.4073 16.4414 31.468H17.3794C17.5194 31.468 17.6548 31.4377 17.7854 31.377C17.9161 31.3117 18.0234 31.2067 18.1074 31.062C18.1914 30.9127 18.2334 30.712 18.2334 30.46H18.6884L18.6534 32H14.9574V31.538C15.0648 31.5333 15.1534 31.5193 15.2234 31.496C15.2981 31.4727 15.3541 31.419 15.3914 31.335C15.4334 31.251 15.4544 31.1157 15.4544 30.929V28.248C15.4544 28.122 15.4568 28.0007 15.4614 27.884C15.4708 27.7673 15.4778 27.6787 15.4824 27.618C15.4078 27.6227 15.3144 27.6273 15.2024 27.632C15.0904 27.632 15.0088 27.6343 14.9574 27.639V27.1H18.4574L18.4994 28.458H18.0374C18.0374 28.2013 17.9931 28.0077 17.9044 27.877C17.8158 27.7463 17.7061 27.66 17.5754 27.618C17.4448 27.5713 17.3164 27.5503 17.1904 27.555L16.9384 27.562C16.8404 27.562 16.7564 27.576 16.6864 27.604C16.6164 27.6273 16.5628 27.6833 16.5254 27.772C16.4881 27.856 16.4694 27.989 16.4694 28.171V29.221H17.2884L17.2604 28.612H17.7994V30.313H17.3374ZM19.2206 32V31.538C19.3559 31.5053 19.4913 31.4307 19.6266 31.314C19.7619 31.1927 19.9159 31.0177 20.0886 30.789L20.9006 29.704C20.7139 29.466 20.5273 29.228 20.3406 28.99C20.1539 28.752 19.9649 28.514 19.7736 28.276C19.6989 28.178 19.6313 28.0707 19.5706 27.954C19.5099 27.8327 19.4609 27.7207 19.4236 27.618C19.3489 27.6227 19.2836 27.6273 19.2276 27.632C19.1763 27.632 19.1249 27.6343 19.0736 27.639V27.1H21.2016V27.562H21.1316C20.9869 27.562 20.8866 27.583 20.8306 27.625C20.7746 27.667 20.7536 27.7253 20.7676 27.8C20.7863 27.87 20.8306 27.9493 20.9006 28.038C21.0079 28.1687 21.1129 28.2993 21.2156 28.43C21.3183 28.5607 21.4209 28.6937 21.5236 28.829L22.0556 28.094C22.1536 27.9587 22.2306 27.8607 22.2866 27.8C22.3473 27.7347 22.4079 27.674 22.4686 27.618C22.3939 27.6227 22.3006 27.6273 22.1886 27.632C22.0766 27.632 21.9949 27.6343 21.9436 27.639V27.1H23.5326V27.562C23.4253 27.576 23.3179 27.6133 23.2106 27.674C23.1079 27.7347 23.0029 27.821 22.8956 27.933C22.7883 28.0403 22.6716 28.1803 22.5456 28.353L21.8736 29.27C22.0229 29.4567 22.1699 29.6433 22.3146 29.83C22.4593 30.0167 22.6039 30.2033 22.7486 30.39C22.8979 30.5767 23.0449 30.7633 23.1896 30.95C23.2689 31.048 23.3413 31.1413 23.4066 31.23C23.4719 31.3187 23.5209 31.4027 23.5536 31.482C23.6329 31.4727 23.6889 31.468 23.7216 31.468C23.7543 31.4633 23.7939 31.461 23.8406 31.461V32H21.7476V31.538C21.9203 31.538 22.0323 31.517 22.0836 31.475C22.1349 31.433 22.1466 31.377 22.1186 31.307C22.0953 31.2323 22.0486 31.1507 21.9786 31.062C21.8619 30.9127 21.7429 30.7633 21.6216 30.614C21.5049 30.46 21.3859 30.3083 21.2646 30.159C21.1619 30.299 21.0593 30.4413 20.9566 30.586C20.8539 30.726 20.7513 30.866 20.6486 31.006C20.5506 31.1367 20.4759 31.2347 20.4246 31.3C20.3733 31.3653 20.3196 31.426 20.2636 31.482C20.3429 31.4773 20.4339 31.4727 20.5366 31.468C20.6393 31.4633 20.7139 31.461 20.7606 31.461V32H19.2206ZM27.5792 28.668C27.5185 28.2807 27.3879 27.989 27.1872 27.793C26.9912 27.597 26.7299 27.4967 26.4032 27.492C26.1605 27.492 25.9482 27.548 25.7662 27.66C25.5842 27.772 25.4325 27.9213 25.3112 28.108C25.1945 28.2947 25.1059 28.507 25.0452 28.745C24.9892 28.983 24.9612 29.228 24.9612 29.48C24.9612 29.8813 25.0172 30.2383 25.1292 30.551C25.2459 30.859 25.4139 31.1017 25.6332 31.279C25.8525 31.4563 26.1185 31.545 26.4312 31.545C26.7252 31.545 27.0169 31.4703 27.3062 31.321C27.5955 31.167 27.8382 30.9547 28.0342 30.684L28.3702 30.992C28.1415 31.3047 27.9012 31.5427 27.6492 31.706C27.3972 31.8647 27.1499 31.972 26.9072 32.028C26.6692 32.084 26.4545 32.112 26.2632 32.112C25.9039 32.112 25.5772 32.049 25.2832 31.923C24.9892 31.7923 24.7349 31.615 24.5202 31.391C24.3102 31.1623 24.1469 30.8987 24.0302 30.6C23.9182 30.2967 23.8622 29.97 23.8622 29.62C23.8622 29.3027 23.9135 28.9877 24.0162 28.675C24.1189 28.3623 24.2705 28.08 24.4712 27.828C24.6765 27.5713 24.9332 27.3683 25.2412 27.219C25.5492 27.065 25.9062 26.988 26.3122 26.988C26.4942 26.988 26.6925 27.0183 26.9072 27.079C27.1265 27.135 27.3319 27.219 27.5232 27.331L27.4952 27.037H28.0342V28.668H27.5792ZM31.1665 30.313C31.1665 30.117 31.1362 29.9747 31.0755 29.886C31.0149 29.7973 30.9309 29.7437 30.8235 29.725C30.7209 29.7017 30.6065 29.6923 30.4805 29.697L30.2985 29.704V30.852C30.2985 30.978 30.2962 31.097 30.2915 31.209C30.2869 31.321 30.2799 31.4073 30.2705 31.468H31.2085C31.3485 31.468 31.4839 31.4377 31.6145 31.377C31.7452 31.3117 31.8525 31.2067 31.9365 31.062C32.0205 30.9127 32.0625 30.712 32.0625 30.46H32.5175L32.4825 32H28.7865V31.538C28.8939 31.5333 28.9825 31.5193 29.0525 31.496C29.1272 31.4727 29.1832 31.419 29.2205 31.335C29.2625 31.251 29.2835 31.1157 29.2835 30.929V28.248C29.2835 28.122 29.2859 28.0007 29.2905 27.884C29.2999 27.7673 29.3069 27.6787 29.3115 27.618C29.2369 27.6227 29.1435 27.6273 29.0315 27.632C28.9195 27.632 28.8379 27.6343 28.7865 27.639V27.1H32.2865L32.3285 28.458H31.8665C31.8665 28.2013 31.8222 28.0077 31.7335 27.877C31.6449 27.7463 31.5352 27.66 31.4045 27.618C31.2739 27.5713 31.1455 27.5503 31.0195 27.555L30.7675 27.562C30.6695 27.562 30.5855 27.576 30.5155 27.604C30.4455 27.6273 30.3919 27.6833 30.3545 27.772C30.3172 27.856 30.2985 27.989 30.2985 28.171V29.221H31.1175L31.0895 28.612H31.6285V30.313H31.1665ZM33.1547 32V31.538C33.262 31.5333 33.3507 31.5193 33.4207 31.496C33.4954 31.4727 33.5514 31.419 33.5887 31.335C33.6307 31.251 33.6517 31.1157 33.6517 30.929V28.248C33.6517 28.122 33.654 28.0007 33.6587 27.884C33.668 27.7673 33.675 27.6787 33.6797 27.618C33.605 27.6227 33.5117 27.6273 33.3997 27.632C33.2877 27.632 33.206 27.6343 33.1547 27.639V27.1H35.1637V27.562C35.061 27.5667 34.9724 27.5807 34.8977 27.604C34.823 27.6273 34.7647 27.681 34.7227 27.765C34.6854 27.8443 34.6667 27.9797 34.6667 28.171V30.852C34.6667 30.978 34.6644 31.097 34.6597 31.209C34.655 31.321 34.648 31.4073 34.6387 31.468H35.5767C35.852 31.468 36.0667 31.3723 36.2207 31.181C36.3794 30.9897 36.4587 30.7027 36.4587 30.32H36.9277L36.8857 32H33.1547ZM37.3793 32V31.538C37.4866 31.5333 37.5753 31.5193 37.6453 31.496C37.72 31.4727 37.776 31.419 37.8133 31.335C37.8553 31.251 37.8763 31.1157 37.8763 30.929V28.248C37.8763 28.122 37.8786 28.0007 37.8833 27.884C37.8926 27.7673 37.8996 27.6787 37.9043 27.618C37.8296 27.6227 37.7363 27.6273 37.6243 27.632C37.5123 27.632 37.4306 27.6343 37.3793 27.639V27.1H39.3883V27.562C39.2856 27.5667 39.197 27.5807 39.1223 27.604C39.0476 27.6273 38.9893 27.681 38.9473 27.765C38.91 27.8443 38.8913 27.9797 38.8913 28.171V30.852C38.8913 30.978 38.889 31.097 38.8843 31.209C38.8796 31.321 38.8726 31.4073 38.8633 31.468H39.8013C40.0766 31.468 40.2913 31.3723 40.4453 31.181C40.604 30.9897 40.6833 30.7027 40.6833 30.32H41.1523L41.1103 32H37.3793ZM43.9839 30.313C43.9839 30.117 43.9536 29.9747 43.8929 29.886C43.8322 29.7973 43.7482 29.7437 43.6409 29.725C43.5382 29.7017 43.4239 29.6923 43.2979 29.697L43.1159 29.704V30.852C43.1159 30.978 43.1136 31.097 43.1089 31.209C43.1042 31.321 43.0972 31.4073 43.0879 31.468H44.0259C44.1659 31.468 44.3012 31.4377 44.4319 31.377C44.5626 31.3117 44.6699 31.2067 44.7539 31.062C44.8379 30.9127 44.8799 30.712 44.8799 30.46H45.3349L45.2999 32H41.6039V31.538C41.7112 31.5333 41.7999 31.5193 41.8699 31.496C41.9446 31.4727 42.0006 31.419 42.0379 31.335C42.0799 31.251 42.1009 31.1157 42.1009 30.929V28.248C42.1009 28.122 42.1032 28.0007 42.1079 27.884C42.1172 27.7673 42.1242 27.6787 42.1289 27.618C42.0542 27.6227 41.9609 27.6273 41.8489 27.632C41.7369 27.632 41.6552 27.6343 41.6039 27.639V27.1H45.1039L45.1459 28.458H44.6839C44.6839 28.2013 44.6396 28.0077 44.5509 27.877C44.4622 27.7463 44.3526 27.66 44.2219 27.618C44.0912 27.5713 43.9629 27.5503 43.8369 27.555L43.5849 27.562C43.4869 27.562 43.4029 27.576 43.3329 27.604C43.2629 27.6273 43.2092 27.6833 43.1719 27.772C43.1346 27.856 43.1159 27.989 43.1159 28.171V29.221H43.9349L43.9069 28.612H44.4459V30.313H43.9839ZM49.6961 32.07L47.4561 29.207C47.3954 29.1277 47.3324 29.0437 47.2671 28.955C47.2017 28.8663 47.1364 28.7753 47.0711 28.682H47.0641L47.0781 30.852C47.0781 30.978 47.0757 31.0993 47.0711 31.216C47.0664 31.3327 47.0594 31.4213 47.0501 31.482C47.1247 31.4727 47.2181 31.468 47.3301 31.468C47.4467 31.4633 47.5284 31.461 47.5751 31.461V32H45.9791V31.538C46.0864 31.5333 46.1751 31.5193 46.2451 31.496C46.3197 31.4727 46.3757 31.419 46.4131 31.335C46.4551 31.251 46.4761 31.1157 46.4761 30.929L46.4621 28.248C46.4621 28.122 46.4644 28.0007 46.4691 27.884C46.4737 27.7673 46.4807 27.6787 46.4901 27.618C46.4154 27.6227 46.3197 27.6273 46.2031 27.632C46.0911 27.632 46.0094 27.6343 45.9581 27.639V27.1H47.0571L49.1991 29.802C49.3157 29.9513 49.4114 30.0797 49.4861 30.187C49.5654 30.2943 49.6331 30.3877 49.6891 30.467H49.6961V28.248C49.6961 28.122 49.6984 28.0007 49.7031 27.884C49.7077 27.7673 49.7124 27.6787 49.7171 27.618C49.6424 27.6227 49.5491 27.6273 49.4371 27.632C49.3251 27.632 49.2434 27.6343 49.1921 27.639V27.1H50.7881V27.562C50.6854 27.5667 50.5967 27.5807 50.5221 27.604C50.4474 27.6273 50.3891 27.681 50.3471 27.765C50.3097 27.8443 50.2911 27.9797 50.2911 28.171V32.07H49.6961ZM55.0051 28.682C55.0051 28.43 54.9701 28.2223 54.9001 28.059C54.8301 27.891 54.7298 27.7673 54.5991 27.688C54.4731 27.604 54.3215 27.5643 54.1441 27.569H53.8081V30.852C53.8081 30.978 53.8058 31.0993 53.8011 31.216C53.7965 31.3327 53.7895 31.4213 53.7801 31.482C53.8595 31.4727 53.9598 31.468 54.0811 31.468C54.2071 31.4633 54.2935 31.461 54.3401 31.461V32H52.2961V31.538C52.4035 31.5333 52.4921 31.5193 52.5621 31.496C52.6368 31.4727 52.6928 31.419 52.7301 31.335C52.7721 31.251 52.7931 31.1157 52.7931 30.929V27.576H52.4711C52.2051 27.5807 51.9951 27.6717 51.8411 27.849C51.6871 28.0263 51.6101 28.304 51.6101 28.682H51.1481L51.1831 27.1H55.4251L55.4671 28.682H55.0051Z" fill="#6D6D6D"/>
<path d="M25.7752 36.096C25.7552 35.892 25.7032 35.708 25.6192 35.544C25.5352 35.38 25.4192 35.25 25.2712 35.154C25.1232 35.054 24.9392 35.006 24.7192 35.01C24.4952 35.01 24.3172 35.072 24.1852 35.196C24.0532 35.32 23.9872 35.47 23.9872 35.646C23.9872 35.802 24.0312 35.934 24.1192 36.042C24.2072 36.146 24.3252 36.24 24.4732 36.324C24.6252 36.408 24.7952 36.492 24.9832 36.576C25.1352 36.64 25.2892 36.712 25.4452 36.792C25.6012 36.872 25.7432 36.964 25.8712 37.068C25.9992 37.168 26.1012 37.29 26.1772 37.434C26.2532 37.574 26.2912 37.74 26.2912 37.932C26.2912 38.156 26.2332 38.356 26.1172 38.532C26.0012 38.708 25.8352 38.846 25.6192 38.946C25.4072 39.046 25.1492 39.096 24.8452 39.096C24.6732 39.096 24.4912 39.07 24.2992 39.018C24.1112 38.966 23.9392 38.892 23.7832 38.796L23.8132 39.048H23.4472L23.4232 37.728H23.7112C23.7432 38.076 23.8672 38.34 24.0832 38.52C24.3032 38.696 24.5652 38.784 24.8692 38.784C25.0212 38.784 25.1592 38.756 25.2832 38.7C25.4072 38.644 25.5052 38.564 25.5772 38.46C25.6492 38.356 25.6852 38.234 25.6852 38.094C25.6852 37.93 25.6352 37.792 25.5352 37.68C25.4392 37.568 25.3152 37.472 25.1632 37.392C25.0152 37.312 24.8592 37.236 24.6952 37.164C24.5312 37.092 24.3712 37.016 24.2152 36.936C24.0632 36.856 23.9252 36.764 23.8012 36.66C23.6772 36.556 23.5792 36.434 23.5072 36.294C23.4352 36.15 23.3992 35.982 23.3992 35.79C23.3992 35.678 23.4192 35.56 23.4592 35.436C23.4992 35.312 23.5672 35.194 23.6632 35.082C23.7592 34.97 23.8892 34.88 24.0532 34.812C24.2212 34.74 24.4312 34.704 24.6832 34.704C24.8352 34.704 25.0052 34.726 25.1932 34.77C25.3852 34.814 25.5592 34.892 25.7152 35.004L25.6912 34.752H26.0512V36.096H25.7752ZM28.9321 37.482C28.9321 37.31 28.9061 37.186 28.8541 37.11C28.8061 37.034 28.7321 36.988 28.6321 36.972C28.5321 36.952 28.4081 36.946 28.2601 36.954L27.9121 36.966V38.214C27.9121 38.322 27.9101 38.418 27.9061 38.502C27.9061 38.582 27.9021 38.648 27.8941 38.7L28.9261 38.688C29.0821 38.684 29.2221 38.656 29.3461 38.604C29.4701 38.548 29.5681 38.454 29.6401 38.322C29.7121 38.19 29.7481 38.01 29.7481 37.782H30.0121L29.9761 39H26.8561V38.736C26.9881 38.728 27.0821 38.7 27.1381 38.652C27.1981 38.604 27.2361 38.532 27.2521 38.436C27.2681 38.34 27.2761 38.218 27.2761 38.07V35.574C27.2761 35.486 27.2781 35.402 27.2821 35.322C27.2861 35.238 27.2901 35.166 27.2941 35.106C27.2261 35.11 27.1521 35.114 27.0721 35.118C26.9921 35.122 26.9201 35.126 26.8561 35.13V34.8H29.7841L29.8141 35.886H29.5501C29.5501 35.658 29.5121 35.484 29.4361 35.364C29.3641 35.244 29.2681 35.164 29.1481 35.124C29.0321 35.084 28.9061 35.066 28.7701 35.07L28.3501 35.082C28.2261 35.082 28.1321 35.104 28.0681 35.148C28.0041 35.188 27.9621 35.256 27.9421 35.352C27.9221 35.444 27.9121 35.57 27.9121 35.73V36.672H28.9021L28.8661 36.156H29.1961V37.482H28.9321ZM30.5944 39V38.736C30.7264 38.728 30.8204 38.7 30.8764 38.652C30.9364 38.604 30.9744 38.532 30.9904 38.436C31.0064 38.34 31.0144 38.218 31.0144 38.07V35.574C31.0144 35.486 31.0164 35.402 31.0204 35.322C31.0244 35.238 31.0284 35.166 31.0324 35.106C30.9644 35.11 30.8904 35.114 30.8104 35.118C30.7304 35.122 30.6584 35.126 30.5944 35.13V34.8C30.8384 34.796 31.0844 34.794 31.3324 34.794C31.5804 34.79 31.8304 34.79 32.0824 34.794C32.4584 34.794 32.7684 34.838 33.0124 34.926C33.2564 35.01 33.4384 35.136 33.5584 35.304C33.6824 35.472 33.7424 35.684 33.7384 35.94C33.7424 36.1 33.7104 36.26 33.6424 36.42C33.5744 36.576 33.4604 36.716 33.3004 36.84C33.1404 36.964 32.9204 37.058 32.6404 37.122C32.7204 37.17 32.7924 37.236 32.8564 37.32C32.9204 37.404 32.9864 37.498 33.0544 37.602L33.4204 38.166C33.4964 38.286 33.5664 38.388 33.6304 38.472C33.6944 38.556 33.7664 38.622 33.8464 38.67C33.9264 38.714 34.0224 38.736 34.1344 38.736V39H33.3004C33.1964 38.912 33.1064 38.818 33.0304 38.718C32.9584 38.614 32.8804 38.498 32.7964 38.37L32.3824 37.698C32.3304 37.618 32.2744 37.532 32.2144 37.44C32.1584 37.348 32.0964 37.27 32.0284 37.206C31.9644 37.206 31.9004 37.206 31.8364 37.206C31.7764 37.206 31.7144 37.206 31.6504 37.206V38.196C31.6504 38.304 31.6484 38.402 31.6444 38.49C31.6444 38.574 31.6404 38.642 31.6324 38.694C31.6804 38.69 31.7304 38.688 31.7824 38.688C31.8384 38.684 31.8924 38.68 31.9444 38.676C32.0004 38.672 32.0484 38.67 32.0884 38.67V39H30.5944ZM31.9984 36.912C32.2184 36.908 32.4064 36.874 32.5624 36.81C32.7184 36.742 32.8384 36.64 32.9224 36.504C33.0064 36.364 33.0484 36.184 33.0484 35.964C33.0484 35.8 33.0244 35.662 32.9764 35.55C32.9284 35.438 32.8604 35.348 32.7724 35.28C32.6844 35.208 32.5784 35.158 32.4544 35.13C32.3344 35.098 32.2044 35.082 32.0644 35.082C31.9364 35.082 31.8424 35.106 31.7824 35.154C31.7264 35.202 31.6904 35.272 31.6744 35.364C31.6584 35.456 31.6504 35.574 31.6504 35.718V36.894C31.7104 36.898 31.7664 36.904 31.8184 36.912C31.8744 36.916 31.9344 36.916 31.9984 36.912ZM36.0285 39.054L34.6605 35.85C34.5885 35.682 34.5345 35.538 34.4985 35.418C34.4625 35.298 34.4405 35.198 34.4325 35.118C34.3765 35.122 34.3205 35.124 34.2645 35.124C34.2085 35.124 34.1545 35.126 34.1025 35.13V34.8H35.6205L35.6145 35.07C35.4345 35.074 35.3165 35.124 35.2605 35.22C35.2085 35.316 35.2225 35.46 35.3025 35.652C35.3945 35.884 35.4845 36.112 35.5725 36.336C35.6645 36.56 35.7625 36.794 35.8665 37.038C35.9505 37.242 36.0305 37.434 36.1065 37.614C36.1825 37.794 36.2485 37.954 36.3045 38.094H36.3105C36.3545 37.962 36.4005 37.83 36.4485 37.698C36.4965 37.562 36.5505 37.412 36.6105 37.248C36.7065 36.976 36.7905 36.74 36.8625 36.54C36.9345 36.34 36.9985 36.162 37.0545 36.006C37.1105 35.85 37.1605 35.71 37.2045 35.586C37.2365 35.494 37.2685 35.406 37.3005 35.322C37.3365 35.234 37.3705 35.162 37.4025 35.106C37.3305 35.11 37.2525 35.114 37.1685 35.118C37.0845 35.122 37.0085 35.126 36.9405 35.13V34.8H38.2005V35.064C38.0405 35.072 37.9125 35.12 37.8165 35.208C37.7205 35.296 37.6325 35.45 37.5525 35.67C37.5245 35.742 37.4945 35.82 37.4625 35.904C37.4345 35.984 37.3985 36.08 37.3545 36.192C37.3145 36.3 37.2665 36.432 37.2105 36.588C37.1545 36.744 37.0845 36.936 37.0005 37.164C36.9205 37.388 36.8225 37.654 36.7065 37.962C36.5945 38.27 36.4605 38.634 36.3045 39.054H36.0285ZM39.9219 35.064C39.7939 35.068 39.6999 35.096 39.6399 35.148C39.5799 35.196 39.5419 35.268 39.5259 35.364C39.5099 35.456 39.5019 35.578 39.5019 35.73V38.196C39.5019 38.304 39.4999 38.402 39.4959 38.49C39.4959 38.574 39.4919 38.642 39.4839 38.694C39.5519 38.686 39.6259 38.682 39.7059 38.682C39.7899 38.678 39.8619 38.674 39.9219 38.67V39H38.4459V38.736C38.5779 38.728 38.6719 38.7 38.7279 38.652C38.7879 38.604 38.8259 38.532 38.8419 38.436C38.8579 38.34 38.8659 38.218 38.8659 38.07V35.574C38.8659 35.486 38.8679 35.402 38.8719 35.322C38.8759 35.238 38.8799 35.166 38.8839 35.106C38.8159 35.11 38.7419 35.114 38.6619 35.118C38.5819 35.122 38.5099 35.126 38.4459 35.13V34.8H39.9219V35.064ZM43.7427 36.138C43.6987 35.778 43.5747 35.502 43.3707 35.31C43.1667 35.114 42.9007 35.014 42.5727 35.01C42.3647 35.01 42.1727 35.056 41.9967 35.148C41.8207 35.24 41.6687 35.37 41.5407 35.538C41.4127 35.702 41.3127 35.898 41.2407 36.126C41.1727 36.35 41.1387 36.596 41.1387 36.864C41.1387 37.228 41.2027 37.552 41.3307 37.836C41.4587 38.116 41.6347 38.334 41.8587 38.49C42.0867 38.646 42.3447 38.724 42.6327 38.724C42.8887 38.724 43.1407 38.664 43.3887 38.544C43.6407 38.42 43.8487 38.246 44.0127 38.022L44.2107 38.19C44.0307 38.438 43.8387 38.628 43.6347 38.76C43.4307 38.892 43.2267 38.98 43.0227 39.024C42.8227 39.072 42.6407 39.096 42.4767 39.096C42.1767 39.096 41.9007 39.042 41.6487 38.934C41.3967 38.826 41.1787 38.676 40.9947 38.484C40.8147 38.288 40.6747 38.062 40.5747 37.806C40.4787 37.546 40.4307 37.266 40.4307 36.966C40.4307 36.686 40.4747 36.412 40.5627 36.144C40.6507 35.876 40.7807 35.634 40.9527 35.418C41.1247 35.198 41.3407 35.024 41.6007 34.896C41.8647 34.768 42.1707 34.704 42.5187 34.704C42.7227 34.704 42.9207 34.732 43.1127 34.788C43.3087 34.844 43.4967 34.93 43.6767 35.046L43.6467 34.746H44.0187V36.138H43.7427ZM46.7446 37.482C46.7446 37.31 46.7186 37.186 46.6666 37.11C46.6186 37.034 46.5446 36.988 46.4446 36.972C46.3446 36.952 46.2206 36.946 46.0726 36.954L45.7246 36.966V38.214C45.7246 38.322 45.7226 38.418 45.7186 38.502C45.7186 38.582 45.7146 38.648 45.7066 38.7L46.7386 38.688C46.8946 38.684 47.0346 38.656 47.1586 38.604C47.2826 38.548 47.3806 38.454 47.4526 38.322C47.5246 38.19 47.5606 38.01 47.5606 37.782H47.8246L47.7886 39H44.6686V38.736C44.8006 38.728 44.8946 38.7 44.9506 38.652C45.0106 38.604 45.0486 38.532 45.0646 38.436C45.0806 38.34 45.0886 38.218 45.0886 38.07V35.574C45.0886 35.486 45.0906 35.402 45.0946 35.322C45.0986 35.238 45.1026 35.166 45.1066 35.106C45.0386 35.11 44.9646 35.114 44.8846 35.118C44.8046 35.122 44.7326 35.126 44.6686 35.13V34.8H47.5966L47.6266 35.886H47.3626C47.3626 35.658 47.3246 35.484 47.2486 35.364C47.1766 35.244 47.0806 35.164 46.9606 35.124C46.8446 35.084 46.7186 35.066 46.5826 35.07L46.1626 35.082C46.0386 35.082 45.9446 35.104 45.8806 35.148C45.8166 35.188 45.7746 35.256 45.7546 35.352C45.7346 35.444 45.7246 35.57 45.7246 35.73V36.672H46.7146L46.6786 36.156H47.0086V37.482H46.7446Z" fill="#6D6D6D"/>
</g>
<defs>
<clipPath id="clip0_712_5248">
<rect width="68.6918" height="64" fill="white" transform="translate(0.588867)"/>
</clipPath>
</defs>
</svg>
