<svg width="44" height="40" viewBox="0 0 44 40" fill="none" xmlns="http://www.w3.org/2000/svg">
<path d="M17.7083 6.5835C16.0507 6.5835 14.461 7.24198 13.2889 8.41408C12.1168 9.58618 11.4583 11.1759 11.4583 12.8335C11.4583 14.4911 12.1168 16.0808 13.2889 17.2529C14.461 18.425 16.0507 19.0835 17.7083 19.0835C19.3659 19.0835 20.9556 18.425 22.1278 17.2529C23.2999 16.0808 23.9583 14.4911 23.9583 12.8335C23.9583 11.1759 23.2999 9.58618 22.1278 8.41408C20.9556 7.24198 19.3659 6.5835 17.7083 6.5835ZM14.5833 12.8335C14.5833 12.0047 14.9126 11.2098 15.4986 10.6238C16.0847 10.0377 16.8795 9.7085 17.7083 9.7085C18.5371 9.7085 19.332 10.0377 19.918 10.6238C20.5041 11.2098 20.8333 12.0047 20.8333 12.8335C20.8333 13.6623 20.5041 14.4572 19.918 15.0432C19.332 15.6293 18.5371 15.9585 17.7083 15.9585C16.8795 15.9585 16.0847 15.6293 15.4986 15.0432C14.9126 14.4572 14.5833 13.6623 14.5833 12.8335ZM0 5.021C0 3.77779 0.49386 2.58551 1.37294 1.70643C2.25201 0.827357 3.4443 0.333496 4.6875 0.333496H30.7292C31.3447 0.333496 31.9543 0.454741 32.523 0.69031C33.0917 0.925879 33.6085 1.27116 34.0437 1.70643C34.479 2.14171 34.8243 2.65845 35.0599 3.22717C35.2954 3.79588 35.4167 4.40543 35.4167 5.021V14.9168H32.2917V9.7085H30.7292C29.486 9.7085 28.2937 9.21464 27.4146 8.33556C26.5355 7.45648 26.0417 6.2642 26.0417 5.021V3.4585H9.375V5.021C9.375 6.2642 8.88114 7.45648 8.00206 8.33556C7.12299 9.21464 5.9307 9.7085 4.6875 9.7085H3.125V15.9585H4.6875C5.9307 15.9585 7.12299 16.4524 8.00206 17.3314C8.88114 18.2105 9.375 19.4028 9.375 20.646V22.2085H25V25.3335H4.6875C3.4443 25.3335 2.25201 24.8396 1.37294 23.9606C0.49386 23.0815 0 21.8892 0 20.646V5.021ZM4.6875 3.4585C4.2731 3.4585 3.87567 3.62312 3.58265 3.91614C3.28962 4.20917 3.125 4.6066 3.125 5.021V6.5835H4.6875C5.1019 6.5835 5.49933 6.41888 5.79235 6.12585C6.08538 5.83283 6.25 5.4354 6.25 5.021V3.4585H4.6875ZM32.2917 6.5835V5.021C32.2917 4.6066 32.127 4.20917 31.834 3.91614C31.541 3.62312 31.1436 3.4585 30.7292 3.4585H29.1667V5.021C29.1667 5.8835 29.8667 6.5835 30.7292 6.5835H32.2917ZM3.125 20.646C3.125 21.5085 3.825 22.2085 4.6875 22.2085H6.25V20.646C6.25 20.2316 6.08538 19.8342 5.79235 19.5411C5.49933 19.2481 5.1019 19.0835 4.6875 19.0835H3.125V20.646ZM5.00208 28.4585H25V31.5835H10.4167C9.31924 31.5838 8.24106 31.2952 7.29058 30.7466C6.34009 30.1981 5.5508 29.4089 5.00208 28.4585ZM41.6667 14.9168V10.7502C41.667 9.65273 41.3784 8.57456 40.8298 7.62407C40.2812 6.67359 39.4921 5.8843 38.5417 5.33558V14.9168H41.6667ZM30.2083 17.0002C29.3795 17.0002 28.5847 17.3294 27.9986 17.9155C27.4126 18.5015 27.0833 19.2964 27.0833 20.1252V36.7918C27.0833 37.6206 27.4126 38.4155 27.9986 39.0015C28.5847 39.5876 29.3795 39.9168 30.2083 39.9168H40.625C41.4538 39.9168 42.2487 39.5876 42.8347 39.0015C43.4208 38.4155 43.75 37.6206 43.75 36.7918V20.1252C43.75 19.2964 43.4208 18.5015 42.8347 17.9155C42.2487 17.3294 41.4538 17.0002 40.625 17.0002H30.2083ZM31.25 26.3752H33.3333C33.6096 26.3752 33.8746 26.4849 34.0699 26.6803C34.2653 26.8756 34.375 27.1406 34.375 27.4168C34.375 27.6931 34.2653 27.9581 34.0699 28.1534C33.8746 28.3488 33.6096 28.4585 33.3333 28.4585H31.25C30.9737 28.4585 30.7088 28.3488 30.5134 28.1534C30.3181 27.9581 30.2083 27.6931 30.2083 27.4168C30.2083 27.1406 30.3181 26.8756 30.5134 26.6803C30.7088 26.4849 30.9737 26.3752 31.25 26.3752ZM37.5 26.3752H39.5833C39.8596 26.3752 40.1246 26.4849 40.3199 26.6803C40.5153 26.8756 40.625 27.1406 40.625 27.4168C40.625 27.6931 40.5153 27.9581 40.3199 28.1534C40.1246 28.3488 39.8596 28.4585 39.5833 28.4585H37.5C37.2237 28.4585 36.9588 28.3488 36.7634 28.1534C36.5681 27.9581 36.4583 27.6931 36.4583 27.4168C36.4583 27.1406 36.5681 26.8756 36.7634 26.6803C36.9588 26.4849 37.2237 26.3752 37.5 26.3752ZM31.25 30.5418H33.3333C33.6096 30.5418 33.8746 30.6516 34.0699 30.8469C34.2653 31.0423 34.375 31.3072 34.375 31.5835C34.375 31.8598 34.2653 32.1247 34.0699 32.3201C33.8746 32.5154 33.6096 32.6252 33.3333 32.6252H31.25C30.9737 32.6252 30.7088 32.5154 30.5134 32.3201C30.3181 32.1247 30.2083 31.8598 30.2083 31.5835C30.2083 31.3072 30.3181 31.0423 30.5134 30.8469C30.7088 30.6516 30.9737 30.5418 31.25 30.5418ZM37.5 30.5418H39.5833C39.8596 30.5418 40.1246 30.6516 40.3199 30.8469C40.5153 31.0423 40.625 31.3072 40.625 31.5835C40.625 31.8598 40.5153 32.1247 40.3199 32.3201C40.1246 32.5154 39.8596 32.6252 39.5833 32.6252H37.5C37.2237 32.6252 36.9588 32.5154 36.7634 32.3201C36.5681 32.1247 36.4583 31.8598 36.4583 31.5835C36.4583 31.3072 36.5681 31.0423 36.7634 30.8469C36.9588 30.6516 37.2237 30.5418 37.5 30.5418ZM31.25 34.7085H33.3333C33.6096 34.7085 33.8746 34.8182 34.0699 35.0136C34.2653 35.2089 34.375 35.4739 34.375 35.7502C34.375 36.0264 34.2653 36.2914 34.0699 36.4867C33.8746 36.6821 33.6096 36.7918 33.3333 36.7918H31.25C30.9737 36.7918 30.7088 36.6821 30.5134 36.4867C30.3181 36.2914 30.2083 36.0264 30.2083 35.7502C30.2083 35.4739 30.3181 35.2089 30.5134 35.0136C30.7088 34.8182 30.9737 34.7085 31.25 34.7085ZM37.5 34.7085H39.5833C39.8596 34.7085 40.1246 34.8182 40.3199 35.0136C40.5153 35.2089 40.625 35.4739 40.625 35.7502C40.625 36.0264 40.5153 36.2914 40.3199 36.4867C40.1246 36.6821 39.8596 36.7918 39.5833 36.7918H37.5C37.2237 36.7918 36.9588 36.6821 36.7634 36.4867C36.5681 36.2914 36.4583 36.0264 36.4583 35.7502C36.4583 35.4739 36.5681 35.2089 36.7634 35.0136C36.9588 34.8182 37.2237 34.7085 37.5 34.7085ZM30.2083 21.1668C30.2083 20.8906 30.3181 20.6256 30.5134 20.4303C30.7088 20.2349 30.9737 20.1252 31.25 20.1252H39.5833C39.8596 20.1252 40.1246 20.2349 40.3199 20.4303C40.5153 20.6256 40.625 20.8906 40.625 21.1668V23.2502C40.625 23.5264 40.5153 23.7914 40.3199 23.9867C40.1246 24.1821 39.8596 24.2918 39.5833 24.2918H31.25C30.9737 24.2918 30.7088 24.1821 30.5134 23.9867C30.3181 23.7914 30.2083 23.5264 30.2083 23.2502V21.1668Z" fill="#E6B323"/>
</svg>
