<svg width="39" height="40" viewBox="0 0 39 40" fill="none" xmlns="http://www.w3.org/2000/svg">
<path d="M19.3564 21.8279C17.6452 21.8279 16.0041 22.5077 14.7941 23.7176C13.5841 24.9276 12.9043 26.5688 12.9043 28.2799C12.9043 29.9911 13.5841 31.6322 14.7941 32.8422C16.0041 34.0522 17.6452 34.732 19.3564 34.732C21.0676 34.732 22.7087 34.0522 23.9187 32.8422C25.1287 31.6322 25.8084 29.9911 25.8084 28.2799C25.8084 26.5688 25.1287 24.9276 23.9187 23.7176C22.7087 22.5077 21.0676 21.8279 19.3564 21.8279ZM16.5912 28.2799C16.5912 27.5466 16.8825 26.8432 17.4011 26.3247C17.9197 25.8061 18.623 25.5148 19.3564 25.5148C20.0897 25.5148 20.7931 25.8061 21.3116 26.3247C21.8302 26.8432 22.1215 27.5466 22.1215 28.2799C22.1215 29.0133 21.8302 29.7166 21.3116 30.2352C20.7931 30.7538 20.0897 31.0451 19.3564 31.0451C18.623 31.0451 17.9197 30.7538 17.4011 30.2352C16.8825 29.7166 16.5912 29.0133 16.5912 28.2799Z" fill="#E6B323"/>
<path d="M29.5431 8.21624L23.6828 0L2.13471 17.2141L0.940158 17.2012V17.2196H0V39.341H38.7124V17.2196H36.939L33.4106 6.89818L29.5431 8.21624ZM33.0438 17.2196H14.5577L28.3264 12.5262L31.1321 11.6285L33.0438 17.2196ZM25.9004 9.45873L11.6875 14.3033L22.9435 5.31097L25.9004 9.45873ZM3.68689 32.2788V24.2782C4.46463 24.0026 5.17107 23.5569 5.75468 22.9736C6.33829 22.3903 6.78438 21.6841 7.0604 20.9065H31.652C31.9279 21.6844 32.3739 22.3909 32.9575 22.9745C33.5411 23.5581 34.2476 24.0041 35.0255 24.28V32.2806C34.2476 32.5565 33.5411 33.0025 32.9575 33.5861C32.3739 34.1697 31.9279 34.8762 31.652 35.6541H7.06409C6.78791 34.8756 6.34139 34.1685 5.75712 33.5846C5.17285 33.0006 4.46557 32.5545 3.68689 32.2788Z" fill="#E6B323"/>
</svg>
