<svg width="54" height="39" viewBox="0 0 54 39" fill="none" xmlns="http://www.w3.org/2000/svg">
<path d="M5.78571 0C2.61321 0 0 2.64225 0 5.85V33.15C0 36.3578 2.61321 39 5.78571 39H48.2143C51.3868 39 54 36.3578 54 33.15V5.85C54 2.64225 51.3868 0 48.2143 0H5.78571ZM5.78571 3.9H48.2143C49.3059 3.9 50.1429 4.7463 50.1429 5.85V33.15C50.1429 34.2537 49.3059 35.1 48.2143 35.1H5.78571C4.69414 35.1 3.85714 34.2537 3.85714 33.15V5.85C3.85714 4.7463 4.69414 3.9 5.78571 3.9ZM17.3571 7.8C13.1143 7.8 9.64286 11.31 9.64286 15.6C9.64286 17.7704 10.5628 19.7282 11.9938 21.1458C10.6811 22.0415 9.60485 23.2482 8.85895 24.6607C8.11306 26.0732 7.72009 27.6488 7.71429 29.25H11.5714C11.5714 25.9974 14.1403 23.4 17.3571 23.4C20.574 23.4 23.1429 25.9974 23.1429 29.25H27C26.9942 27.6488 26.6012 26.0732 25.8553 24.6607C25.1094 23.2482 24.0332 22.0415 22.7205 21.1458C24.1515 19.7282 25.0714 17.7723 25.0714 15.6C25.0714 11.31 21.6 7.8 17.3571 7.8ZM30.8571 9.75V13.65H46.2857V9.75H30.8571ZM17.3571 11.7C19.5114 11.7 21.2143 13.4219 21.2143 15.6C21.2143 17.7782 19.5114 19.5 17.3571 19.5C15.2029 19.5 13.5 17.7782 13.5 15.6C13.5 13.4219 15.2029 11.7 17.3571 11.7ZM30.8571 17.55V21.45H46.2857V17.55H30.8571ZM30.8571 25.35V29.25H40.5V25.35H30.8571Z" fill="#E6B323"/>
</svg>
