<svg width="37" height="42" viewBox="0 0 37 42" fill="none" xmlns="http://www.w3.org/2000/svg">
<path fill-rule="evenodd" clip-rule="evenodd" d="M9.73684 0C10.8123 0 11.6842 0.89543 11.6842 2V4H23.3684V2C23.3684 0.89543 24.2403 0 25.3158 0C26.3913 0 27.2632 0.89543 27.2632 2V4H29.2105C30.7599 4 32.2459 4.63214 33.3415 5.75736C34.4371 6.88258 35.0526 8.4087 35.0526 10V16C35.0526 17.1046 34.1808 18 33.1053 18C32.0298 18 31.1579 17.1046 31.1579 16V10C31.1579 9.46957 30.9527 8.96086 30.5875 8.58579C30.2223 8.21071 29.727 8 29.2105 8H27.2632V10C27.2632 11.1046 26.3913 12 25.3158 12C24.2403 12 23.3684 11.1046 23.3684 10V8H11.6842V10C11.6842 11.1046 10.8123 12 9.73684 12C8.66134 12 7.78947 11.1046 7.78947 10V8H5.84211C5.32563 8 4.83031 8.21071 4.46511 8.58579C4.09991 8.96086 3.89474 9.46957 3.89474 10V16H26.2895C27.365 16 28.2368 16.8954 28.2368 18C28.2368 19.1046 27.365 20 26.2895 20H3.89474V34C3.89474 34.5304 4.09991 35.0391 4.46511 35.4142C4.83031 35.7893 5.32563 36 5.84211 36H19.4737C20.5492 36 21.4211 36.8954 21.4211 38C21.4211 39.1046 20.5492 40 19.4737 40H5.84211C4.29268 40 2.80672 39.3679 1.71111 38.2426C0.615506 37.1174 0 35.5913 0 34V10C0 8.4087 0.615505 6.88258 1.71111 5.75736C2.80672 4.63214 4.29268 4 5.84211 4H7.78947V2C7.78947 0.89543 8.66134 0 9.73684 0ZM31.1579 22C32.2334 22 33.1053 22.8954 33.1053 24H35.0526C36.1281 24 37 24.8954 37 26C37 27.1046 36.1281 28 35.0526 28H30.1842C29.926 28 29.6783 28.1054 29.4957 28.2929C29.3131 28.4804 29.2105 28.7348 29.2105 29C29.2105 29.2652 29.3131 29.5196 29.4957 29.7071C29.6783 29.8946 29.926 30 30.1842 30H32.1316C33.4228 30 34.6611 30.5268 35.5741 31.4645C36.4871 32.4021 37 33.6739 37 35C37 36.3261 36.4871 37.5979 35.5741 38.5355C34.8941 39.2339 34.0336 39.7044 33.1053 39.899V40C33.1053 41.1046 32.2334 42 31.1579 42C30.0824 42 29.2105 41.1046 29.2105 40H27.2632C26.1877 40 25.3158 39.1046 25.3158 38C25.3158 36.8954 26.1877 36 27.2632 36H32.1316C32.3898 36 32.6375 35.8946 32.8201 35.7071C33.0027 35.5196 33.1053 35.2652 33.1053 35C33.1053 34.7348 33.0027 34.4804 32.8201 34.2929C32.6375 34.1054 32.3898 34 32.1316 34H30.1842C28.893 34 27.6547 33.4732 26.7417 32.5355C25.8287 31.5979 25.3158 30.3261 25.3158 29C25.3158 27.6739 25.8287 26.4021 26.7417 25.4645C27.4217 24.7661 28.2822 24.2956 29.2105 24.101V24C29.2105 22.8954 30.0824 22 31.1579 22Z" fill="#E6B323"/>
</svg>
