<svg width="56" height="42" viewBox="0 0 56 42" fill="none" xmlns="http://www.w3.org/2000/svg">
<path fill-rule="evenodd" clip-rule="evenodd" d="M8.05991 27.6603C9.63522 26.085 11.7718 25.2 13.9996 25.2C16.2274 25.2 18.364 26.085 19.9393 27.6603C21.5146 29.2356 22.3996 31.3721 22.3996 33.6C22.3996 35.8278 21.5146 37.9643 19.9393 39.5396C18.364 41.115 16.2274 42 13.9996 42C11.7718 42 9.63522 41.115 8.05991 39.5396C6.48461 37.9643 5.59961 35.8278 5.59961 33.6C5.59961 31.3721 6.48461 29.2356 8.05991 27.6603ZM13.9996 30.8C13.257 30.8 12.5448 31.095 12.0197 31.6201C11.4946 32.1452 11.1996 32.8573 11.1996 33.6C11.1996 34.3426 11.4946 35.0547 12.0197 35.5798C12.5448 36.105 13.257 36.4 13.9996 36.4C14.7422 36.4 15.4544 36.105 15.9795 35.5798C16.5046 35.0547 16.7996 34.3426 16.7996 33.6C16.7996 32.8573 16.5046 32.1452 15.9795 31.6201C15.4544 31.0949 14.7422 30.8 13.9996 30.8ZM36.0599 27.6603C37.6352 26.085 39.7718 25.2 41.9996 25.2C44.2274 25.2 46.364 26.085 47.9393 27.6603C49.5146 29.2356 50.3996 31.3721 50.3996 33.6C50.3996 35.8278 49.5146 37.9643 47.9393 39.5396C46.364 41.115 44.2274 42 41.9996 42C39.7718 42 37.6352 41.115 36.0599 39.5396C34.4846 37.9643 33.5996 35.8278 33.5996 33.6C33.5996 31.3721 34.4846 29.2356 36.0599 27.6603ZM41.9996 30.8C41.257 30.8 40.5448 31.0949 40.0197 31.6201C39.4946 32.1452 39.1996 32.8573 39.1996 33.6C39.1996 34.3426 39.4946 35.0547 40.0197 35.5798C40.5448 36.105 41.257 36.4 41.9996 36.4C42.7422 36.4 43.4544 36.105 43.9795 35.5798C44.5046 35.0547 44.7996 34.3426 44.7996 33.6C44.7996 32.8573 44.5046 32.1452 43.9795 31.6201C43.4544 31.0949 42.7422 30.8 41.9996 30.8Z" fill="#E6B323"/>
<path fill-rule="evenodd" clip-rule="evenodd" d="M5.80026 1.76011C6.22548 0.697063 7.25507 0 8.4 0H33.6C34.4506 0 35.2551 0.386651 35.7864 1.05085L46.1457 14H47.6C49.8278 14 51.9644 14.885 53.5397 16.4603C55.115 18.0356 56 20.1722 56 22.4V33.6C56 35.1464 54.7464 36.4 53.2 36.4H47.6C46.0536 36.4 44.8 35.1464 44.8 33.6C44.8 32.0536 46.0536 30.8 47.6 30.8H50.4V22.4C50.4 21.6574 50.105 20.9452 49.5799 20.4201C49.0548 19.895 48.3426 19.6 47.6 19.6H5.6V30.8H8.4C9.9464 30.8 11.2 32.0536 11.2 33.6C11.2 35.1464 9.9464 36.4 8.4 36.4H2.8C1.2536 36.4 0 35.1464 0 33.6V16.8C0 16.4438 0.0679705 16.0908 0.200265 15.7601L5.80026 1.76011ZM6.93569 14H25.2V5.6H10.2957L6.93569 14ZM30.8 5.6V14H38.9743L32.2543 5.6H30.8ZM16.8 33.6C16.8 32.0536 18.0536 30.8 19.6 30.8H36.4C37.9464 30.8 39.2 32.0536 39.2 33.6C39.2 35.1464 37.9464 36.4 36.4 36.4H19.6C18.0536 36.4 16.8 35.1464 16.8 33.6Z" fill="#E6B323"/>
</svg>
