<svg width="37" height="39" viewBox="0 0 37 39" fill="none" xmlns="http://www.w3.org/2000/svg">
<path d="M24.2597 0H24.1175C23.4697 0.0221121 22.6481 0.244052 21.6053 0.703492L2.98535 8.8866C1.3121 9.61548 0.473887 10.3362 0.16183 11.1388C-0.150227 11.9332 -0.0285643 13.0551 0.680872 14.7914L4.62701 24.4388C5.33566 26.175 6.02692 27.0431 6.80035 27.3625C7.56667 27.6901 8.64899 27.5672 10.3238 26.8302L28.9446 18.6487C30.0111 18.1819 30.7379 17.7233 31.204 17.2401C31.5595 17.6905 31.8913 18.1901 32.1678 18.7306C32.468 19.3039 32.705 19.9099 32.8709 20.5159C32.6734 20.4914 32.468 20.4832 32.2626 20.4832C31.1487 20.5077 30.0427 20.95 29.1658 21.8099C27.5383 23.4151 27.2539 25.9375 28.3678 27.8539L24.402 31.7603L22.6639 31.2771L22.7271 33.4146L20.5625 33.3491L20.3571 35.7569L18.4847 35.3965L18.8481 37.2392L17.5051 39L22.4664 38.1073L30.7537 29.9177C32.3495 30.5319 34.2061 30.1961 35.5333 28.8858C37.4056 27.0431 37.5005 23.9802 35.7308 22.0146C35.3437 21.5888 34.9092 21.253 34.4352 21.0073C34.2693 19.9836 33.9059 18.9681 33.424 18.0345C32.9973 17.2155 32.4838 16.4539 31.9071 15.8233C31.994 15.078 31.7965 14.0952 31.2435 12.7439L27.3013 3.09405C26.5982 1.3603 25.903 0.49138 25.1288 0.167069C24.876 0.0606036 24.5916 0.00327587 24.2597 0ZM23.0273 4.17345L23.5803 5.5313L13.1047 10.1314L12.5517 8.77195L23.0273 4.17345ZM24.2044 7.306L24.7575 8.66548L18.935 11.2207L18.382 9.86117L24.2044 7.306ZM9.21781 8.8129L14.7084 22.2358L7.57457 25.3642L2.36914 12.6211L2.09184 11.9413L9.21781 8.8129ZM25.4922 10.2051L26.0452 11.5646L19.0614 14.6276L18.5084 13.2681L25.4922 10.2051ZM8.45939 10.7457L3.95629 12.7276L8.33299 23.4314L12.844 21.4495L8.45939 10.7457ZM28.6601 12.7931C29.6951 12.7931 30.5483 13.6366 30.6273 14.6849C29.9242 14.1935 29.15 13.8987 28.3678 13.956C28.2335 13.9642 28.0992 13.9806 27.9649 14.0133L28.2809 15.4547C28.755 15.3401 29.4344 15.553 30.1612 16.1508C30.1612 16.1508 30.1691 16.1508 30.1691 16.159C29.8057 16.6013 29.2606 16.8879 28.6601 16.8879C27.5778 16.8879 26.6851 15.9625 26.6851 14.8405C26.6851 13.7185 27.5778 12.7931 28.6601 12.7931ZM32.9025 22.6289C32.9657 22.6289 33.0289 22.6289 33.0922 22.637C33.021 23.3659 32.7682 23.9883 32.2942 24.4797L33.2897 25.528C33.898 24.8974 34.2614 24.1276 34.4273 23.3004C35.1936 24.1603 35.1541 25.5198 34.3404 26.3224C33.5188 27.1332 32.2152 27.0922 31.4489 26.2405C30.6747 25.3806 30.7221 24.0129 31.5358 23.2103C31.9229 22.8336 32.4127 22.6452 32.9025 22.6289Z" fill="#E6B323"/>
</svg>
