<svg width="43" height="41" viewBox="0 0 43 41" fill="none" xmlns="http://www.w3.org/2000/svg">
<path d="M40.396 5.34167H36.056V8.01246H40.0621V37.3911H2.67113V8.01246H6.67731V5.34167H2.33728C2.02512 5.34689 1.71704 5.41355 1.43064 5.53785C1.14424 5.66216 0.885135 5.84166 0.668122 6.06611C0.451109 6.29057 0.280438 6.55557 0.16586 6.846C0.0512807 7.13642 -0.00496227 7.44657 0.000343264 7.75874V37.6448C-0.00496227 37.957 0.0512807 38.2671 0.16586 38.5576C0.280438 38.848 0.451109 39.113 0.668122 39.3375C0.885135 39.5619 1.14424 39.7414 1.43064 39.8657C1.71704 39.99 2.02512 40.0567 2.33728 40.0619H40.396C40.7081 40.0567 41.0162 39.99 41.3026 39.8657C41.589 39.7414 41.8481 39.5619 42.0651 39.3375C42.2822 39.113 42.4528 38.848 42.5674 38.5576C42.682 38.2671 42.7382 37.957 42.7329 37.6448V7.75874C42.7382 7.44657 42.682 7.13642 42.5674 6.846C42.4528 6.55557 42.2822 6.29057 42.0651 6.06611C41.8481 5.84166 41.589 5.66216 41.3026 5.53785C41.0162 5.41355 40.7081 5.34689 40.396 5.34167Z" fill="#E6B323"/>
<path d="M8.0127 16.0245H10.6835V18.6953H8.0127V16.0245Z" fill="#E6B323"/>
<path d="M16.0254 16.0245H18.6962V18.6953H16.0254V16.0245Z" fill="#E6B323"/>
<path d="M24.0381 16.0245H26.7089V18.6953H24.0381V16.0245Z" fill="#E6B323"/>
<path d="M32.0498 16.0245H34.7206V18.6953H32.0498V16.0245Z" fill="#E6B323"/>
<path d="M8.0127 22.7017H10.6835V25.3724H8.0127V22.7017Z" fill="#E6B323"/>
<path d="M16.0254 22.7017H18.6962V25.3724H16.0254V22.7017Z" fill="#E6B323"/>
<path d="M24.0381 22.7017H26.7089V25.3724H24.0381V22.7017Z" fill="#E6B323"/>
<path d="M32.0498 22.7017H34.7206V25.3724H32.0498V22.7017Z" fill="#E6B323"/>
<path d="M8.0127 29.3787H10.6835V32.0494H8.0127V29.3787Z" fill="#E6B323"/>
<path d="M16.0254 29.3787H18.6962V32.0494H16.0254V29.3787Z" fill="#E6B323"/>
<path d="M24.0381 29.3787H26.7089V32.0494H24.0381V29.3787Z" fill="#E6B323"/>
<path d="M32.0498 29.3787H34.7206V32.0494H32.0498V29.3787Z" fill="#E6B323"/>
<path d="M10.684 10.6831C11.0382 10.6831 11.3779 10.5425 11.6283 10.292C11.8787 10.0416 12.0194 9.70192 12.0194 9.34775V1.33539C12.0194 0.981225 11.8787 0.641562 11.6283 0.391128C11.3779 0.140693 11.0382 0 10.684 0C10.3299 0 9.9902 0.140693 9.73976 0.391128C9.48933 0.641562 9.34863 0.981225 9.34863 1.33539V9.34775C9.34863 9.70192 9.48933 10.0416 9.73976 10.292C9.9902 10.5425 10.3299 10.6831 10.684 10.6831Z" fill="#E6B323"/>
<path d="M32.0502 10.6831C32.4044 10.6831 32.7441 10.5425 32.9945 10.292C33.2449 10.0416 33.3856 9.70192 33.3856 9.34775V1.33539C33.3856 0.981225 33.2449 0.641562 32.9945 0.391128C32.7441 0.140693 32.4044 0 32.0502 0C31.6961 0 31.3564 0.140693 31.106 0.391128C30.8555 0.641562 30.7148 0.981225 30.7148 1.33539V9.34775C30.7148 9.70192 30.8555 10.0416 31.106 10.292C31.3564 10.5425 31.6961 10.6831 32.0502 10.6831Z" fill="#E6B323"/>
<path d="M14.6904 5.34167H28.0444V8.01246H14.6904V5.34167Z" fill="#E6B323"/>
</svg>
