<svg width="59" height="64" viewBox="0 0 59 64" fill="none" xmlns="http://www.w3.org/2000/svg">
<g clip-path="url(#clip0_712_5268)">
<path d="M51.814 64.0001H7.18685C3.37885 64.0001 0.28125 60.9025 0.28125 57.1009V8.87694C0.28125 8.53133 0.56285 8.24973 0.90845 8.24973H2.89245L0.81885 1.85614C0.74845 1.63854 0.79965 1.40174 0.95325 1.23534C1.10685 1.06894 1.33725 0.998535 1.55485 1.04974L14.9564 4.14734C17.126 4.64653 18.3548 4.99853 20.422 5.70893L20.4604 5.72173L20.4796 5.70893C22.2332 4.38413 23.2316 3.70573 25.126 2.55374L29.1708 0.0897352C29.3692 -0.0318648 29.6252 -0.0318648 29.8236 0.0897352L33.8685 2.55374C35.7757 3.71214 36.774 4.39053 38.5212 5.70893L38.5404 5.72173L38.5788 5.70893C40.6716 4.99214 41.8428 4.65294 44.0444 4.14734L57.446 1.04334C57.67 0.992135 57.9005 1.06254 58.0476 1.22894C58.2012 1.39534 58.2524 1.63214 58.182 1.84974L56.1021 8.24973H58.086C58.4316 8.24973 58.7132 8.53133 58.7132 8.87694V57.0945C58.7132 60.9025 55.6156 63.9937 51.814 63.9937V64.0001ZM1.53565 9.51053V57.1009C1.53565 60.2177 4.07005 62.7457 7.18045 62.7457H51.814C54.9308 62.7457 57.4588 60.2113 57.4588 57.1009V9.51053H55.2381C55.0396 9.51053 54.8476 9.41453 54.7324 9.25453C54.6172 9.09453 54.5788 8.88334 54.6428 8.69133L56.646 2.52174L44.3196 5.37613C42.1692 5.87533 41.0237 6.20173 38.982 6.90573L38.63 7.02733C38.4316 7.09773 38.214 7.05933 38.0476 6.93773L37.766 6.72653C36.0572 5.43373 35.078 4.77454 33.2156 3.63533L29.4972 1.36974L25.7788 3.63533C23.9228 4.76814 22.9501 5.42733 21.2348 6.72013L20.9468 6.93133C20.7805 7.05933 20.5628 7.09133 20.3644 7.02094L20.0124 6.89933C17.99 6.20813 16.7932 5.86253 14.6684 5.37613L2.35485 2.52174L4.35805 8.68493C4.42205 8.87693 4.38365 9.08813 4.26845 9.24813C4.15325 9.40813 3.96125 9.50414 3.76285 9.50414H1.53565V9.51053Z" fill="#6D6D6D"/>
<path d="M51.8136 61.8051H7.18642C4.59442 61.8051 2.48242 59.6931 2.48242 57.1011V10.7651C2.48242 10.5923 2.62322 10.4515 2.79602 10.4515H5.92562L3.94162 4.34589C3.90962 4.23709 3.93522 4.12189 4.00562 4.03869C4.08242 3.95549 4.19762 3.92349 4.30642 3.94269L14.4632 6.29149C16.5496 6.77149 17.7272 7.11069 19.7112 7.78909L20.8504 8.17949L21.7976 7.46909C23.4872 6.19549 24.4472 5.54269 26.2712 4.42909L29.3368 2.56029C29.4392 2.50269 29.5608 2.50269 29.6632 2.56029L32.7288 4.42909C34.5592 5.54269 35.5192 6.19549 37.196 7.46269L38.1496 8.17949L39.2888 7.78909C41.2984 7.09789 42.4248 6.77789 44.5368 6.29149L54.7 3.94269C54.8088 3.91709 54.924 3.95549 55.0008 4.03869C55.0776 4.12189 55.1032 4.23709 55.0712 4.34589L53.0872 10.4579H56.2104C56.3832 10.4579 56.524 10.5987 56.524 10.7715V57.1075C56.524 59.6995 54.412 61.8115 51.82 61.8115L51.8136 61.8051ZM3.10322 11.0787V57.1011C3.10322 59.3475 4.93362 61.1779 7.18002 61.1779H51.8136C54.06 61.1779 55.8904 59.3475 55.8904 57.1011V11.0787H52.6456C52.5432 11.0787 52.4536 11.0339 52.3896 10.9507C52.332 10.8675 52.3128 10.7651 52.3448 10.6691L54.2904 4.67869L44.6712 6.90589C42.5848 7.38589 41.4712 7.70589 39.4872 8.39069L38.188 8.83229C38.092 8.86429 37.9768 8.84509 37.9 8.78749L36.812 7.97469C35.1544 6.72029 34.2008 6.08029 32.3896 4.97309L29.484 3.20669L26.5784 4.97309C24.78 6.06749 23.8264 6.71389 22.156 7.97469L21.0744 8.78749C20.9912 8.85149 20.8824 8.86429 20.7864 8.83229L19.4872 8.39069C17.5224 7.71869 16.364 7.38589 14.3032 6.90589L4.68402 4.68509L6.62962 10.6755C6.66162 10.7715 6.64242 10.8739 6.58482 10.9571C6.52722 11.0403 6.43122 11.0851 6.32882 11.0851H3.08402L3.10322 11.0787Z" fill="#6D6D6D"/>
<path d="M51.3149 35.1232C51.3149 35.1232 50.6301 35.1808 49.4397 35.2448C48.2493 35.296 46.5405 35.4112 44.4989 35.4816C42.4509 35.5648 40.0701 35.6288 37.5101 35.6736C36.2301 35.6928 34.9117 35.7248 33.5677 35.7248C32.2237 35.7312 30.8605 35.7376 29.4973 35.744C28.1341 35.7376 26.7709 35.7312 25.4269 35.7248C24.0829 35.7248 22.7645 35.6864 21.4845 35.6736C18.9309 35.6288 16.5437 35.5648 14.4957 35.4816C12.4477 35.4112 10.7453 35.296 9.55489 35.2448C8.36449 35.1808 7.67969 35.1232 7.67969 35.1232C7.67969 35.1232 8.35809 35.0656 9.55489 35.0016C10.7453 34.9504 12.4541 34.8352 14.4957 34.7648C16.5437 34.6816 18.9245 34.6176 21.4845 34.5728C22.7645 34.5536 24.0829 34.5216 25.4269 34.5216C26.7709 34.5152 28.1341 34.5088 29.4973 34.5024C30.8605 34.5088 32.2237 34.5152 33.5677 34.5216C34.9117 34.5216 36.2301 34.56 37.5101 34.5728C40.0701 34.6176 42.4509 34.6816 44.4989 34.7648C46.5469 34.8352 48.2493 34.9504 49.4397 35.0016C50.6301 35.0656 51.3149 35.1232 51.3149 35.1232Z" fill="#6D6D6D"/>
<path d="M51.3149 57.0241C51.3149 57.0241 50.6301 57.0817 49.4397 57.1457C48.2493 57.1969 46.5405 57.3121 44.4989 57.3825C42.4509 57.4657 40.0701 57.5297 37.5101 57.5745C36.2301 57.5937 34.9117 57.6257 33.5677 57.6257C32.2237 57.6321 30.8605 57.6385 29.4973 57.6449C28.1341 57.6385 26.7709 57.6321 25.4269 57.6257C24.0829 57.6257 22.7645 57.5873 21.4845 57.5745C18.9309 57.5297 16.5437 57.4657 14.4957 57.3825C12.4477 57.3121 10.7453 57.1969 9.55489 57.1457C8.36449 57.0817 7.67969 57.0241 7.67969 57.0241C7.67969 57.0241 8.35809 56.9665 9.55489 56.9025C10.7453 56.8513 12.4541 56.7361 14.4957 56.6657C16.5437 56.5825 18.9245 56.5185 21.4845 56.4737C22.7645 56.4545 24.0829 56.4225 25.4269 56.4225C26.7709 56.4161 28.1341 56.4097 29.4973 56.4033C30.8605 56.4097 32.2237 56.4161 33.5677 56.4225C34.9117 56.4225 36.2301 56.4609 37.5101 56.4737C40.0701 56.5185 42.4509 56.5825 44.4989 56.6657C46.5469 56.7361 48.2493 56.8513 49.4397 56.9025C50.6301 56.9665 51.3149 57.0241 51.3149 57.0241Z" fill="#6D6D6D"/>
<path d="M15.3318 20.6194L16.9245 21.4401C16.9245 21.4401 17.6478 21.854 18.0304 21.0785L21.974 12.8366C21.974 12.8366 22.346 12.1341 21.7375 11.8003L19.9987 10.9518C19.9987 10.9518 19.4597 10.6492 19.1084 11.2856C19.098 11.5429 15.064 19.684 15.064 19.684C15.064 19.684 14.8067 20.3517 15.3318 20.6194ZM41.3232 21.4575L42.9472 20.7099C42.9472 20.7099 43.7227 20.3969 43.3506 19.6144L39.2958 11.4282C39.2958 11.4282 38.9724 10.7014 38.3325 10.9761L36.5972 11.8177C36.5972 11.8177 36.0269 12.0576 36.3051 12.7218C36.4998 12.8888 40.4225 21.0924 40.4225 21.0924C40.4225 21.0924 40.7877 21.7044 41.3232 21.4575ZM19.1884 21.4297L19.724 20.2925L21.6088 22.6712C21.6088 22.6712 22.8329 22.3895 23.2641 23.1546C23.2641 23.1546 23.671 23.6206 23.4937 24.5004C23.4937 24.5004 23.7475 24.6847 23.7649 24.7995C23.7649 24.7995 24.61 24.5978 25.1177 25.1925C25.1177 25.1925 25.5837 25.568 25.528 26.2879C25.528 26.2879 25.8619 26.4305 25.9314 26.6287C25.9314 26.6287 26.7626 26.4235 27.1625 26.9034C27.1625 26.9034 27.6528 27.3659 27.6181 27.9015L28.3866 28.4614C28.3866 28.4614 29.103 28.5205 29.2212 29.0839L29.9098 29.5916C29.9098 29.5916 31.0122 30.0263 31.0748 28.9274L28.484 26.9556C28.484 26.9556 28.178 26.1627 29.1273 26.2844L32.9875 29.0004C32.9875 29.0004 33.6169 29.2682 33.9994 28.67C33.9994 28.67 34.3715 28.1519 33.8429 27.5955L29.7394 24.6291C29.7394 24.6291 29.3777 23.7979 30.3097 23.864L35.1784 27.3103C35.1784 27.3103 35.8704 27.585 36.1625 27.0703C36.1625 27.0703 36.5555 26.5557 36.1625 26.0236L30.7827 22.1044C30.7827 22.1044 30.4592 21.1654 31.4677 21.4054L37.011 25.3559C37.011 25.3559 37.8491 25.6202 38.2247 24.9351C38.2247 24.9351 38.6976 24.2013 38.0612 23.5962L30.2193 16.7524C30.2193 16.7524 28.7622 16.0534 27.8928 17.514C27.8928 17.514 27.7398 19.8891 25.1038 20.3204C25.1038 20.3204 23.3024 20.1813 23.7232 19.0024C23.7232 19.0024 24.2518 18.3034 24.2066 16.8323C24.2066 16.8323 24.2657 15.7752 24.9994 14.8745H22.1757L22.7982 13.5878H27.0617C27.0617 13.5878 28.8144 12.5932 30.1359 12.6871C30.1359 12.6871 31.8573 12.781 32.3198 13.0418C32.3198 13.0418 34.6011 13.7721 35.6235 13.6017L39.4419 21.5132L38.8368 22.8938C38.8368 22.8938 39.9531 24.0414 39.1289 25.4359C38.8994 25.9019 38.3117 26.354 37.3484 26.3957C37.3484 26.3957 37.4944 27.3346 36.8198 27.8632C36.8198 27.8632 36.3225 28.5448 35.1192 28.3571C35.1192 28.3571 35.1888 29.1847 34.3924 29.7377C34.3924 29.7377 33.443 30.5514 31.979 29.5568C31.979 29.5568 31.746 30.4888 30.5775 30.6836C30.5775 30.6836 29.7255 30.8157 29.2282 30.3358C29.2282 30.3358 28.3345 32.019 27.0617 31.0696C27.0617 31.0696 26.2583 30.4019 26.8217 29.4595C26.8217 29.4595 25.7367 31.1739 24.4465 29.8837C24.4465 29.8837 23.7336 29.3447 24.3944 28.2214C24.3944 28.2214 23.372 29.3829 22.2452 28.3292C22.2452 28.3292 21.4767 27.7033 22.0887 26.5348C22.0887 26.5348 21.042 27.7693 19.8248 26.5905C19.8248 26.5905 19.3136 26.1175 19.6092 25.0707L20.7881 23.4606L19.1884 21.4297Z" fill="#6D6D6D"/>
<path d="M11.8174 44.7999V44.293C11.9351 44.2879 12.0324 44.2725 12.1092 44.2469C12.1911 44.2213 12.2526 44.1624 12.2935 44.0703C12.3396 43.9781 12.3627 43.8296 12.3627 43.6248V40.6834C12.3627 40.5452 12.3652 40.412 12.3703 40.284C12.3806 40.156 12.3883 40.0588 12.3934 39.9922C12.3115 39.9973 12.2091 40.0024 12.0862 40.0076C11.9633 40.0076 11.8737 40.0101 11.8174 40.0152V39.4239C12.1809 39.4188 12.5444 39.4162 12.9079 39.4162C13.2715 39.4162 13.635 39.4136 13.9985 39.4085C14.4491 39.4034 14.8407 39.4546 15.1735 39.5621C15.5063 39.6696 15.7623 39.8437 15.9415 40.0844C16.1207 40.325 16.2052 40.6501 16.195 41.0597C16.1899 41.2748 16.1361 41.4796 16.0337 41.6741C15.9364 41.8687 15.7879 42.0402 15.5883 42.1887C15.3937 42.3372 15.1454 42.4549 14.8433 42.542C14.9406 42.5829 15.0353 42.6495 15.1275 42.7416C15.2247 42.8338 15.3067 42.9311 15.3732 43.0335L15.7342 43.5711C15.8468 43.7452 15.9467 43.8834 16.0337 43.9858C16.1207 44.0882 16.2078 44.165 16.2948 44.2162C16.3819 44.2623 16.4817 44.2879 16.5943 44.293V44.7999H15.3271C15.235 44.7333 15.1428 44.6386 15.0507 44.5157C14.9636 44.3877 14.8689 44.2418 14.7665 44.078L14.1982 43.1564C14.1316 43.054 14.0727 42.9669 14.0215 42.8952C13.9755 42.8236 13.9268 42.7621 13.8756 42.7109C13.7937 42.7109 13.7246 42.7109 13.6683 42.7109C13.6119 42.7109 13.5479 42.7109 13.4763 42.7109V43.5327C13.4763 43.676 13.4737 43.8117 13.4686 43.9397C13.4635 44.0677 13.4558 44.165 13.4455 44.2316C13.5019 44.2264 13.5735 44.2239 13.6606 44.2239C13.7476 44.2188 13.8321 44.2162 13.914 44.2162C14.0011 44.2111 14.0625 44.2085 14.0983 44.2085V44.7999H11.8174ZM13.8449 42.158C14.1316 42.158 14.362 42.117 14.5361 42.0351C14.7102 41.948 14.8356 41.82 14.9124 41.6511C14.9943 41.477 15.0353 41.2594 15.0353 40.9983C15.0353 40.7525 14.9969 40.5605 14.9201 40.4223C14.8433 40.2789 14.746 40.174 14.6283 40.1074C14.5156 40.0357 14.4004 39.9922 14.2827 39.9768C14.1649 39.9564 14.0676 39.9461 13.9908 39.9461C13.8833 39.9461 13.7911 39.9589 13.7143 39.9845C13.6375 40.0101 13.5787 40.0664 13.5377 40.1535C13.4967 40.2405 13.4763 40.3736 13.4763 40.5528V42.1272C13.5326 42.1324 13.5915 42.14 13.6529 42.1503C13.7143 42.1554 13.7783 42.158 13.8449 42.158Z" fill="#6D6D6D"/>
<path d="M19.6936 42.949C19.6936 42.734 19.6603 42.5804 19.5937 42.4882C19.5272 42.3909 19.435 42.3295 19.3173 42.3039C19.2046 42.2783 19.0792 42.268 18.9409 42.2732L18.7413 42.2808V43.5404C18.7413 43.6786 18.7387 43.8092 18.7336 43.932C18.7285 44.0549 18.7208 44.1496 18.7105 44.2162H19.7397C19.8933 44.2162 20.0417 44.1829 20.1851 44.1164C20.3285 44.0447 20.4462 43.9295 20.5384 43.7708C20.6305 43.6069 20.6766 43.3868 20.6766 43.1103H21.1758L21.1374 44.7999H17.0824V44.293C17.2001 44.2879 17.2974 44.2725 17.3742 44.2469C17.4561 44.2213 17.5176 44.1624 17.5585 44.0703C17.6046 43.9781 17.6277 43.8296 17.6277 43.6248V40.6834C17.6277 40.5452 17.6302 40.412 17.6353 40.284C17.6456 40.156 17.6533 40.0588 17.6584 39.9922C17.5765 39.9973 17.4741 40.0024 17.3512 40.0076C17.2283 40.0076 17.1387 40.0101 17.0824 40.0152V39.4239H20.9224L20.9685 40.9138H20.4616C20.4616 40.6322 20.4129 40.4197 20.3157 40.2764C20.2184 40.133 20.0981 40.0383 19.9547 39.9922C19.8113 39.941 19.6705 39.918 19.5323 39.9231L19.2558 39.9308C19.1483 39.9308 19.0561 39.9461 18.9793 39.9768C18.9025 40.0024 18.8437 40.0639 18.8027 40.1612C18.7617 40.2533 18.7413 40.3992 18.7413 40.5989V41.7509H19.6398L19.6091 41.0828H20.2005V42.949H19.6936Z" fill="#6D6D6D"/>
<path d="M21.8749 44.7999V44.293C21.9926 44.2879 22.0899 44.2725 22.1667 44.2469C22.2486 44.2213 22.3101 44.1624 22.351 44.0703C22.3971 43.9781 22.4202 43.8296 22.4202 43.6248V40.6834C22.4202 40.5452 22.4227 40.412 22.4278 40.284C22.4381 40.156 22.4458 40.0588 22.4509 39.9922C22.369 39.9973 22.2666 40.0024 22.1437 40.0076C22.0208 40.0076 21.9312 40.0101 21.8749 40.0152V39.4239H24.079V39.9308C23.9664 39.9359 23.8691 39.9512 23.7872 39.9768C23.7053 40.0024 23.6413 40.0613 23.5952 40.1535C23.5542 40.2405 23.5338 40.389 23.5338 40.5989V43.5404C23.5338 43.6786 23.5312 43.8092 23.5261 43.932C23.521 44.0549 23.5133 44.1496 23.503 44.2162H24.5322C24.8342 44.2111 25.0698 44.1061 25.2387 43.9013C25.4128 43.6914 25.4998 43.3765 25.4998 42.9567H26.0144L25.9683 44.7999H21.8749Z" fill="#6D6D6D"/>
<path d="M28.714 39.9308C28.6014 39.9359 28.5041 39.9512 28.4222 39.9768C28.3403 40.0024 28.2763 40.0613 28.2302 40.1535C28.1892 40.2405 28.1688 40.389 28.1688 40.5989V43.5404C28.1688 43.6786 28.1662 43.8117 28.1611 43.9397C28.156 44.0677 28.1483 44.165 28.138 44.2316C28.22 44.2213 28.3224 44.2162 28.4452 44.2162C28.5732 44.2111 28.6628 44.2085 28.714 44.2085V44.7999H26.5099V44.293C26.6276 44.2879 26.7249 44.2725 26.8017 44.2469C26.8836 44.2213 26.9451 44.1624 26.986 44.0703C27.0321 43.9781 27.0552 43.8296 27.0552 43.6248V40.6834C27.0552 40.5452 27.0577 40.412 27.0628 40.284C27.0731 40.156 27.0808 40.0588 27.0859 39.9922C27.004 39.9973 26.9016 40.0024 26.7787 40.0076C26.6558 40.0076 26.5662 40.0101 26.5099 40.0152V39.4239H28.714V39.9308Z" fill="#6D6D6D"/>
<path d="M29.1266 44.7999V44.27C29.27 44.27 29.3852 44.229 29.4722 44.1471C29.5592 44.0652 29.6309 43.9576 29.6872 43.8245C29.7487 43.6914 29.8076 43.548 29.8639 43.3944L31.3615 39.2856H31.8991L33.5349 43.4712C33.5656 43.548 33.6066 43.6658 33.6578 43.8245C33.709 43.9781 33.7397 44.1138 33.75 44.2316C33.837 44.2213 33.9189 44.2162 33.9957 44.2162C34.0776 44.2111 34.1442 44.2085 34.1954 44.2085V44.7999H32.1295V44.293C32.2728 44.293 32.3701 44.2648 32.4213 44.2085C32.4776 44.1471 32.5032 44.0652 32.4981 43.9628C32.493 43.8604 32.4648 43.7452 32.4136 43.6172L32.26 43.1948L30.5935 43.2255L30.4706 43.5864C30.445 43.653 30.4066 43.7528 30.3554 43.886C30.3093 44.014 30.2658 44.1215 30.2248 44.2085C30.3068 44.1983 30.404 44.1932 30.5167 44.1932C30.6344 44.188 30.7189 44.1855 30.7701 44.1855V44.7999H29.1266ZM30.7855 42.6495H32.068L31.7148 41.6895C31.6482 41.5052 31.5893 41.3208 31.5381 41.1365C31.4869 40.9471 31.4485 40.7807 31.4229 40.6373H31.4152C31.3948 40.7244 31.364 40.8549 31.3231 41.029C31.2821 41.2031 31.2181 41.4104 31.1311 41.6511L30.7855 42.6495Z" fill="#6D6D6D"/>
<path d="M34.6099 44.7999V44.293C34.7276 44.2879 34.8249 44.2725 34.9017 44.2469C34.9836 44.2213 35.0451 44.1624 35.086 44.0703C35.1321 43.9781 35.1552 43.8296 35.1552 43.6248V40.6834C35.1552 40.5452 35.1577 40.412 35.1628 40.284C35.1731 40.156 35.1808 40.0588 35.1859 39.9922C35.104 39.9973 35.0016 40.0024 34.8787 40.0076C34.7558 40.0076 34.6662 40.0101 34.6099 40.0152V39.4239C34.9632 39.4188 35.3164 39.4162 35.6697 39.4162C36.0281 39.4162 36.384 39.4136 36.7372 39.4085C37.3516 39.4034 37.838 39.5186 38.1964 39.7541C38.56 39.9845 38.7289 40.3352 38.7033 40.8063C38.6931 40.9548 38.647 41.1007 38.5651 41.244C38.4832 41.3823 38.3603 41.5077 38.1964 41.6204C38.0377 41.733 37.838 41.8226 37.5974 41.8892V41.8968C38.1094 41.9788 38.4857 42.1503 38.7264 42.4114C38.967 42.6674 39.0873 42.9541 39.0873 43.2716C39.0873 43.6044 39.0054 43.886 38.8416 44.1164C38.6828 44.3416 38.4627 44.5132 38.1811 44.6309C37.8995 44.7436 37.5795 44.7999 37.2211 44.7999H34.6099ZM36.238 44.2546C36.3302 44.2546 36.4172 44.2546 36.4992 44.2546C36.5811 44.2546 36.663 44.2546 36.7449 44.2546C36.8268 44.2495 36.9062 44.2469 36.983 44.2469C37.2953 44.2316 37.5232 44.1317 37.6665 43.9474C37.8099 43.7631 37.8816 43.5301 37.8816 43.2485C37.8816 43.013 37.8329 42.8287 37.7356 42.6956C37.6384 42.5573 37.5129 42.46 37.3593 42.4037C37.2108 42.3474 37.0547 42.3192 36.8908 42.3192C36.7628 42.3192 36.6528 42.3192 36.5606 42.3192C36.4684 42.3192 36.3712 42.3218 36.2688 42.3269V43.5788C36.2688 43.717 36.2662 43.8476 36.2611 43.9704C36.256 44.0933 36.2483 44.188 36.238 44.2546ZM36.2688 41.7816L36.6681 41.774C36.8832 41.7688 37.0521 41.7202 37.175 41.628C37.303 41.5359 37.3926 41.413 37.4438 41.2594C37.5001 41.1007 37.5283 40.9292 37.5283 40.7448C37.5283 40.54 37.4873 40.3813 37.4054 40.2687C37.3235 40.1509 37.2211 40.0664 37.0982 40.0152C36.9753 39.964 36.8473 39.941 36.7142 39.9461C36.6323 39.9461 36.558 39.9589 36.4915 39.9845C36.4249 40.0101 36.3712 40.069 36.3302 40.1612C36.2892 40.2482 36.2688 40.3916 36.2688 40.5912V41.7816Z" fill="#6D6D6D"/>
<path d="M39.6049 44.7999V44.293C39.7226 44.2879 39.8199 44.2725 39.8967 44.2469C39.9786 44.2213 40.0401 44.1624 40.081 44.0703C40.1271 43.9781 40.1502 43.8296 40.1502 43.6248V40.6834C40.1502 40.5452 40.1527 40.412 40.1578 40.284C40.1681 40.156 40.1758 40.0588 40.1809 39.9922C40.099 39.9973 39.9966 40.0024 39.8737 40.0076C39.7508 40.0076 39.6612 40.0101 39.6049 40.0152V39.4239H41.809V39.9308C41.6964 39.9359 41.5991 39.9512 41.5172 39.9768C41.4353 40.0024 41.3713 40.0613 41.3252 40.1535C41.2842 40.2405 41.2638 40.389 41.2638 40.5989V43.5404C41.2638 43.6786 41.2612 43.8092 41.2561 43.932C41.251 44.0549 41.2433 44.1496 41.233 44.2162H42.2622C42.5642 44.2111 42.7998 44.1061 42.9687 43.9013C43.1428 43.6914 43.2298 43.3765 43.2298 42.9567H43.7444L43.6983 44.7999H39.6049Z" fill="#6D6D6D"/>
<path d="M46.8511 42.949C46.8511 42.734 46.8178 42.5804 46.7512 42.4882C46.6847 42.3909 46.5925 42.3295 46.4748 42.3039C46.3621 42.2783 46.2367 42.268 46.0984 42.2732L45.8988 42.2808V43.5404C45.8988 43.6786 45.8962 43.8092 45.8911 43.932C45.886 44.0549 45.8783 44.1496 45.868 44.2162H46.8972C47.0508 44.2162 47.1992 44.1829 47.3426 44.1164C47.486 44.0447 47.6037 43.9295 47.6959 43.7708C47.788 43.6069 47.8341 43.3868 47.8341 43.1103H48.3333L48.2949 44.7999H44.2399V44.293C44.3576 44.2879 44.4549 44.2725 44.5317 44.2469C44.6136 44.2213 44.6751 44.1624 44.716 44.0703C44.7621 43.9781 44.7852 43.8296 44.7852 43.6248V40.6834C44.7852 40.5452 44.7877 40.412 44.7928 40.284C44.8031 40.156 44.8108 40.0588 44.8159 39.9922C44.734 39.9973 44.6316 40.0024 44.5087 40.0076C44.3858 40.0076 44.2962 40.0101 44.2399 40.0152V39.4239H48.0799L48.126 40.9138H47.6191C47.6191 40.6322 47.5704 40.4197 47.4732 40.2764C47.3759 40.133 47.2556 40.0383 47.1122 39.9922C46.9688 39.941 46.828 39.918 46.6898 39.9231L46.4133 39.9308C46.3058 39.9308 46.2136 39.9461 46.1368 39.9768C46.06 40.0024 46.0012 40.0639 45.9602 40.1612C45.9192 40.2533 45.8988 40.3992 45.8988 40.5989V41.7509H46.7973L46.7666 41.0828H47.358V42.949H46.8511Z" fill="#6D6D6D"/>
<path d="M12.4924 51.973C12.6101 51.9679 12.7074 51.9525 12.7842 51.9269C12.8661 51.9013 12.9276 51.8424 12.9685 51.7503C13.0146 51.6581 13.0377 51.5096 13.0377 51.3048V48.3634C13.0377 48.2252 13.0402 48.092 13.0453 47.964C13.0556 47.836 13.0633 47.7388 13.0684 47.6722C12.9865 47.6773 12.8841 47.6824 12.7612 47.6876C12.6383 47.6876 12.5487 47.6901 12.4924 47.6952V47.1039C12.8559 47.0988 13.2194 47.0962 13.5829 47.0962C13.9465 47.0962 14.31 47.0936 14.6735 47.0885C15.1241 47.0834 15.5157 47.1423 15.8485 47.2652C16.1865 47.388 16.445 47.5775 16.6242 47.8335C16.8085 48.0895 16.8956 48.4223 16.8853 48.8319C16.8802 49.0367 16.8316 49.2389 16.7394 49.4386C16.6473 49.6332 16.5116 49.8124 16.3324 49.9762C16.1532 50.1349 15.9279 50.2655 15.6565 50.3679C15.3852 50.4703 15.0677 50.5266 14.7042 50.5368C14.5916 50.542 14.4917 50.5445 14.4047 50.5445C14.3228 50.5445 14.2383 50.542 14.1513 50.5368V51.2127C14.1513 51.356 14.1487 51.4917 14.1436 51.6197C14.1385 51.7477 14.1308 51.845 14.1205 51.9116C14.1769 51.9064 14.2485 51.9039 14.3356 51.9039C14.4226 51.8988 14.5071 51.8962 14.589 51.8962C14.6761 51.8911 14.7375 51.8885 14.7733 51.8885V52.4799H12.4924V51.973ZM14.1513 49.9608C14.2076 49.966 14.2639 49.9711 14.3202 49.9762C14.3765 49.9813 14.4354 49.9839 14.4969 49.9839C14.7785 49.9839 15.0063 49.9378 15.1804 49.8456C15.3596 49.7484 15.4901 49.6101 15.5721 49.4309C15.654 49.2466 15.6949 49.0239 15.6949 48.7628C15.6949 48.5068 15.6591 48.302 15.5874 48.1484C15.5209 47.9948 15.4338 47.8821 15.3263 47.8104C15.2188 47.7336 15.1061 47.685 14.9884 47.6645C14.8706 47.6389 14.7631 47.6261 14.6658 47.6261C14.5583 47.6261 14.4661 47.6389 14.3893 47.6645C14.3125 47.6901 14.2537 47.7464 14.2127 47.8335C14.1717 47.9205 14.1513 48.0536 14.1513 48.2328V49.9608Z" fill="#6D6D6D"/>
<path d="M16.6166 52.4799V51.95C16.76 51.95 16.8752 51.909 16.9622 51.8271C17.0492 51.7452 17.1209 51.6376 17.1772 51.5045C17.2387 51.3714 17.2976 51.228 17.3539 51.0744L18.8515 46.9656H19.3891L21.0249 51.1512C21.0556 51.228 21.0966 51.3458 21.1478 51.5045C21.199 51.6581 21.2297 51.7938 21.24 51.9116C21.327 51.9013 21.4089 51.8962 21.4857 51.8962C21.5676 51.8911 21.6342 51.8885 21.6854 51.8885V52.4799H19.6195V51.973C19.7628 51.973 19.8601 51.9448 19.9113 51.8885C19.9676 51.8271 19.9932 51.7452 19.9881 51.6428C19.983 51.5404 19.9548 51.4252 19.9036 51.2972L19.75 50.8748L18.0835 50.9055L17.9606 51.2664C17.935 51.333 17.8966 51.4328 17.8454 51.566C17.7993 51.694 17.7558 51.8015 17.7148 51.8885C17.7968 51.8783 17.894 51.8732 18.0067 51.8732C18.1244 51.868 18.2089 51.8655 18.2601 51.8655V52.4799H16.6166ZM18.2755 50.3295H19.558L19.2048 49.3695C19.1382 49.1852 19.0793 49.0008 19.0281 48.8165C18.9769 48.6271 18.9385 48.4607 18.9129 48.3173H18.9052C18.8848 48.4044 18.854 48.5349 18.8131 48.709C18.7721 48.8831 18.7081 49.0904 18.6211 49.3311L18.2755 50.3295Z" fill="#6D6D6D"/>
<path d="M22.0999 52.4799V51.973C22.2176 51.9679 22.3149 51.9525 22.3917 51.9269C22.4736 51.9013 22.5351 51.8424 22.576 51.7503C22.6221 51.6581 22.6452 51.5096 22.6452 51.3048V48.3634C22.6452 48.2252 22.6477 48.092 22.6528 47.964C22.6631 47.836 22.6708 47.7388 22.6759 47.6722C22.594 47.6773 22.4916 47.6824 22.3687 47.6876C22.2458 47.6876 22.1562 47.6901 22.0999 47.6952V47.1039C22.4634 47.0988 22.8269 47.0962 23.1904 47.0962C23.554 47.0962 23.9175 47.0936 24.281 47.0885C24.7316 47.0834 25.1232 47.1346 25.456 47.2421C25.7888 47.3496 26.0448 47.5237 26.224 47.7644C26.4032 48.005 26.4877 48.3301 26.4775 48.7397C26.4724 48.9548 26.4186 49.1596 26.3162 49.3541C26.2189 49.5487 26.0704 49.7202 25.8708 49.8687C25.6762 50.0172 25.4279 50.1349 25.1258 50.222C25.2231 50.2629 25.3178 50.3295 25.41 50.4216C25.5072 50.5138 25.5892 50.6111 25.6557 50.7135L26.0167 51.2511C26.1293 51.4252 26.2292 51.5634 26.3162 51.6658C26.4032 51.7682 26.4903 51.845 26.5773 51.8962C26.6644 51.9423 26.7642 51.9679 26.8768 51.973V52.4799H25.6096C25.5175 52.4133 25.4253 52.3186 25.3332 52.1957C25.2461 52.0677 25.1514 51.9218 25.049 51.758L24.4807 50.8364C24.4141 50.734 24.3552 50.6469 24.304 50.5752C24.258 50.5036 24.2093 50.4421 24.1581 50.3909C24.0762 50.3909 24.0071 50.3909 23.9508 50.3909C23.8944 50.3909 23.8304 50.3909 23.7588 50.3909V51.2127C23.7588 51.356 23.7562 51.4917 23.7511 51.6197C23.746 51.7477 23.7383 51.845 23.728 51.9116C23.7844 51.9064 23.856 51.9039 23.9431 51.9039C24.0301 51.8988 24.1146 51.8962 24.1965 51.8962C24.2836 51.8911 24.345 51.8885 24.3808 51.8885V52.4799H22.0999ZM24.1274 49.838C24.4141 49.838 24.6445 49.797 24.8186 49.7151C24.9927 49.628 25.1181 49.5 25.1949 49.3311C25.2768 49.157 25.3178 48.9394 25.3178 48.6783C25.3178 48.4325 25.2794 48.2405 25.2026 48.1023C25.1258 47.9589 25.0285 47.854 24.9108 47.7874C24.7981 47.7157 24.6829 47.6722 24.5652 47.6568C24.4474 47.6364 24.3501 47.6261 24.2733 47.6261C24.1658 47.6261 24.0736 47.6389 23.9968 47.6645C23.92 47.6901 23.8612 47.7464 23.8202 47.8335C23.7792 47.9205 23.7588 48.0536 23.7588 48.2328V49.8072C23.8151 49.8124 23.874 49.82 23.9354 49.8303C23.9968 49.8354 24.0608 49.838 24.1274 49.838Z" fill="#6D6D6D"/>
<path d="M31.3354 48.8396C31.3354 48.5631 31.297 48.3352 31.2202 48.156C31.1434 47.9717 31.0334 47.836 30.89 47.749C30.7518 47.6568 30.5854 47.6133 30.3908 47.6184H30.0222V51.2204C30.0222 51.3586 30.0196 51.4917 30.0145 51.6197C30.0094 51.7477 30.0017 51.845 29.9914 51.9116C30.0785 51.9013 30.1886 51.8962 30.3217 51.8962C30.4599 51.8911 30.5546 51.8885 30.6058 51.8885V52.4799H28.3633V51.973C28.481 51.9679 28.5783 51.9525 28.6551 51.9269C28.737 51.9013 28.7985 51.8424 28.8394 51.7503C28.8855 51.6581 28.9086 51.5096 28.9086 51.3048V47.6261H28.5553C28.2634 47.6312 28.033 47.7311 27.8641 47.9256C27.6951 48.1202 27.6106 48.4248 27.6106 48.8396H27.1038L27.1422 47.1039H31.7962L31.8423 48.8396H31.3354Z" fill="#6D6D6D"/>
<path d="M36.4456 52.5567L33.988 49.4156C33.9215 49.3285 33.8524 49.2364 33.7807 49.1391C33.709 49.0418 33.6373 48.942 33.5656 48.8396H33.558L33.5733 51.2204C33.5733 51.3586 33.5708 51.4917 33.5656 51.6197C33.5605 51.7477 33.5528 51.845 33.5426 51.9116C33.6245 51.9013 33.7269 51.8962 33.8498 51.8962C33.9778 51.8911 34.0674 51.8885 34.1186 51.8885V52.4799H32.3676V51.973C32.4853 51.9679 32.5826 51.9525 32.6594 51.9269C32.7413 51.9013 32.8028 51.8424 32.8437 51.7503C32.8898 51.6581 32.9128 51.5096 32.9128 51.3048L32.8975 48.3634C32.8975 48.2252 32.9 48.092 32.9052 47.964C32.9103 47.836 32.918 47.7388 32.9282 47.6722C32.8463 47.6773 32.7413 47.6824 32.6133 47.6876C32.4904 47.6876 32.4008 47.6901 32.3445 47.6952V47.1039H33.5503L35.9004 50.0684C36.0284 50.2322 36.1333 50.373 36.2152 50.4908C36.3023 50.6085 36.3765 50.7109 36.438 50.798H36.4456V48.3634C36.4456 48.2252 36.4482 48.092 36.4533 47.964C36.4584 47.836 36.4636 47.7388 36.4687 47.6722C36.3868 47.6773 36.2844 47.6824 36.1615 47.6876C36.0386 47.6876 35.949 47.6901 35.8927 47.6952V47.1039H37.6437V47.6108C37.5311 47.6159 37.4338 47.6312 37.3519 47.6568C37.27 47.6824 37.206 47.7413 37.1599 47.8335C37.1189 47.9205 37.0984 48.069 37.0984 48.2789V52.5567H36.4456Z" fill="#6D6D6D"/>
<path d="M40.9111 50.629C40.9111 50.414 40.8778 50.2604 40.8112 50.1682C40.7447 50.0709 40.6525 50.0095 40.5348 49.9839C40.4221 49.9583 40.2967 49.948 40.1584 49.9532L39.9588 49.9608V51.2204C39.9588 51.3586 39.9562 51.4892 39.9511 51.612C39.946 51.7349 39.9383 51.8296 39.928 51.8962H40.9572C41.1108 51.8962 41.2592 51.8629 41.4026 51.7964C41.546 51.7247 41.6637 51.6095 41.7559 51.4508C41.848 51.2869 41.8941 51.0668 41.8941 50.7903H42.3933L42.3549 52.4799H38.2999V51.973C38.4176 51.9679 38.5149 51.9525 38.5917 51.9269C38.6736 51.9013 38.7351 51.8424 38.776 51.7503C38.8221 51.6581 38.8452 51.5096 38.8452 51.3048V48.3634C38.8452 48.2252 38.8477 48.092 38.8528 47.964C38.8631 47.836 38.8708 47.7388 38.8759 47.6722C38.794 47.6773 38.6916 47.6824 38.5687 47.6876C38.4458 47.6876 38.3562 47.6901 38.2999 47.6952V47.1039H42.1399L42.186 48.5938H41.6791C41.6791 48.3122 41.6304 48.0997 41.5332 47.9564C41.4359 47.813 41.3156 47.7183 41.1722 47.6722C41.0288 47.621 40.888 47.598 40.7498 47.6031L40.4733 47.6108C40.3658 47.6108 40.2736 47.6261 40.1968 47.6568C40.12 47.6824 40.0612 47.7439 40.0202 47.8412C39.9792 47.9333 39.9588 48.0792 39.9588 48.2789V49.4309H40.8573L40.8266 48.7628H41.418V50.629H40.9111Z" fill="#6D6D6D"/>
<path d="M43.0924 52.4799V51.973C43.2101 51.9679 43.3074 51.9525 43.3842 51.9269C43.4661 51.9013 43.5276 51.8424 43.5685 51.7503C43.6146 51.6581 43.6377 51.5096 43.6377 51.3048V48.3634C43.6377 48.2252 43.6402 48.092 43.6453 47.964C43.6556 47.836 43.6633 47.7388 43.6684 47.6722C43.5865 47.6773 43.4841 47.6824 43.3612 47.6876C43.2383 47.6876 43.1487 47.6901 43.0924 47.6952V47.1039C43.4559 47.0988 43.8194 47.0962 44.1829 47.0962C44.5465 47.0962 44.91 47.0936 45.2735 47.0885C45.7241 47.0834 46.1157 47.1346 46.4485 47.2421C46.7813 47.3496 47.0373 47.5237 47.2165 47.7644C47.3957 48.005 47.4802 48.3301 47.47 48.7397C47.4649 48.9548 47.4111 49.1596 47.3087 49.3541C47.2114 49.5487 47.0629 49.7202 46.8633 49.8687C46.6687 50.0172 46.4204 50.1349 46.1183 50.222C46.2156 50.2629 46.3103 50.3295 46.4025 50.4216C46.4997 50.5138 46.5817 50.6111 46.6482 50.7135L47.0092 51.2511C47.1218 51.4252 47.2217 51.5634 47.3087 51.6658C47.3957 51.7682 47.4828 51.845 47.5698 51.8962C47.6569 51.9423 47.7567 51.9679 47.8693 51.973V52.4799H46.6021C46.51 52.4133 46.4178 52.3186 46.3257 52.1957C46.2386 52.0677 46.1439 51.9218 46.0415 51.758L45.4732 50.8364C45.4066 50.734 45.3477 50.6469 45.2965 50.5752C45.2505 50.5036 45.2018 50.4421 45.1506 50.3909C45.0687 50.3909 44.9996 50.3909 44.9433 50.3909C44.8869 50.3909 44.8229 50.3909 44.7513 50.3909V51.2127C44.7513 51.356 44.7487 51.4917 44.7436 51.6197C44.7385 51.7477 44.7308 51.845 44.7205 51.9116C44.7769 51.9064 44.8485 51.9039 44.9356 51.9039C45.0226 51.8988 45.1071 51.8962 45.189 51.8962C45.2761 51.8911 45.3375 51.8885 45.3733 51.8885V52.4799H43.0924ZM45.1199 49.838C45.4066 49.838 45.637 49.797 45.8111 49.7151C45.9852 49.628 46.1106 49.5 46.1874 49.3311C46.2693 49.157 46.3103 48.9394 46.3103 48.6783C46.3103 48.4325 46.2719 48.2405 46.1951 48.1023C46.1183 47.9589 46.021 47.854 45.9033 47.7874C45.7906 47.7157 45.6754 47.6722 45.5577 47.6568C45.4399 47.6364 45.3426 47.6261 45.2658 47.6261C45.1583 47.6261 45.0661 47.6389 44.9893 47.6645C44.9125 47.6901 44.8537 47.7464 44.8127 47.8335C44.7717 47.9205 44.7513 48.0536 44.7513 48.2328V49.8072C44.8076 49.8124 44.8665 49.82 44.9279 49.8303C44.9893 49.8354 45.0533 49.838 45.1199 49.838Z" fill="#6D6D6D"/>
</g>
<defs>
<clipPath id="clip0_712_5268">
<rect width="58.4384" height="64" fill="white" transform="translate(0.28125)"/>
</clipPath>
</defs>
</svg>
