<svg width="42" height="39" viewBox="0 0 42 39" fill="none" xmlns="http://www.w3.org/2000/svg">
<path d="M29.5909 25.8375L35.0509 29.133L33.6191 31.512L26.7273 27.3V17.55H29.5909V25.8375ZM42 25.35C42 32.8965 36.0245 39 28.6364 39C24.0927 39 20.1027 36.6795 17.6782 33.15H5.72727V17.55H0L19.0909 0L32.4545 12.2655C37.9718 13.9425 42 19.1685 42 25.35ZM15.8264 29.25C15.4827 28.0215 15.2727 26.715 15.2727 25.35C15.2727 18.603 20.0455 13.026 26.3455 11.9145L19.0909 5.2455L9.54545 14.0205V29.25H15.8264ZM38.1818 25.35C38.1818 19.968 33.9055 15.6 28.6364 15.6C23.3673 15.6 19.0909 19.968 19.0909 25.35C19.0909 30.732 23.3673 35.1 28.6364 35.1C33.9055 35.1 38.1818 30.732 38.1818 25.35Z" fill="#E6B323"/>
</svg>
