<svg width="48" height="50" viewBox="0 0 48 50" fill="none" xmlns="http://www.w3.org/2000/svg">
<g id="Group">
<g id="Group_2">
<g id="Group_3">
<g id="Group_4">
<path id="Vector" d="M46.4151 22.1394L44.4447 20.4114C43.967 19.9919 43.7164 19.3646 43.7898 18.7318C43.8466 18.2402 43.8771 17.7403 43.8771 17.2335C43.8771 16.7268 43.8466 16.2255 43.7898 15.7339C43.7165 15.1012 43.9671 14.4753 44.4447 14.0543L46.4151 12.3263C47.0839 11.7406 47.2335 10.7575 46.771 9.99863L44.6649 6.53833C44.2011 5.77951 43.2595 5.46245 42.4315 5.78647L39.9765 6.75157C39.3825 6.98422 38.7137 6.90255 38.1847 6.54529C37.6156 6.16314 37.0133 5.82392 36.3846 5.53314C35.8072 5.26725 35.3918 4.73971 35.2825 4.11245L34.8284 1.5148C34.6745 0.639706 33.9143 0 33.0253 0H28.9738C28.0848 0 27.3246 0.639706 27.1709 1.5148L26.7168 4.11245C26.6074 4.73971 26.192 5.26725 25.6146 5.53314C24.986 5.82392 24.3837 6.16314 23.8145 6.54529C23.2856 6.90255 22.6168 6.98422 22.0228 6.75157L19.5678 5.78647C18.7397 5.46245 17.7982 5.77951 17.3343 6.53833L15.2283 9.99863C14.7658 10.7575 14.9153 11.7406 15.5841 12.3263L17.5545 14.0543C18.0323 14.4753 18.2829 15.1011 18.2094 15.7339C18.1527 16.2255 18.1222 16.7268 18.1222 17.2335C18.1222 17.7403 18.1527 18.2402 18.2094 18.7318C18.2828 19.3645 18.0322 19.9918 17.5545 20.4114L15.5841 22.1394C14.9154 22.7265 14.7658 23.7082 15.2283 24.4671L17.3343 27.9274C17.7982 28.6875 18.7397 29.0032 19.5678 28.6792L22.0228 27.7155C22.6168 27.4815 23.2856 27.5631 23.8145 27.9204C24.3837 28.3039 24.986 28.6432 25.6146 28.9325C26.1921 29.1984 26.6075 29.7274 26.7168 30.3546L27.1709 32.9509C27.3246 33.8274 28.0848 34.4657 28.9738 34.4657H33.0253C33.9142 34.4657 34.6744 33.8274 34.8282 32.9509L35.2823 30.3546C35.3917 29.7274 35.8071 29.1984 36.3844 28.9325C37.0131 28.6431 37.6154 28.3039 38.1845 27.9204C38.7135 27.5631 39.3823 27.4815 39.9763 27.7155L42.4313 28.6792C43.2593 29.0032 44.2009 28.6875 44.6647 27.9274L46.7708 24.4671C47.2335 23.7082 47.0839 22.7266 46.4151 22.1394ZM30.9996 23.9741C27.2763 23.9741 24.2577 20.9556 24.2577 17.2335C24.2577 13.5102 27.2762 10.4916 30.9996 10.4916C34.7231 10.4916 37.7416 13.5101 37.7416 17.2335C37.7415 20.9556 34.723 23.9741 30.9996 23.9741Z" fill="url(#paint0_linear_332_5643)"/>
<path id="Vector_2" d="M17.5545 20.4114L15.5841 22.1394C14.9154 22.7265 14.7658 23.7082 15.2282 24.4671L17.3343 27.9274C17.7981 28.6876 18.7397 29.0032 19.5677 28.6792L22.0227 27.7155C22.6168 27.4815 23.2856 27.5631 23.8145 27.9204L18.2094 18.7318C18.2828 19.3646 18.0323 19.9919 17.5545 20.4114Z" fill="url(#paint1_linear_332_5643)"/>
<path id="Vector_3" d="M44.4448 14.0544L46.4152 12.3264C47.0839 11.7407 47.2335 10.7576 46.7711 9.99873L44.665 6.53844C44.2012 5.77961 43.2596 5.46255 42.4316 5.78657L39.9766 6.75167C39.3826 6.98432 38.7137 6.90265 38.1848 6.5454L43.7899 15.734C43.7165 15.1012 43.9671 14.4753 44.4448 14.0544Z" fill="url(#paint2_linear_332_5643)"/>
<path id="Vector_4" d="M39.9764 27.7155L42.4314 28.6792C43.2595 29.0032 44.201 28.6876 44.6649 27.9274L46.7709 24.4671C47.2334 23.7082 47.0839 22.7266 46.4151 22.1394L44.4447 20.4114C43.9669 19.9919 43.7163 19.3646 43.7897 18.7318L38.1846 27.9204C38.7136 27.5631 39.3824 27.4815 39.9764 27.7155Z" fill="url(#paint3_linear_332_5643)"/>
<path id="Vector_5" d="M26.7169 30.3547L27.1711 32.951C27.3248 33.8275 28.0849 34.4658 28.974 34.4658H33.0255C33.9145 34.4658 34.6746 33.8275 34.8284 32.951L35.2826 30.3547C35.392 29.7275 35.8074 29.1985 36.3847 28.9326H25.6147C26.1921 29.1984 26.6075 29.7275 26.7169 30.3547Z" fill="url(#paint4_linear_332_5643)"/>
<path id="Vector_6" d="M30.9997 6.70735C25.1868 6.70735 20.4734 11.4194 20.4734 17.2336C20.4734 23.0465 25.1868 27.7584 30.9997 27.7584C36.8125 27.7584 41.5259 23.0464 41.5259 17.2336C41.5258 11.4193 36.8124 6.70735 30.9997 6.70735ZM30.9997 23.9741C27.2763 23.9741 24.2577 20.9556 24.2577 17.2335C24.2577 13.5102 27.2762 10.4916 30.9997 10.4916C34.7231 10.4916 37.7416 13.5101 37.7416 17.2335C37.7415 20.9556 34.723 23.9741 30.9997 23.9741Z" fill="url(#paint5_linear_332_5643)"/>
</g>
<path id="Vector_7" d="M30.9997 8.80765C26.3468 8.80765 22.574 12.5794 22.574 17.2333C22.574 21.8862 26.3468 25.6579 30.9997 25.6579C35.6525 25.6579 39.4253 21.8862 39.4253 17.2333C39.4253 12.5794 35.6525 8.80765 30.9997 8.80765ZM30.9997 22.6289C28.0193 22.6289 25.6031 20.2127 25.6031 17.2334C25.6031 14.253 28.0193 11.8369 30.9997 11.8369C33.9801 11.8369 36.3962 14.253 36.3962 17.2334C36.3962 20.2126 33.98 22.6289 30.9997 22.6289Z" fill="url(#paint6_linear_332_5643)"/>
</g>
<g id="Group_5">
<g id="Group_6">
<path id="Vector_8" d="M23.8051 41.048L22.3742 39.793C22.0272 39.4883 21.8452 39.0328 21.8985 38.5732C21.9397 38.2163 21.9618 37.8532 21.9618 37.4852C21.9618 37.1172 21.9396 36.7531 21.8985 36.3961C21.8451 35.9365 22.0272 35.482 22.3742 35.1763L23.8051 33.9213C24.2908 33.4959 24.3995 32.782 24.0636 32.2309L22.5341 29.7178C22.1972 29.1668 21.5134 28.9365 20.912 29.1718L19.1291 29.8726C18.6977 30.0416 18.2119 29.9823 17.8278 29.7228C17.4145 29.4453 16.977 29.1989 16.5205 28.9877C16.1012 28.7947 15.7996 28.4116 15.72 27.956L15.3902 26.0694C15.2786 25.4338 14.7265 24.9693 14.0809 24.9693H11.1385C10.4929 24.9693 9.94082 25.4339 9.82916 26.0694L9.49935 27.956C9.41994 28.4116 9.11818 28.7947 8.69886 28.9877C8.2423 29.1989 7.80484 29.4453 7.39161 29.7228C7.00749 29.9823 6.52171 30.0417 6.09033 29.8726L4.30739 29.1718C3.70602 28.9365 3.0222 29.1668 2.68533 29.7178L1.15582 32.2309C0.819942 32.782 0.928569 33.496 1.41426 33.9213L2.84524 35.1763C3.1922 35.482 3.37416 35.9365 3.32092 36.3961C3.27965 36.753 3.25759 37.1171 3.25759 37.4852C3.25759 37.8533 3.27975 38.2163 3.32092 38.5732C3.37426 39.0328 3.1922 39.4883 2.84524 39.793L1.41426 41.048C0.928569 41.4744 0.819942 42.1874 1.15582 42.7384L2.68533 45.2515C3.0222 45.8035 3.70602 46.0328 4.30739 45.7976L6.09033 45.0977C6.52171 44.9277 7.00749 44.9871 7.39161 45.2465C7.80494 45.525 8.24239 45.7714 8.69886 45.9816C9.11818 46.1746 9.41984 46.5588 9.49935 47.0143L9.82916 48.8998C9.94082 49.5364 10.4929 49.9999 11.1385 49.9999H14.0809C14.7265 49.9999 15.2786 49.5363 15.3902 48.8998L15.72 47.0143C15.7995 46.5587 16.1012 46.1746 16.5205 45.9816C16.9771 45.7714 17.4146 45.525 17.8278 45.2465C18.2119 44.9871 18.6976 44.9277 19.1291 45.0977L20.912 45.7976C21.5134 46.0328 22.1972 45.8036 22.5341 45.2515L24.0636 42.7384C24.3995 42.1875 24.2908 41.4744 23.8051 41.048ZM12.6097 42.3805C9.90563 42.3805 7.71347 40.1882 7.71347 37.4852C7.71347 34.7811 9.90573 32.5889 12.6097 32.5889C15.3138 32.5889 17.506 34.7812 17.506 37.4852C17.506 40.1882 15.3138 42.3805 12.6097 42.3805Z" fill="url(#paint7_linear_332_5643)"/>
<path id="Vector_9" d="M2.84524 39.793L1.41426 41.048C0.928569 41.4744 0.819942 42.1874 1.15582 42.7384L2.68533 45.2515C3.0222 45.8035 3.70602 46.0329 4.30739 45.7976L6.09033 45.0977C6.52171 44.9278 7.00749 44.9871 7.39161 45.2465L3.32092 38.5732C3.37426 39.0329 3.1922 39.4883 2.84524 39.793Z" fill="url(#paint8_linear_332_5643)"/>
<path id="Vector_10" d="M22.3743 35.1763L23.8052 33.9213C24.2909 33.4959 24.3995 32.782 24.0637 32.2309L22.5342 29.7178C22.1973 29.1668 21.5135 28.9365 20.9121 29.1718L19.1292 29.8726C18.6978 30.0416 18.212 29.9823 17.8279 29.7228L21.8986 36.3961C21.8453 35.9366 22.0274 35.4821 22.3743 35.1763Z" fill="url(#paint9_linear_332_5643)"/>
<path id="Vector_11" d="M19.1292 45.0977L20.9121 45.7976C21.5135 46.0329 22.1973 45.8036 22.5342 45.2515L24.0637 42.7384C24.3995 42.1874 24.2909 41.4744 23.8052 41.048L22.3743 39.793C22.0273 39.4883 21.8453 39.0329 21.8986 38.5732L17.8279 45.2465C18.2121 44.9871 18.6978 44.9278 19.1292 45.0977Z" fill="url(#paint10_linear_332_5643)"/>
<path id="Vector_12" d="M9.49937 47.0143L9.82917 48.8998C9.94084 49.5364 10.4929 49.9999 11.1385 49.9999H14.0809C14.7265 49.9999 15.2786 49.5363 15.3902 48.8998L15.7201 47.0143C15.7995 46.5587 16.1012 46.1746 16.5205 45.9816H8.69897C9.11829 46.1746 9.41996 46.5588 9.49937 47.0143Z" fill="url(#paint11_linear_332_5643)"/>
<path id="Vector_13" d="M12.6097 29.8406C8.38813 29.8406 4.96509 33.2627 4.96509 37.4852C4.96509 41.7068 8.38823 45.1288 12.6097 45.1288C16.8312 45.1288 20.2543 41.7068 20.2543 37.4852C20.2543 33.2627 16.8313 29.8406 12.6097 29.8406ZM12.6097 42.3805C9.90558 42.3805 7.71342 40.1882 7.71342 37.4852C7.71342 34.7811 9.90568 32.5889 12.6097 32.5889C15.3137 32.5889 17.506 34.7812 17.506 37.4852C17.506 40.1882 15.3137 42.3805 12.6097 42.3805Z" fill="url(#paint12_linear_332_5643)"/>
</g>
</g>
</g>
<path id="Vector_14" d="M24.498 3.42442L22.3206 5.60187C22.0284 5.89501 21.551 5.89011 21.2647 5.58618C20.9892 5.29403 21.0176 4.82638 21.3029 4.54109L22.349 3.49403C19.7431 2.99893 16.9441 3.75579 14.9314 5.76756C13.5387 7.16109 12.7463 8.93138 12.5547 10.7531C12.5156 11.1251 12.2081 11.4107 11.834 11.4107H11.818C11.3867 11.4107 11.0537 11.036 11.0982 10.607C11.3124 8.54177 12.18 6.53226 13.7009 4.9254C15.9215 2.57932 19.0205 1.58814 21.9842 1.94991L21.2813 1.24697C20.9891 0.955792 20.994 0.478341 21.2979 0.192066C21.5901 -0.083424 22.0577 -0.0549927 22.343 0.229321L24.4979 2.3852C24.7863 2.67246 24.7853 3.13814 24.498 3.42442Z" fill="url(#paint13_linear_332_5643)"/>
<path id="Vector_15" d="M26.9948 36.5964L24.8174 38.7738C24.5242 39.066 24.5291 39.5434 24.8331 39.8297C25.1252 40.1052 25.5929 40.0768 25.8782 39.7915L26.9252 38.7454C27.4203 41.3513 26.6634 44.1503 24.6517 46.163C23.2582 47.5557 21.4879 48.3481 19.6661 48.5397C19.2941 48.5788 19.0085 48.8863 19.0085 49.2604V49.2764C19.0085 49.7078 19.3833 50.0407 19.8123 49.9962C21.8775 49.782 23.887 48.9144 25.4938 47.3935C27.8399 45.1729 28.8311 42.0739 28.4693 39.1102L29.1723 39.8131C29.4634 40.1053 29.9409 40.1004 30.2272 39.7965C30.5027 39.5043 30.4742 39.0367 30.1899 38.7514L28.034 36.5965C27.7468 36.3081 27.2811 36.3091 26.9948 36.5964Z" fill="url(#paint14_linear_332_5643)"/>
</g>
<defs>
<linearGradient id="paint0_linear_332_5643" x1="22.3086" y1="8.54216" x2="40.4953" y2="26.7288" gradientUnits="userSpaceOnUse">
<stop stop-color="#DEECF1"/>
<stop offset="1" stop-color="#8EBAC5"/>
</linearGradient>
<linearGradient id="paint1_linear_332_5643" x1="18.8219" y1="24.7341" x2="15.1811" y2="27.0746" gradientUnits="userSpaceOnUse">
<stop stop-color="#678D98" stop-opacity="0"/>
<stop offset="0.2265" stop-color="#638892" stop-opacity="0.227"/>
<stop offset="0.5216" stop-color="#597B82" stop-opacity="0.522"/>
<stop offset="0.8533" stop-color="#476567" stop-opacity="0.853"/>
<stop offset="1" stop-color="#3E5959"/>
</linearGradient>
<linearGradient id="paint2_linear_332_5643" x1="43.4221" y1="9.59648" x2="47.1148" y2="7.25598" gradientUnits="userSpaceOnUse">
<stop stop-color="#678D98" stop-opacity="0"/>
<stop offset="0.2265" stop-color="#638892" stop-opacity="0.227"/>
<stop offset="0.5216" stop-color="#597B82" stop-opacity="0.522"/>
<stop offset="0.8533" stop-color="#476567" stop-opacity="0.853"/>
<stop offset="1" stop-color="#3E5959"/>
</linearGradient>
<linearGradient id="paint3_linear_332_5643" x1="42.9464" y1="24.5879" x2="46.0151" y2="26.5643" gradientUnits="userSpaceOnUse">
<stop stop-color="#678D98" stop-opacity="0"/>
<stop offset="0.2265" stop-color="#638892" stop-opacity="0.227"/>
<stop offset="0.5216" stop-color="#597B82" stop-opacity="0.522"/>
<stop offset="0.8533" stop-color="#476567" stop-opacity="0.853"/>
<stop offset="1" stop-color="#3E5959"/>
</linearGradient>
<linearGradient id="paint4_linear_332_5643" x1="30.9997" y1="31.8478" x2="30.9997" y2="34.8143" gradientUnits="userSpaceOnUse">
<stop stop-color="#678D98" stop-opacity="0"/>
<stop offset="0.2265" stop-color="#638892" stop-opacity="0.227"/>
<stop offset="0.5216" stop-color="#597B82" stop-opacity="0.522"/>
<stop offset="0.8533" stop-color="#476567" stop-opacity="0.853"/>
<stop offset="1" stop-color="#3E5959"/>
</linearGradient>
<linearGradient id="paint5_linear_332_5643" x1="42.88" y1="29.1133" x2="18.1682" y2="4.40146" gradientUnits="userSpaceOnUse">
<stop stop-color="#DEECF1"/>
<stop offset="1" stop-color="#8EBAC5"/>
</linearGradient>
<linearGradient id="paint6_linear_332_5643" x1="27.6189" y1="13.8523" x2="35.2121" y2="21.4454" gradientUnits="userSpaceOnUse">
<stop stop-color="#DEECF1"/>
<stop offset="1" stop-color="#8EBAC5"/>
</linearGradient>
<linearGradient id="paint7_linear_332_5643" x1="6.29798" y1="31.173" x2="19.506" y2="44.3811" gradientUnits="userSpaceOnUse">
<stop stop-color="#DEECF1"/>
<stop offset="1" stop-color="#8EBAC5"/>
</linearGradient>
<linearGradient id="paint8_linear_332_5643" x1="3.76563" y1="42.9325" x2="1.12151" y2="44.6322" gradientUnits="userSpaceOnUse">
<stop stop-color="#678D98" stop-opacity="0"/>
<stop offset="0.2265" stop-color="#638892" stop-opacity="0.227"/>
<stop offset="0.5216" stop-color="#597B82" stop-opacity="0.522"/>
<stop offset="0.8533" stop-color="#476567" stop-opacity="0.853"/>
<stop offset="1" stop-color="#3E5959"/>
</linearGradient>
<linearGradient id="paint9_linear_332_5643" x1="21.6316" y1="31.9387" x2="24.3134" y2="30.239" gradientUnits="userSpaceOnUse">
<stop stop-color="#678D98" stop-opacity="0"/>
<stop offset="0.2265" stop-color="#638892" stop-opacity="0.227"/>
<stop offset="0.5216" stop-color="#597B82" stop-opacity="0.522"/>
<stop offset="0.8533" stop-color="#476567" stop-opacity="0.853"/>
<stop offset="1" stop-color="#3E5959"/>
</linearGradient>
<linearGradient id="paint10_linear_332_5643" x1="21.2861" y1="42.8263" x2="23.5147" y2="44.2617" gradientUnits="userSpaceOnUse">
<stop stop-color="#678D98" stop-opacity="0"/>
<stop offset="0.2265" stop-color="#638892" stop-opacity="0.227"/>
<stop offset="0.5216" stop-color="#597B82" stop-opacity="0.522"/>
<stop offset="0.8533" stop-color="#476567" stop-opacity="0.853"/>
<stop offset="1" stop-color="#3E5959"/>
</linearGradient>
<linearGradient id="paint11_linear_332_5643" x1="12.6098" y1="48.0988" x2="12.6098" y2="50.2531" gradientUnits="userSpaceOnUse">
<stop stop-color="#678D98" stop-opacity="0"/>
<stop offset="0.2265" stop-color="#638892" stop-opacity="0.227"/>
<stop offset="0.5216" stop-color="#597B82" stop-opacity="0.522"/>
<stop offset="0.8533" stop-color="#476567" stop-opacity="0.853"/>
<stop offset="1" stop-color="#3E5959"/>
</linearGradient>
<linearGradient id="paint12_linear_332_5643" x1="21.2377" y1="46.1128" x2="3.29087" y2="28.166" gradientUnits="userSpaceOnUse">
<stop stop-color="#DEECF1"/>
<stop offset="1" stop-color="#8EBAC5"/>
</linearGradient>
<linearGradient id="paint13_linear_332_5643" x1="14.6179" y1="1.51569" x2="19.1889" y2="8.85707" gradientUnits="userSpaceOnUse">
<stop stop-color="#A6E7F0"/>
<stop offset="0.1713" stop-color="#90E2ED"/>
<stop offset="0.5295" stop-color="#56D7E7"/>
<stop offset="1" stop-color="#02C7DD"/>
</linearGradient>
<linearGradient id="paint14_linear_332_5643" x1="20.4266" y1="41.0195" x2="28.6619" y2="46.6078" gradientUnits="userSpaceOnUse">
<stop stop-color="#A6E7F0"/>
<stop offset="0.1713" stop-color="#90E2ED"/>
<stop offset="0.5295" stop-color="#56D7E7"/>
<stop offset="1" stop-color="#02C7DD"/>
</linearGradient>
</defs>
</svg>
