<svg width="50" height="50" viewBox="0 0 50 50" fill="none" xmlns="http://www.w3.org/2000/svg">
<path d="M26.4228 46.9405C38.5402 46.9405 48.3633 37.1174 48.3633 24.9999C48.3633 12.8825 38.5402 3.05936 26.4228 3.05936C14.3053 3.05936 4.48218 12.8825 4.48218 24.9999C4.48218 37.1174 14.3053 46.9405 26.4228 46.9405Z" fill="url(#paint0_linear_332_3519)"/>
<path d="M26.4228 46.3363C38.2066 46.3363 47.7592 36.7837 47.7592 25C47.7592 13.2162 38.2066 3.66357 26.4228 3.66357C14.6391 3.66357 5.08643 13.2162 5.08643 25C5.08643 36.7837 14.6391 46.3363 26.4228 46.3363Z" fill="url(#paint1_linear_332_3519)"/>
<path d="M33.9216 5.01953C34.7976 7.35244 35.2779 9.879 35.2779 12.518C35.2779 24.302 25.7251 33.8548 13.9411 33.8548C11.3021 33.8548 8.77553 33.3745 6.44263 32.4985C9.47807 40.5828 17.2781 46.3368 26.4231 46.3368C38.2071 46.3368 47.7599 36.784 47.7599 25C47.7598 15.8551 42.006 8.05507 33.9216 5.01953Z" fill="url(#paint2_radial_332_3519)"/>
<path d="M18.1623 13.0366C18.4685 12.0429 18.8146 11.1015 19.1993 10.2234C19.9661 8.47243 20.8554 7.04831 21.8329 5.97897C18.3145 6.82497 15.1665 8.62135 12.6755 11.0821C14.2976 11.9009 16.1504 12.5585 18.1623 13.0366Z" fill="url(#paint3_radial_332_3519)"/>
<path d="M40.1703 11.082C39.287 11.5279 38.3353 11.9269 37.3262 12.2726C36.4834 12.5638 35.6 12.8189 34.6836 13.0365C34.3774 12.0432 34.0317 11.1012 33.6466 10.2233C32.8795 8.47262 31.9908 7.0484 31.0137 5.97946C31.0222 5.98161 31.0308 5.98376 31.0393 5.98581C34.547 6.83385 37.6856 8.62721 40.1703 11.082Z" fill="url(#paint4_radial_332_3519)"/>
<path d="M34.2956 26.0161H18.5503C18.6169 29.0665 18.9832 31.9842 19.6161 34.5902C21.7808 34.2058 24.0734 34.0051 26.4228 34.0051C28.7723 34.0051 31.0649 34.2058 33.2296 34.5902C33.8627 31.9841 34.229 29.0665 34.2956 26.0161Z" fill="url(#paint5_radial_332_3519)"/>
<path d="M33.2298 15.4098C31.0652 15.7942 28.7725 15.9949 26.4231 15.9949C24.0736 15.9949 21.781 15.7942 19.6164 15.4098C18.9834 18.0159 18.617 20.9334 18.5505 23.9839H34.2957C34.229 20.9334 33.8627 18.0159 33.2298 15.4098Z" fill="url(#paint6_radial_332_3519)"/>
<path d="M20.1633 36.5554C20.4317 37.4033 20.7308 38.2083 21.0606 38.9613C22.5479 42.3571 24.5025 44.3048 26.4231 44.3048C28.3437 44.3048 30.2983 42.3572 31.7856 38.9613C32.1154 38.2083 32.4146 37.4033 32.6828 36.5554C30.694 36.2146 28.5866 36.0371 26.4231 36.0371C24.2596 36.0371 22.1521 36.2146 20.1633 36.5554Z" fill="url(#paint7_radial_332_3519)"/>
<path d="M32.6828 13.4446C32.4145 12.5966 32.1154 11.7917 31.7856 11.0386C30.2983 7.64284 28.3437 5.69519 26.4231 5.69519C24.5025 5.69519 22.5479 7.64275 21.0606 11.0386C20.7308 11.7917 20.4316 12.5966 20.1633 13.4446C22.1522 13.7854 24.2596 13.9629 26.4231 13.9629C28.5866 13.9629 30.694 13.7854 32.6828 13.4446Z" fill="url(#paint8_radial_332_3519)"/>
<path d="M17.6268 14.9962C17.3293 16.238 17.0859 17.5438 16.9056 18.8966C16.6858 20.5342 16.5546 22.2401 16.5173 23.9844H6.88477C7.09707 19.8451 8.59482 16.0471 10.9879 12.9789C11.0774 12.8636 11.1692 12.7495 11.261 12.6364C11.3699 12.6951 11.4766 12.7538 11.5886 12.8114C13.3712 13.7309 15.4142 14.4649 17.6268 14.9962Z" fill="url(#paint9_radial_332_3519)"/>
<path d="M34.6835 36.9634C34.3774 37.957 34.0313 38.8984 33.6466 39.7766C32.8797 41.5275 31.9905 42.9517 31.0129 44.021C34.5314 43.175 37.6794 41.3786 40.1703 38.9179C38.5484 38.099 36.6955 37.4415 34.6835 36.9634Z" fill="url(#paint10_radial_332_3519)"/>
<path d="M41.2577 12.8112C39.4745 13.7312 37.4321 14.4653 35.2185 14.9961C35.8796 17.7439 36.261 20.801 36.328 23.9839H45.9609C45.7411 19.6897 44.1362 15.7618 41.5849 12.6368C41.4766 12.6952 41.3689 12.7539 41.2577 12.8112Z" fill="url(#paint11_radial_332_3519)"/>
<path d="M36.3282 26.0161C36.2613 29.1989 35.88 32.2562 35.2188 35.0039C37.4323 35.5348 39.4748 36.2689 41.258 37.1888C41.369 37.2461 41.4767 37.3048 41.5851 37.3633C44.1364 34.2382 45.7414 30.3103 45.9611 26.0162H36.3282V26.0161Z" fill="url(#paint12_radial_332_3519)"/>
<path d="M17.6269 35.0037C16.6806 35.2309 15.7663 35.4945 14.8894 35.7943C13.7148 36.1964 12.6097 36.6615 11.5886 37.1886C11.4766 37.2462 11.3699 37.3048 11.261 37.3636C9.10605 34.7242 7.62637 31.5131 7.08643 27.9914C6.98613 27.3428 6.91895 26.6835 6.88477 26.0156H16.5173C16.5846 29.1991 16.9665 32.2567 17.6269 35.0037Z" fill="url(#paint13_radial_332_3519)"/>
<path d="M19.1992 39.7766C18.8146 38.8984 18.4684 37.9571 18.1623 36.9634C16.1504 37.4415 14.2976 38.0989 12.6753 38.918C15.1663 41.3787 18.3142 43.1749 21.8327 44.0211C20.8554 42.9517 19.9661 41.5275 19.1992 39.7766Z" fill="url(#paint14_radial_332_3519)"/>
<path d="M17.627 14.9963C17.3294 16.2381 17.0861 17.5438 16.9058 18.8967L10.988 12.9789C11.0776 12.8637 11.1694 12.7495 11.2612 12.6364C11.3701 12.6951 11.4767 12.7538 11.5887 12.8114C13.3713 13.7309 15.4144 14.4649 17.627 14.9963Z" fill="url(#paint15_linear_332_3519)"/>
<path d="M17.6268 35.0037C16.6805 35.2309 15.7662 35.4945 14.8893 35.7943L7.08643 27.9913C6.98613 27.3427 6.91895 26.6834 6.88477 26.0155H16.5173C16.5846 29.1991 16.9664 32.2567 17.6268 35.0037Z" fill="url(#paint16_linear_332_3519)"/>
<path d="M37.3262 12.2726C36.4834 12.5639 35.6 12.8189 34.6836 13.0365C34.3774 12.0433 34.0317 11.1013 33.6466 10.2233C32.8795 8.47265 31.9908 7.04844 31.0137 5.97949C31.0222 5.98164 31.0308 5.98379 31.0393 5.98584L37.3262 12.2726Z" fill="url(#paint17_linear_332_3519)"/>
<path d="M47.7597 25C47.7597 21.7373 47.0269 18.6462 45.7175 15.8811C44.8475 16.6719 43.6126 17.6556 41.8771 18.8425C40.2709 19.9413 39.0997 21.1258 37.0864 22.2781C36.5175 22.6037 36.3232 23.3312 36.6509 23.899C36.7305 24.0371 36.834 24.1525 36.9527 24.2442L46.0619 33.3534C47.1546 30.7878 47.7597 27.9647 47.7597 25Z" fill="url(#paint18_linear_332_3519)"/>
<path d="M38.7249 26.0164H45.9604C45.8536 28.1131 45.4161 30.1209 44.6996 31.9913L38.7249 26.0164Z" fill="url(#paint19_linear_332_3519)"/>
<path d="M45.9606 23.9836H36.7054C36.6853 23.9564 36.6675 23.929 36.6508 23.8995C36.3236 23.3314 36.518 22.6032 37.0861 22.2782C39.0998 21.1254 40.2716 19.9418 41.8773 18.8424C42.8319 18.189 43.6349 17.5984 44.3097 17.0647C45.2584 19.1971 45.8348 21.531 45.9606 23.9836Z" fill="url(#paint20_linear_332_3519)"/>
<path d="M49.8018 12.5879C49.0664 10.9963 46.7966 11.052 46.0506 11.0698C45.3331 11.0876 44.5065 11.1717 43.5768 11.3224C44.1342 12.0186 44.6488 12.7491 45.1173 13.5105C45.9332 13.4263 46.5273 13.424 46.9413 13.4619C47.3042 13.4938 47.4893 13.9089 47.2793 14.2067C47.0552 14.5234 46.7041 14.9373 46.1788 15.4484C45.3036 16.3022 43.9444 17.429 41.8774 18.8425C40.2711 19.9414 39.0999 21.1258 37.0866 22.2782C36.5177 22.6038 36.3235 23.3313 36.6511 23.8991C36.9783 24.4663 37.7026 24.6595 38.2708 24.3341C40.6195 22.9897 42.0702 21.6148 43.8805 20.3392C45.1708 19.4308 46.2643 18.5769 47.1502 17.7871C47.6851 17.3103 48.1452 16.8573 48.5271 16.4292C48.9303 15.9786 50.0001 14.7807 50.0001 13.4963C49.9999 13.195 49.9418 12.8902 49.8018 12.5879Z" fill="url(#paint21_linear_332_3519)"/>
<path d="M45.5619 34.439C42.0788 41.4884 34.8171 46.3364 26.423 46.3364C18.8317 46.3364 12.1667 42.3718 8.38701 36.4005C7.94346 35.7033 7.54141 34.9798 7.18213 34.2302C7.84746 34.0962 8.59336 33.9254 9.42832 33.7084C9.52919 33.6824 9.62998 33.6563 9.7331 33.6289C9.85292 33.5981 9.97382 33.5649 10.0972 33.5317C14.7675 32.2592 20.5965 30.0545 26.5108 27.3208C27.379 26.9188 28.2376 26.512 29.082 26.1005L27.8509 23.6527C27.6007 23.1581 28.0254 22.5913 28.5709 22.6909L34.8801 23.846C34.9002 23.8495 34.9216 23.8543 34.9407 23.8602C34.9608 23.865 34.9798 23.8721 34.9988 23.8792C35.0165 23.8851 35.0331 23.8921 35.0498 23.9005C35.064 23.9077 35.0783 23.9148 35.0925 23.923C35.1032 23.929 35.1139 23.936 35.1245 23.9432C35.1364 23.9503 35.1482 23.9586 35.1588 23.967C35.1814 23.9824 35.2027 24.0002 35.2229 24.0215C35.2324 24.0298 35.2418 24.0405 35.2513 24.05C35.2822 24.0832 35.3094 24.1187 35.3331 24.1579C35.3533 24.1911 35.3699 24.2254 35.3841 24.2611L45.5619 34.439Z" fill="url(#paint22_linear_332_3519)"/>
<path d="M26.4229 34.005C28.7723 34.005 31.0648 34.2054 33.2292 34.5897C33.8624 31.9841 34.229 29.0666 34.2953 26.0164H29.0391L29.0818 26.1006C28.2375 26.5122 27.3788 26.919 26.5106 27.3209C23.9217 28.5176 21.3494 29.6121 18.8838 30.5728C19.0617 31.9723 19.3072 33.3183 19.6167 34.5897C21.7811 34.2054 24.0735 34.005 26.4229 34.005Z" fill="url(#paint23_linear_332_3519)"/>
<path d="M32.6825 36.5559C30.6936 36.2143 28.5862 36.0376 26.423 36.0376C24.2599 36.0376 22.1524 36.2143 20.1636 36.5559C20.4316 37.4027 20.7305 38.2079 21.0602 38.961C22.5474 42.3575 24.5029 44.3049 26.423 44.3049C28.3431 44.3049 30.2987 42.3576 31.7859 38.961C32.1156 38.208 32.4144 37.4027 32.6825 36.5559Z" fill="url(#paint24_linear_332_3519)"/>
<path d="M33.6467 39.777C32.8806 41.5275 31.991 42.9518 31.0127 44.0216C34.5314 43.1748 37.6802 41.3793 40.1706 38.9184C38.5482 38.099 36.6958 37.4418 34.6832 36.9639C34.3772 37.9566 34.0309 38.8982 33.6467 39.777Z" fill="url(#paint25_linear_332_3519)"/>
<path d="M37.1393 26.0164H36.3281C36.2616 29.1995 35.8798 32.2556 35.2192 35.0035C37.4322 35.5349 39.4744 36.269 41.2582 37.1893C41.3685 37.2462 41.4765 37.3043 41.5854 37.3637C42.6397 36.0722 43.5316 34.6431 44.2312 33.1085L37.1393 26.0164Z" fill="url(#paint26_linear_332_3519)"/>
<path d="M18.1629 36.9639C16.1503 37.4418 14.2979 38.0989 12.6755 38.9184C15.1661 41.3792 18.3147 43.1747 21.8334 44.0216C20.855 42.9519 19.9656 41.5276 19.1995 39.777C18.8151 38.8982 18.4689 37.9566 18.1629 36.9639Z" fill="url(#paint27_linear_332_3519)"/>
<path d="M17.6268 35.0035C17.5236 34.573 17.4264 34.1354 17.3387 33.6907C17.1809 32.9175 17.0469 32.124 16.9343 31.3116C14.4876 32.213 12.1774 32.9649 10.0973 33.5318C9.7 33.6397 9.32168 33.7381 8.95996 33.8271C9.33232 34.5648 9.75097 35.2764 10.2124 35.9558C10.5409 36.4408 10.8907 36.9105 11.2607 37.3635C11.3698 37.3054 11.4766 37.2461 11.5893 37.1891C12.6092 36.6613 13.7144 36.1965 14.8897 35.7944C15.766 35.4945 16.6804 35.2312 17.6268 35.0035Z" fill="url(#paint28_linear_332_3519)"/>
<path d="M5.38887 31.2537C5.79316 32.6154 6.32568 33.9215 6.97304 35.1585C8.64355 34.8466 10.2887 34.2164 10.2887 34.2164L4.7998 28.7276C4.94707 29.5879 5.14453 30.4308 5.38887 31.2537Z" fill="url(#paint29_linear_332_3519)"/>
<path d="M9.34341 34.5429C9.91489 34.3595 10.2885 34.2164 10.2885 34.2164L8.2019 32.1298C8.52837 32.9636 8.91011 33.7695 9.34341 34.5429Z" fill="url(#paint30_linear_332_3519)"/>
<path d="M34.8801 23.8458L28.5708 22.6911C28.0254 22.5913 27.6009 23.1582 27.8503 23.6534L29.0824 26.1004C28.2369 26.5119 27.3792 26.9194 26.5108 27.3209C20.5964 30.0546 14.7674 32.2593 10.0971 33.5318C8.70601 33.9101 7.53902 34.1722 6.56774 34.3465C4.83747 34.6596 3.7238 34.6999 3.06325 34.6418C2.70271 34.6099 2.507 34.1994 2.71579 33.9041C3.11306 33.3384 3.91472 32.4667 5.39372 31.2725C5.14586 30.4435 4.94665 29.5932 4.79841 28.7262C3.37409 29.8054 2.25925 30.7933 1.47302 31.6733C0.974877 32.2295 -0.53723 33.9231 0.198121 35.5147C0.838549 36.9023 2.64704 37.0375 3.5947 37.0375C3.73347 37.0375 3.85436 37.0351 3.94929 37.0327C4.99411 37.0078 6.26901 36.8407 7.75738 36.5346C8.44049 36.3946 9.16861 36.225 9.93961 36.027C14.8673 34.7592 21.1053 32.4323 27.5059 29.4734C28.3996 29.0602 29.2812 28.6415 30.1492 28.2189L31.33 30.564C31.5794 31.0592 32.2875 31.0559 32.5321 30.5582L35.3618 24.8021C35.5581 24.4026 35.3181 23.9258 34.8801 23.8458Z" fill="url(#paint31_linear_332_3519)"/>
<path d="M2.87681 34.5864L2.87769 34.5861C2.64312 34.4582 2.54664 34.1435 2.71578 33.9042C3.11304 33.3385 3.9147 32.4668 5.3937 31.2726C5.21841 30.6863 5.0687 30.0886 4.94283 29.4825C3.95464 30.3435 1.79625 32.2844 1.63658 32.9459C1.42896 33.8057 2.87681 34.5864 2.87681 34.5864Z" fill="url(#paint32_linear_332_3519)"/>
<defs>
<linearGradient id="paint0_linear_332_3519" x1="26.4236" y1="56.6114" x2="26.4236" y2="0.982212" gradientUnits="userSpaceOnUse">
<stop stop-color="white"/>
<stop offset="1" stop-color="#E8EFEE"/>
</linearGradient>
<linearGradient id="paint1_linear_332_3519" x1="26.4237" y1="5.90206" x2="26.4237" y2="46.2112" gradientUnits="userSpaceOnUse">
<stop stop-color="white"/>
<stop offset="1" stop-color="#E8EFEE"/>
</linearGradient>
<radialGradient id="paint2_radial_332_3519" cx="0" cy="0" r="1" gradientUnits="userSpaceOnUse" gradientTransform="translate(24.5746 22.2605) scale(25.4987)">
<stop offset="0.0001" stop-color="white" stop-opacity="0"/>
<stop offset="0.482" stop-color="#FDFDFD" stop-opacity="0.482"/>
<stop offset="0.656" stop-color="#F6F7F7" stop-opacity="0.655"/>
<stop offset="0.779" stop-color="#EBEDEC" stop-opacity="0.779"/>
<stop offset="0.879" stop-color="#DADDDD" stop-opacity="0.879"/>
<stop offset="0.964" stop-color="#C4CAC9" stop-opacity="0.964"/>
<stop offset="1" stop-color="#B8BFBE"/>
</radialGradient>
<radialGradient id="paint3_radial_332_3519" cx="0" cy="0" r="1" gradientUnits="userSpaceOnUse" gradientTransform="translate(18.7776 15.504) scale(28.0425)">
<stop stop-color="#00A6F9"/>
<stop offset="0.253" stop-color="#00A0F7"/>
<stop offset="0.575" stop-color="#0091F0"/>
<stop offset="0.932" stop-color="#0077E4"/>
<stop offset="1" stop-color="#0071E2"/>
</radialGradient>
<radialGradient id="paint4_radial_332_3519" cx="0" cy="0" r="1" gradientUnits="userSpaceOnUse" gradientTransform="translate(18.7775 15.504) scale(28.0425)">
<stop stop-color="#00A6F9"/>
<stop offset="0.253" stop-color="#00A0F7"/>
<stop offset="0.575" stop-color="#0091F0"/>
<stop offset="0.932" stop-color="#0077E4"/>
<stop offset="1" stop-color="#0071E2"/>
</radialGradient>
<radialGradient id="paint5_radial_332_3519" cx="0" cy="0" r="1" gradientUnits="userSpaceOnUse" gradientTransform="translate(18.7774 15.504) scale(28.0425 28.0425)">
<stop stop-color="#00A6F9"/>
<stop offset="0.253" stop-color="#00A0F7"/>
<stop offset="0.575" stop-color="#0091F0"/>
<stop offset="0.932" stop-color="#0077E4"/>
<stop offset="1" stop-color="#0071E2"/>
</radialGradient>
<radialGradient id="paint6_radial_332_3519" cx="0" cy="0" r="1" gradientUnits="userSpaceOnUse" gradientTransform="translate(18.7775 15.504) scale(28.0425 28.0425)">
<stop stop-color="#00A6F9"/>
<stop offset="0.253" stop-color="#00A0F7"/>
<stop offset="0.575" stop-color="#0091F0"/>
<stop offset="0.932" stop-color="#0077E4"/>
<stop offset="1" stop-color="#0071E2"/>
</radialGradient>
<radialGradient id="paint7_radial_332_3519" cx="0" cy="0" r="1" gradientUnits="userSpaceOnUse" gradientTransform="translate(18.7776 15.504) scale(28.0425 28.0425)">
<stop stop-color="#00A6F9"/>
<stop offset="0.253" stop-color="#00A0F7"/>
<stop offset="0.575" stop-color="#0091F0"/>
<stop offset="0.932" stop-color="#0077E4"/>
<stop offset="1" stop-color="#0071E2"/>
</radialGradient>
<radialGradient id="paint8_radial_332_3519" cx="0" cy="0" r="1" gradientUnits="userSpaceOnUse" gradientTransform="translate(18.7776 15.504) scale(28.0425 28.0425)">
<stop stop-color="#00A6F9"/>
<stop offset="0.253" stop-color="#00A0F7"/>
<stop offset="0.575" stop-color="#0091F0"/>
<stop offset="0.932" stop-color="#0077E4"/>
<stop offset="1" stop-color="#0071E2"/>
</radialGradient>
<radialGradient id="paint9_radial_332_3519" cx="0" cy="0" r="1" gradientUnits="userSpaceOnUse" gradientTransform="translate(18.7774 15.504) scale(28.0425 28.0425)">
<stop stop-color="#00A6F9"/>
<stop offset="0.253" stop-color="#00A0F7"/>
<stop offset="0.575" stop-color="#0091F0"/>
<stop offset="0.932" stop-color="#0077E4"/>
<stop offset="1" stop-color="#0071E2"/>
</radialGradient>
<radialGradient id="paint10_radial_332_3519" cx="0" cy="0" r="1" gradientUnits="userSpaceOnUse" gradientTransform="translate(18.7774 15.504) scale(28.0425 28.0425)">
<stop stop-color="#00A6F9"/>
<stop offset="0.253" stop-color="#00A0F7"/>
<stop offset="0.575" stop-color="#0091F0"/>
<stop offset="0.932" stop-color="#0077E4"/>
<stop offset="1" stop-color="#0071E2"/>
</radialGradient>
<radialGradient id="paint11_radial_332_3519" cx="0" cy="0" r="1" gradientUnits="userSpaceOnUse" gradientTransform="translate(18.7774 15.504) scale(28.0425 28.0425)">
<stop stop-color="#00A6F9"/>
<stop offset="0.253" stop-color="#00A0F7"/>
<stop offset="0.575" stop-color="#0091F0"/>
<stop offset="0.932" stop-color="#0077E4"/>
<stop offset="1" stop-color="#0071E2"/>
</radialGradient>
<radialGradient id="paint12_radial_332_3519" cx="0" cy="0" r="1" gradientUnits="userSpaceOnUse" gradientTransform="translate(18.7776 15.504) scale(28.0425 28.0425)">
<stop stop-color="#00A6F9"/>
<stop offset="0.253" stop-color="#00A0F7"/>
<stop offset="0.575" stop-color="#0091F0"/>
<stop offset="0.932" stop-color="#0077E4"/>
<stop offset="1" stop-color="#0071E2"/>
</radialGradient>
<radialGradient id="paint13_radial_332_3519" cx="0" cy="0" r="1" gradientUnits="userSpaceOnUse" gradientTransform="translate(18.7775 15.504) scale(28.0425 28.0425)">
<stop stop-color="#00A6F9"/>
<stop offset="0.253" stop-color="#00A0F7"/>
<stop offset="0.575" stop-color="#0091F0"/>
<stop offset="0.932" stop-color="#0077E4"/>
<stop offset="1" stop-color="#0071E2"/>
</radialGradient>
<radialGradient id="paint14_radial_332_3519" cx="0" cy="0" r="1" gradientUnits="userSpaceOnUse" gradientTransform="translate(18.7776 15.504) scale(28.0425 28.0425)">
<stop stop-color="#00A6F9"/>
<stop offset="0.253" stop-color="#00A0F7"/>
<stop offset="0.575" stop-color="#0091F0"/>
<stop offset="0.932" stop-color="#0077E4"/>
<stop offset="1" stop-color="#0071E2"/>
</radialGradient>
<linearGradient id="paint15_linear_332_3519" x1="19.4532" y1="19.1316" x2="7.30498" y2="6.98332" gradientUnits="userSpaceOnUse">
<stop offset="0.0001" stop-color="#008BF2" stop-opacity="0"/>
<stop offset="1" stop-color="#0046E2"/>
</linearGradient>
<linearGradient id="paint16_linear_332_3519" x1="17.2058" y1="32.4063" x2="6.44014" y2="21.6404" gradientUnits="userSpaceOnUse">
<stop offset="0.0001" stop-color="#008BF2" stop-opacity="0"/>
<stop offset="1" stop-color="#0046E2"/>
</linearGradient>
<linearGradient id="paint17_linear_332_3519" x1="37.256" y1="13.9031" x2="29.9027" y2="6.55019" gradientUnits="userSpaceOnUse">
<stop offset="0.0001" stop-color="#008BF2" stop-opacity="0"/>
<stop offset="1" stop-color="#0046E2"/>
</linearGradient>
<linearGradient id="paint18_linear_332_3519" x1="47.9388" y1="26.6709" x2="38.2042" y2="16.9363" gradientUnits="userSpaceOnUse">
<stop stop-color="#C2CECE" stop-opacity="0"/>
<stop offset="0.179" stop-color="#AFBCBC" stop-opacity="0.179"/>
<stop offset="1" stop-color="#5B6A6A"/>
</linearGradient>
<linearGradient id="paint19_linear_332_3519" x1="49.0167" y1="32.688" x2="39.5081" y2="23.1804" gradientUnits="userSpaceOnUse">
<stop offset="0.0001" stop-color="#008BF2" stop-opacity="0"/>
<stop offset="1" stop-color="#0046E2"/>
</linearGradient>
<linearGradient id="paint20_linear_332_3519" x1="48.7649" y1="28.7794" x2="40.3168" y2="20.3312" gradientUnits="userSpaceOnUse">
<stop offset="0.0001" stop-color="#008BF2" stop-opacity="0"/>
<stop offset="1" stop-color="#0046E2"/>
</linearGradient>
<linearGradient id="paint21_linear_332_3519" x1="43.2474" y1="13.1654" x2="43.2474" y2="21.5604" gradientUnits="userSpaceOnUse">
<stop stop-color="#FFCF95"/>
<stop offset="0.427" stop-color="#FFC954"/>
<stop offset="1" stop-color="#FFC200"/>
</linearGradient>
<linearGradient id="paint22_linear_332_3519" x1="33.6978" y1="42.4705" x2="20.2276" y2="29.0003" gradientUnits="userSpaceOnUse">
<stop stop-color="#C2CECE" stop-opacity="0"/>
<stop offset="0.179" stop-color="#AFBCBC" stop-opacity="0.179"/>
<stop offset="1" stop-color="#5B6A6A"/>
</linearGradient>
<linearGradient id="paint23_linear_332_3519" x1="39.6052" y1="42.9506" x2="23.4839" y2="26.8293" gradientUnits="userSpaceOnUse">
<stop offset="0.0001" stop-color="#008BF2" stop-opacity="0"/>
<stop offset="1" stop-color="#0046E2"/>
</linearGradient>
<linearGradient id="paint24_linear_332_3519" x1="35.4778" y1="47.077" x2="19.3565" y2="30.9557" gradientUnits="userSpaceOnUse">
<stop offset="0.0001" stop-color="#008BF2" stop-opacity="0"/>
<stop offset="1" stop-color="#0046E2"/>
</linearGradient>
<linearGradient id="paint25_linear_332_3519" x1="38.3396" y1="44.2163" x2="22.2183" y2="28.095" gradientUnits="userSpaceOnUse">
<stop offset="0.0001" stop-color="#008BF2" stop-opacity="0"/>
<stop offset="1" stop-color="#0046E2"/>
</linearGradient>
<linearGradient id="paint26_linear_332_3519" x1="44.1135" y1="38.4423" x2="27.9922" y2="22.321" gradientUnits="userSpaceOnUse">
<stop offset="0.0001" stop-color="#008BF2" stop-opacity="0"/>
<stop offset="1" stop-color="#0046E2"/>
</linearGradient>
<linearGradient id="paint27_linear_332_3519" x1="30.0175" y1="52.5384" x2="13.8962" y2="36.4171" gradientUnits="userSpaceOnUse">
<stop offset="0.0001" stop-color="#008BF2" stop-opacity="0"/>
<stop offset="1" stop-color="#0046E2"/>
</linearGradient>
<linearGradient id="paint28_linear_332_3519" x1="31.1579" y1="51.3969" x2="15.0366" y2="35.2756" gradientUnits="userSpaceOnUse">
<stop offset="0.0001" stop-color="#008BF2" stop-opacity="0"/>
<stop offset="1" stop-color="#0046E2"/>
</linearGradient>
<linearGradient id="paint29_linear_332_3519" x1="11.9127" y1="37.9683" x2="0.163081" y2="26.219" gradientUnits="userSpaceOnUse">
<stop stop-color="#C2CECE" stop-opacity="0"/>
<stop offset="0.179" stop-color="#AFBCBC" stop-opacity="0.179"/>
<stop offset="1" stop-color="#5B6A6A"/>
</linearGradient>
<linearGradient id="paint30_linear_332_3519" x1="10.9928" y1="35.5557" x2="6.52605" y2="31.0889" gradientUnits="userSpaceOnUse">
<stop offset="0.0001" stop-color="#008BF2" stop-opacity="0"/>
<stop offset="1" stop-color="#0046E2"/>
</linearGradient>
<linearGradient id="paint31_linear_332_3519" x1="15.4422" y1="24.4625" x2="19.7913" y2="34.5044" gradientUnits="userSpaceOnUse">
<stop stop-color="#FFCF95"/>
<stop offset="0.427" stop-color="#FFC954"/>
<stop offset="1" stop-color="#FFC200"/>
</linearGradient>
<linearGradient id="paint32_linear_332_3519" x1="2.95792" y1="31.2076" x2="4.38119" y2="32.5722" gradientUnits="userSpaceOnUse">
<stop stop-color="#FFC200" stop-opacity="0"/>
<stop offset="0.203" stop-color="#FFBB00" stop-opacity="0.203"/>
<stop offset="0.499" stop-color="#FFA700" stop-opacity="0.499"/>
<stop offset="0.852" stop-color="#FF8800" stop-opacity="0.852"/>
<stop offset="1" stop-color="#FF7800"/>
</linearGradient>
</defs>
</svg>
