<svg width="34" height="42" viewBox="0 0 34 42" fill="none" xmlns="http://www.w3.org/2000/svg">
<path d="M34 19.0909C34 29.6864 26.7467 39.5945 17 42C7.25333 39.5945 0 29.6864 0 19.0909V7.63636L17 0L34 7.63636V19.0909ZM17 38.1818C24.0833 36.2727 30.2222 27.7582 30.2222 19.5109V10.1182L17 4.16182L3.77778 10.1182V19.5109C3.77778 27.7582 9.91667 36.2727 17 38.1818ZM22.2889 19.0909V16.2273C22.2889 13.5545 19.6444 11.4545 17 11.4545C14.3556 11.4545 11.7111 13.5545 11.7111 16.2273V19.0909C10.5778 19.0909 9.44444 20.2364 9.44444 21.3818V28.0636C9.44444 29.4 10.5778 30.5455 11.7111 30.5455H22.1C23.4222 30.5455 24.5556 29.4 24.5556 28.2545V21.5727C24.5556 20.2364 23.4222 19.0909 22.2889 19.0909ZM19.8333 19.0909H14.1667V16.2273C14.1667 14.7 15.4889 13.7455 17 13.7455C18.5111 13.7455 19.8333 14.7 19.8333 16.2273V19.0909Z" fill="#E6B323"/>
</svg>
