<svg width="40" height="40" viewBox="0 0 40 40" fill="none" xmlns="http://www.w3.org/2000/svg">
<path d="M17.6744 3.72093C15.9474 3.72093 14.2912 4.40698 13.07 5.62814C11.8488 6.84931 11.1628 8.50557 11.1628 10.2326C11.1628 11.9595 11.8488 13.6158 13.07 14.837C14.2912 16.0581 15.9474 16.7442 17.6744 16.7442C19.4014 16.7442 21.0577 16.0581 22.2788 14.837C23.5 13.6158 24.186 11.9595 24.186 10.2326C24.186 8.50557 23.5 6.84931 22.2788 5.62814C21.0577 4.40698 19.4014 3.72093 17.6744 3.72093ZM7.44186 10.2326C7.44186 7.51872 8.51993 4.91602 10.4389 2.99705C12.3579 1.07807 14.9606 0 17.6744 0C20.3883 0 22.991 1.07807 24.9099 2.99705C26.8289 4.91602 27.907 7.51872 27.907 10.2326C27.907 12.9464 26.8289 15.5491 24.9099 17.4681C22.991 19.387 20.3883 20.4651 17.6744 20.4651C14.9606 20.4651 12.3579 19.387 10.4389 17.4681C8.51993 15.5491 7.44186 12.9464 7.44186 10.2326ZM29.7674 23.2558C28.0405 23.2558 26.3842 23.9419 25.163 25.163C23.9419 26.3842 23.2558 28.0405 23.2558 29.7674C23.2558 31.4944 23.9419 33.1507 25.163 34.3719C26.3842 35.593 28.0405 36.2791 29.7674 36.2791C31.4944 36.2791 33.1507 35.593 34.3719 34.3719C35.593 33.1507 36.2791 31.4944 36.2791 29.7674C36.2791 28.0405 35.593 26.3842 34.3719 25.163C33.1507 23.9419 31.4944 23.2558 29.7674 23.2558ZM19.5349 29.7674C19.5349 28.4237 19.7996 27.0931 20.3138 25.8516C20.828 24.6101 21.5818 23.4821 22.5319 22.5319C23.4821 21.5818 24.6101 20.828 25.8516 20.3138C27.0931 19.7996 28.4237 19.5349 29.7674 19.5349C31.1112 19.5349 32.4418 19.7996 33.6833 20.3138C34.9247 20.828 36.0528 21.5818 37.003 22.5319C37.9531 23.4821 38.7069 24.6101 39.2211 25.8516C39.7353 27.0931 40 28.4237 40 29.7674C40 32.4813 38.9219 35.084 37.003 37.003C35.084 38.9219 32.4813 40 29.7674 40C27.0536 40 24.4509 38.9219 22.5319 37.003C20.613 35.084 19.5349 32.4813 19.5349 29.7674ZM11.1628 26.0465C9.18909 26.0465 7.29622 26.8306 5.9006 28.2262C4.50498 29.6218 3.72093 31.5147 3.72093 33.4884H16.8372V37.2093H0V33.4884C0 30.5278 1.17608 27.6885 3.26951 25.5951C5.36294 23.5017 8.20223 22.3256 11.1628 22.3256H16.7442V26.0465H11.1628ZM31.6279 25.5851V28.9972L34.2586 31.6279L31.6279 34.2586L27.907 30.5377V25.5851H31.6279Z" fill="#E6B323"/>
</svg>
