<svg width="56" height="56" viewBox="0 0 56 56" fill="none" xmlns="http://www.w3.org/2000/svg">
<path d="M35.5733 27.1766L37.3914 23.9969C38.0238 22.891 37.2253 21.5146 35.9513 21.5146H32.3565C31.7613 21.5146 31.2119 21.1959 30.9164 20.6792L29.44 18.0973C28.8031 16.9835 27.1968 16.9835 26.5599 18.0973L25.0835 20.6794C24.7881 21.196 24.2386 21.5147 23.6434 21.5147H20.0485C18.7747 21.5147 17.9762 22.8911 18.6085 23.997L20.4266 27.1767C20.7183 27.6868 20.7183 28.3133 20.4266 28.8235L18.6085 32.0032C17.9761 33.1091 18.7746 34.4854 20.0484 34.4854H23.6433C24.2384 34.4854 24.7879 34.8042 25.0834 35.3208L26.5598 37.9029C27.1967 39.0167 28.803 39.0167 29.4399 37.9029L30.9163 35.3208C31.2116 34.8042 31.7612 34.4854 32.3564 34.4854H35.9512C37.2252 34.4854 38.0236 33.1091 37.3913 32.0032L35.5732 28.8235C35.2815 28.3133 35.2815 27.6867 35.5733 27.1766Z" fill="url(#paint0_linear_343_5959)"/>
<path d="M26.0606 32.3971L27.2241 34.3934C27.6287 35.0877 28.6325 35.0858 29.0344 34.3898L30.1685 32.4259C30.3562 32.1007 30.7038 31.9011 31.0792 31.9028L32.9555 31.9108C33.765 31.9142 34.2717 31.0367 33.8641 30.3374L32.9193 28.7162C32.7302 28.3919 32.7294 27.9911 32.9172 27.666L34.0513 25.702C34.4532 25.0061 33.9532 24.1357 33.1495 24.1323L30.8388 24.1224C30.4681 24.1208 30.1259 23.9232 29.9392 23.6028L28.7757 21.6064C28.3711 20.9121 27.3672 20.9141 26.9654 21.6101L25.8313 23.574C25.6435 23.8991 25.296 24.0988 24.9206 24.0971L23.0443 24.0891C22.2348 24.0857 21.728 24.9631 22.1356 25.6625L23.0805 27.2836C23.2696 27.608 23.2704 28.0088 23.0826 28.3339L21.9484 30.2979C21.5465 30.9938 22.0466 31.8642 22.8502 31.8676L25.161 31.8775C25.5317 31.8791 25.8739 32.0768 26.0606 32.3971Z" fill="url(#paint1_linear_343_5959)"/>
<path d="M28.5194 32.7777L30.5253 33.9247C31.223 34.3236 32.0912 33.8199 32.0912 33.0163V30.7484C32.0912 30.373 32.2924 30.0263 32.6183 29.84L34.2471 28.9086C34.9497 28.5069 34.9498 27.4935 34.2471 27.0917L32.6183 26.1604C32.2924 25.974 32.0912 25.6274 32.0912 25.2519V22.9841C32.0912 22.1804 31.2229 21.6767 30.5253 22.0756L28.5194 23.2227C28.1975 23.4067 27.8024 23.4067 27.4804 23.2227L25.4745 22.0756C24.7768 21.6767 23.9086 22.1804 23.9086 22.9841V25.2519C23.9086 25.6274 23.7076 25.974 23.3815 26.1605L21.7526 27.0918C21.05 27.4936 21.0499 28.507 21.7526 28.9087L23.3814 29.8402C23.7073 30.0266 23.9085 30.3732 23.9085 30.7486V33.0165C23.9085 33.8202 24.7768 34.3238 25.4744 33.925L27.4803 32.778C27.8023 32.5937 28.1975 32.5937 28.5194 32.7777Z" fill="url(#paint2_linear_343_5959)"/>
<path d="M31.1889 27.6532L31.9546 26.3143C32.2208 25.8486 31.8846 25.269 31.3481 25.269H29.8342C29.5837 25.269 29.3522 25.1347 29.2278 24.9171L28.6061 23.8299C28.3378 23.3608 27.6614 23.3608 27.3933 23.8299L26.7716 24.9171C26.6472 25.1347 26.4158 25.269 26.1651 25.269H24.6513C24.1149 25.269 23.7786 25.8485 24.0448 26.3143L24.8105 27.6532C24.9334 27.8681 24.9334 28.1319 24.8105 28.3468L24.0448 29.6857C23.7786 30.1514 24.1148 30.731 24.6513 30.731H26.1651C26.4157 30.731 26.6472 30.8653 26.7716 31.0829L27.3933 32.1701C27.6616 32.6392 28.3379 32.6392 28.6061 32.1701L29.2278 31.0829C29.3522 30.8653 29.5836 30.731 29.8342 30.731H31.3481C31.8845 30.731 32.2208 30.1514 31.9546 29.6857L31.1889 28.3468C31.066 28.1319 31.066 27.8681 31.1889 27.6532Z" fill="url(#paint3_linear_343_5959)"/>
<path d="M34.0589 27.3412L35.5136 24.7972C36.0195 23.9124 35.3806 22.8113 34.3616 22.8113H31.4854C31.0092 22.8113 30.5696 22.5562 30.3333 22.1429L29.152 20.0772C28.6424 19.186 27.3574 19.186 26.8478 20.0772L25.6666 22.1429C25.4302 22.5562 24.9907 22.8113 24.5144 22.8113H21.6384C20.6192 22.8113 19.9803 23.9125 20.4862 24.7972L21.9408 27.3412C22.1742 27.7493 22.1742 28.2506 21.9408 28.6587L20.4861 31.2026C19.9802 32.0874 20.619 33.1885 21.6381 33.1885H24.5143C24.9904 33.1885 25.4301 33.4436 25.6664 33.8569L26.8476 35.9227C27.3572 36.8138 28.6422 36.8138 29.1518 35.9227L30.333 33.8569C30.5693 33.4436 31.0089 33.1885 31.4851 33.1885H34.3612C35.3804 33.1885 36.0193 32.0873 35.5134 31.2026L34.0589 28.6588C33.8255 28.2506 33.8255 27.7494 34.0589 27.3412Z" fill="url(#paint4_linear_343_5959)"/>
<path d="M15.8257 28.8064C16.9138 28.8064 17.7959 27.9243 17.7959 26.8362C17.7959 25.7481 16.9138 24.866 15.8257 24.866C14.7376 24.866 13.8555 25.7481 13.8555 26.8362C13.8555 27.9243 14.7376 28.8064 15.8257 28.8064Z" fill="url(#paint5_linear_343_5959)"/>
<path d="M52.2212 38.883C53.3093 38.883 54.1914 38.0009 54.1914 36.9128C54.1914 35.8247 53.3093 34.9426 52.2212 34.9426C51.1331 34.9426 50.251 35.8247 50.251 36.9128C50.251 38.0009 51.1331 38.883 52.2212 38.883Z" fill="url(#paint6_linear_343_5959)"/>
<path d="M4.8833 21.2594C5.97142 21.2594 6.85351 20.3773 6.85351 19.2892C6.85351 18.201 5.97142 17.3189 4.8833 17.3189C3.79518 17.3189 2.91309 18.201 2.91309 19.2892C2.91309 20.3773 3.79518 21.2594 4.8833 21.2594Z" fill="url(#paint7_linear_343_5959)"/>
<path d="M46.6314 32.5373C47.4008 33.3067 47.4008 34.5542 46.6314 35.3237C45.862 36.0931 44.6145 36.0931 43.8451 35.3237C43.0757 34.5543 43.0757 33.3068 43.8451 32.5374C44.6145 31.7679 45.862 31.7679 46.6314 32.5373Z" fill="url(#paint8_linear_343_5959)"/>
<path d="M15.8478 17.649C16.2325 18.0338 16.2325 18.6574 15.8478 19.0422C15.463 19.427 14.8393 19.427 14.4546 19.0422C14.0698 18.6574 14.0698 18.0338 14.4546 17.649C14.8392 17.2643 15.463 17.2643 15.8478 17.649Z" fill="url(#paint9_linear_343_5959)"/>
<path d="M17.6915 38.0416C18.0763 38.4263 18.0763 39.05 17.6915 39.4347C17.3068 39.8195 16.6831 39.8195 16.2983 39.4347C15.9136 39.05 15.9136 38.4263 16.2983 38.0416C16.6831 37.6568 17.3068 37.6568 17.6915 38.0416Z" fill="url(#paint10_linear_343_5959)"/>
<path d="M42.0128 20.3904C42.3976 20.7751 42.3976 21.3988 42.0128 21.7836C41.6281 22.1683 41.0044 22.1683 40.6196 21.7836C40.2349 21.3988 40.2349 20.7751 40.6196 20.3904C41.0044 20.0057 41.6281 20.0056 42.0128 20.3904Z" fill="url(#paint11_linear_343_5959)"/>
<path d="M39.7096 27.6619C40.0943 28.0467 40.0943 28.6704 39.7096 29.0551C39.3248 29.4399 38.7012 29.4399 38.3164 29.0551C37.9316 28.6704 37.9316 28.0467 38.3164 27.6619C38.7012 27.2773 39.3249 27.2773 39.7096 27.6619Z" fill="url(#paint12_linear_343_5959)"/>
<path d="M34.9918 15.9677C35.3766 16.3524 35.3766 16.9761 34.9918 17.3609C34.6071 17.7456 33.9834 17.7455 33.5986 17.3609C33.2139 16.9761 33.2139 16.3524 33.5986 15.9677C33.9834 15.5829 34.6071 15.583 34.9918 15.9677Z" fill="url(#paint13_linear_343_5959)"/>
<path d="M23.3939 18.4018C23.9379 18.4018 24.379 17.9607 24.379 17.4166C24.379 16.8726 23.9379 16.4315 23.3939 16.4315C22.8498 16.4315 22.4087 16.8726 22.4087 17.4166C22.4087 17.9607 22.8498 18.4018 23.3939 18.4018Z" fill="url(#paint14_linear_343_5959)"/>
<path d="M1.75511 29.7551H11.1172C12.0866 29.7551 12.8723 28.9694 12.8723 28C12.8723 27.0307 12.0866 26.2449 11.1172 26.2449H1.75511C0.785757 26.2449 0 27.0307 0 28C0 28.9694 0.785757 29.7551 1.75511 29.7551Z" fill="url(#paint15_linear_343_5959)"/>
<path d="M7.87947 47.1442L12.1035 42.9201C12.7889 42.2348 12.7889 41.1234 12.1035 40.438C11.4181 39.7526 10.3068 39.7526 9.6214 40.438L5.39735 44.6621C4.71195 45.3475 4.71195 46.4588 5.39735 47.1442C6.08285 47.8296 7.19407 47.8296 7.87947 47.1442Z" fill="url(#paint16_linear_343_5959)"/>
<path d="M46.2855 45.3092L48.1206 47.1442C48.806 47.8296 49.9173 47.8296 50.6027 47.1442C51.2881 46.4588 51.2881 45.3475 50.6027 44.6621L48.7676 42.827C48.0823 42.1416 46.9709 42.1416 46.2855 42.827C45.6001 43.5124 45.6001 44.6238 46.2855 45.3092Z" fill="url(#paint17_linear_343_5959)"/>
<path d="M16.9481 48.3521C17.5993 48.6665 17.8577 49.4601 17.5164 50.0977L15.6075 53.6639C15.2898 54.2904 14.5243 54.5408 13.8979 54.2233C13.4563 53.9993 13.2007 53.5514 13.2007 53.0882C13.2007 52.8946 13.2449 52.6985 13.3386 52.5137L15.2735 48.8974C15.5952 48.2961 16.3339 48.0555 16.9481 48.3521Z" fill="url(#paint18_linear_343_5959)"/>
<path d="M20.7899 43.6657C20.7899 43.8593 20.7456 44.0555 20.6519 44.2402L20.3962 44.7178C20.0745 45.3188 19.3362 45.5593 18.7221 45.2631C18.0706 44.9489 17.812 44.1553 18.1531 43.5175L18.3817 43.09C18.6994 42.4636 19.465 42.213 20.0926 42.5307C20.5342 42.7546 20.7899 43.2026 20.7899 43.6657Z" fill="url(#paint19_linear_343_5959)"/>
<path d="M35.3481 44.2401L40.3918 53.6638C40.7094 54.2906 41.475 54.5412 42.1019 54.2236C42.7286 53.9059 42.9792 53.1404 42.6615 52.5135L37.6179 43.0898C37.3002 42.4631 36.5347 42.2125 35.9078 42.53C35.2812 42.8478 35.0305 43.6134 35.3481 44.2401Z" fill="url(#paint20_linear_343_5959)"/>
<path d="M26.2441 1.75511V11.1172C26.2441 12.0866 27.0299 12.8723 27.9992 12.8723C28.9686 12.8723 29.7544 12.0866 29.7544 11.1172V1.75511C29.7544 0.785757 28.9686 0 27.9992 0C27.0299 0 26.2441 0.785757 26.2441 1.75511Z" fill="url(#paint21_linear_343_5959)"/>
<path d="M1.75511 29.7551H11.1172C12.0866 29.7551 12.8723 28.9694 12.8723 28C12.8723 27.0307 12.0866 26.2449 11.1172 26.2449H1.75511C0.785757 26.2449 0 27.0307 0 28C0 28.9694 0.785757 29.7551 1.75511 29.7551Z" fill="url(#paint22_linear_343_5959)"/>
<path d="M54.2451 26.2449H44.883C43.9137 26.2449 43.1279 27.0307 43.1279 28C43.1279 28.9694 43.9137 29.7551 44.883 29.7551H54.2451C55.2145 29.7551 56.0002 28.9694 56.0002 28C56.0002 27.0307 55.2145 26.2449 54.2451 26.2449Z" fill="url(#paint23_linear_343_5959)"/>
<path d="M29.7544 54.2449V44.8828C29.7544 43.9134 28.9686 43.1277 27.9992 43.1277C27.0299 43.1277 26.2441 43.9134 26.2441 44.8828V54.2449C26.2441 55.2142 27.0299 56 27.9992 56C28.9686 56 29.7544 55.2142 29.7544 54.2449Z" fill="url(#paint24_linear_343_5959)"/>
<path d="M48.1205 8.85581L43.8964 13.0799C43.211 13.7653 43.211 14.8766 43.8964 15.562C44.5818 16.2474 45.6931 16.2474 46.3785 15.562L50.6025 11.3379C51.2879 10.6525 51.2879 9.54121 50.6025 8.85581C49.9171 8.17042 48.8059 8.17042 48.1205 8.85581Z" fill="url(#paint25_linear_343_5959)"/>
<path d="M39.0517 7.64796C38.4004 7.33348 38.1421 6.53992 38.4833 5.90229L40.3923 2.33608C40.7099 1.70965 41.4755 1.45919 42.1018 1.77674C42.5435 2.00074 42.7991 2.44863 42.7991 2.91178C42.7991 3.10537 42.7548 3.30148 42.6612 3.48628L40.7263 7.10256C40.4046 7.70396 39.6658 7.94454 39.0517 7.64796Z" fill="url(#paint26_linear_343_5959)"/>
<path d="M35.2104 12.3343C35.2104 12.1407 35.2547 11.9445 35.3484 11.7598L35.6041 11.2821C35.9258 10.6812 36.6641 10.4407 37.2782 10.7368C37.9297 11.0511 38.1883 11.8447 37.8472 12.4825L37.6186 12.91C37.3009 13.5364 36.5353 13.787 35.9077 13.4693C35.4661 13.2454 35.2104 12.7974 35.2104 12.3343Z" fill="url(#paint27_linear_343_5959)"/>
<path d="M20.6513 11.7599L15.6077 2.33618C15.29 1.70941 14.5244 1.45884 13.8976 1.7765C13.2708 2.09417 13.0202 2.85972 13.3379 3.48659L18.3815 12.9103C18.6992 13.5371 19.4647 13.7876 20.0916 13.47C20.7184 13.1522 20.9689 12.3866 20.6513 11.7599Z" fill="url(#paint28_linear_343_5959)"/>
<path d="M10.4804 37.4447C8.79475 38.5431 7.35654 39.99 6.26728 41.6827C6.02231 42.0632 5.45715 42.0623 5.21361 41.6807C4.13061 39.9841 2.69778 38.5321 1.01613 37.4274C0.642908 37.1822 0.643896 36.6248 1.018 36.3809C2.7036 35.2824 4.14181 33.8355 5.23096 32.1429C5.47593 31.7623 6.04109 31.7633 6.28463 32.1448C7.36763 33.8413 8.80057 35.2934 10.4822 36.398C10.8556 36.6433 10.8546 37.2008 10.4804 37.4447Z" fill="url(#paint29_linear_343_5959)"/>
<path d="M54.9818 20.002C53.2962 21.1005 51.858 22.5474 50.7687 24.24C50.5238 24.6206 49.9586 24.6196 49.7151 24.238C48.6321 22.5414 47.1992 21.0894 45.5176 19.9848C45.1444 19.7396 45.1454 19.1821 45.5195 18.9382C47.2051 17.8398 48.6433 16.3929 49.7324 14.7002C49.9773 14.3197 50.5426 14.3206 50.7861 14.7021C51.8691 16.3987 53.302 17.8507 54.9837 18.9554C55.357 19.2007 55.356 19.7581 54.9818 20.002Z" fill="url(#paint30_linear_343_5959)"/>
<path d="M12.0963 10.6406C10.9043 11.4174 9.88731 12.4406 9.11704 13.6376C8.94388 13.9067 8.54408 13.906 8.37191 13.6362C7.60614 12.4365 6.59276 11.4096 5.40358 10.6285C5.13961 10.4551 5.14038 10.0608 5.4049 9.88841C6.59693 9.11166 7.61393 8.0885 8.3841 6.89153C8.55726 6.6224 8.95705 6.62306 9.12923 6.89285C9.89511 8.09257 10.9084 9.11945 12.0976 9.9006C12.3617 10.0739 12.361 10.4682 12.0963 10.6406Z" fill="url(#paint31_linear_343_5959)"/>
<path d="M44.6618 39.2589C43.4697 40.0356 42.4527 41.0589 41.6825 42.2558C41.5093 42.525 41.1095 42.5243 40.9373 42.2545C40.1716 41.0548 39.1582 40.0279 37.969 39.2468C37.705 39.0734 37.7058 38.6792 37.9703 38.5067C39.1624 37.7299 40.1794 36.7067 40.9495 35.5098C41.1227 35.2407 41.5225 35.2413 41.6947 35.5111C42.4605 36.7109 43.4738 37.7377 44.663 38.5189C44.9271 38.6922 44.9263 39.0864 44.6618 39.2589Z" fill="url(#paint32_linear_343_5959)"/>
<path d="M37.6413 5.08304C36.4492 5.8599 35.4322 6.88306 34.662 8.08003C34.4888 8.34916 34.089 8.3485 33.9168 8.07871C33.1511 6.87899 32.1377 5.85211 30.9485 5.07096C30.6845 4.89758 30.6853 4.50328 30.9498 4.33088C32.1418 3.55402 33.1589 2.53087 33.929 1.334C34.1022 1.06487 34.502 1.06553 34.6741 1.33532C35.44 2.53504 36.4533 3.56193 37.6425 4.34307C37.9066 4.51634 37.9059 4.91065 37.6413 5.08304Z" fill="url(#paint33_linear_343_5959)"/>
<defs>
<linearGradient id="paint0_linear_343_5959" x1="23.3155" y1="23.316" x2="35.1289" y2="35.1294" gradientUnits="userSpaceOnUse">
<stop stop-color="#FFD945"/>
<stop offset="0.3043" stop-color="#FFCD3E"/>
<stop offset="0.8558" stop-color="#FFAD2B"/>
<stop offset="1" stop-color="#FFA325"/>
</linearGradient>
<linearGradient id="paint1_linear_343_5959" x1="23.6411" y1="27.9577" x2="34.9575" y2="27.9577" gradientUnits="userSpaceOnUse">
<stop stop-color="#FF7044" stop-opacity="0"/>
<stop offset="1" stop-color="#FFA325"/>
</linearGradient>
<linearGradient id="paint2_linear_343_5959" x1="34.1719" y1="25.3723" x2="16.205" y2="33.0325" gradientUnits="userSpaceOnUse">
<stop stop-color="#FF7044" stop-opacity="0"/>
<stop offset="1" stop-color="#FFA325"/>
</linearGradient>
<linearGradient id="paint3_linear_343_5959" x1="26.0283" y1="26.0291" x2="31.0031" y2="31.0038" gradientUnits="userSpaceOnUse">
<stop stop-color="#FF7044"/>
<stop offset="1" stop-color="#F82814"/>
</linearGradient>
<linearGradient id="paint4_linear_343_5959" x1="29.6963" y1="27.8367" x2="12.6029" y2="29.0518" gradientUnits="userSpaceOnUse">
<stop stop-color="white" stop-opacity="0"/>
<stop offset="1" stop-color="white"/>
</linearGradient>
<linearGradient id="paint5_linear_343_5959" x1="15.0103" y1="26.7941" x2="18.2263" y2="26.794" gradientUnits="userSpaceOnUse">
<stop stop-color="#FFD945"/>
<stop offset="0.3043" stop-color="#FFCD3E"/>
<stop offset="0.8558" stop-color="#FFAD2B"/>
<stop offset="1" stop-color="#FFA325"/>
</linearGradient>
<linearGradient id="paint6_linear_343_5959" x1="51.4004" y1="36.8691" x2="54.6164" y2="36.8692" gradientUnits="userSpaceOnUse">
<stop stop-color="#FFD945"/>
<stop offset="0.3043" stop-color="#FFCD3E"/>
<stop offset="0.8558" stop-color="#FFAD2B"/>
<stop offset="1" stop-color="#FFA325"/>
</linearGradient>
<linearGradient id="paint7_linear_343_5959" x1="4.06959" y1="19.2482" x2="7.28562" y2="19.2482" gradientUnits="userSpaceOnUse">
<stop stop-color="#FFD945"/>
<stop offset="0.3043" stop-color="#FFCD3E"/>
<stop offset="0.8558" stop-color="#FFAD2B"/>
<stop offset="1" stop-color="#FFA325"/>
</linearGradient>
<linearGradient id="paint8_linear_343_5959" x1="44.4185" y1="33.8872" x2="47.6346" y2="33.8872" gradientUnits="userSpaceOnUse">
<stop stop-color="#FFA325"/>
<stop offset="1" stop-color="#FF7044"/>
</linearGradient>
<linearGradient id="paint9_linear_343_5959" x1="14.7413" y1="18.3047" x2="16.3494" y2="18.3047" gradientUnits="userSpaceOnUse">
<stop stop-color="#FFA325"/>
<stop offset="1" stop-color="#FF7044"/>
</linearGradient>
<linearGradient id="paint10_linear_343_5959" x1="16.5848" y1="38.6942" x2="18.1929" y2="38.6942" gradientUnits="userSpaceOnUse">
<stop stop-color="#FFA325"/>
<stop offset="1" stop-color="#FF7044"/>
</linearGradient>
<linearGradient id="paint11_linear_343_5959" x1="40.9024" y1="21.0457" x2="42.5104" y2="21.0457" gradientUnits="userSpaceOnUse">
<stop stop-color="#FFA325"/>
<stop offset="1" stop-color="#FF7044"/>
</linearGradient>
<linearGradient id="paint12_linear_343_5959" x1="38.5996" y1="28.3162" x2="40.2077" y2="28.3162" gradientUnits="userSpaceOnUse">
<stop stop-color="#FFD945"/>
<stop offset="0.3043" stop-color="#FFCD3E"/>
<stop offset="0.8558" stop-color="#FFAD2B"/>
<stop offset="1" stop-color="#FFA325"/>
</linearGradient>
<linearGradient id="paint13_linear_343_5959" x1="33.8825" y1="16.6237" x2="35.4906" y2="16.6237" gradientUnits="userSpaceOnUse">
<stop stop-color="#FFD945"/>
<stop offset="0.3043" stop-color="#FFCD3E"/>
<stop offset="0.8558" stop-color="#FFAD2B"/>
<stop offset="1" stop-color="#FFA325"/>
</linearGradient>
<linearGradient id="paint14_linear_343_5959" x1="22.9828" y1="17.3759" x2="24.5908" y2="17.3759" gradientUnits="userSpaceOnUse">
<stop stop-color="#FFD945"/>
<stop offset="0.3043" stop-color="#FFCD3E"/>
<stop offset="0.8558" stop-color="#FFAD2B"/>
<stop offset="1" stop-color="#FFA325"/>
</linearGradient>
<linearGradient id="paint15_linear_343_5959" x1="6.43616" y1="27.5913" x2="6.43616" y2="31.2027" gradientUnits="userSpaceOnUse">
<stop stop-color="#92F37F"/>
<stop offset="1" stop-color="#4AB272"/>
</linearGradient>
<linearGradient id="paint16_linear_343_5959" x1="8.47981" y1="43.4882" x2="11.0332" y2="46.0416" gradientUnits="userSpaceOnUse">
<stop stop-color="#00ADFB"/>
<stop offset="1" stop-color="#3F3CED"/>
</linearGradient>
<linearGradient id="paint17_linear_343_5959" x1="48.7419" y1="44.6932" x2="46.1886" y2="47.2465" gradientUnits="userSpaceOnUse">
<stop stop-color="#9B62CD"/>
<stop offset="0.3003" stop-color="#985DCB"/>
<stop offset="0.6716" stop-color="#8F4EC7"/>
<stop offset="1" stop-color="#833AC1"/>
</linearGradient>
<linearGradient id="paint18_linear_343_5959" x1="15.434" y1="50.5787" x2="15.434" y2="56.8912" gradientUnits="userSpaceOnUse">
<stop stop-color="#9B62CD"/>
<stop offset="0.3003" stop-color="#985DCB"/>
<stop offset="0.6716" stop-color="#8F4EC7"/>
<stop offset="1" stop-color="#833AC1"/>
</linearGradient>
<linearGradient id="paint19_linear_343_5959" x1="19.3961" y1="43.5424" x2="19.3961" y2="46.6255" gradientUnits="userSpaceOnUse">
<stop stop-color="#92F37F"/>
<stop offset="1" stop-color="#4AB272"/>
</linearGradient>
<linearGradient id="paint20_linear_343_5959" x1="39.3027" y1="48.2321" x2="36.7487" y2="49.5263" gradientUnits="userSpaceOnUse">
<stop stop-color="#FF819C"/>
<stop offset="0.2594" stop-color="#FF7E9A"/>
<stop offset="0.4757" stop-color="#FE7396"/>
<stop offset="0.6765" stop-color="#FC628E"/>
<stop offset="0.8668" stop-color="#FA4A83"/>
<stop offset="1" stop-color="#F83479"/>
</linearGradient>
<linearGradient id="paint21_linear_343_5959" x1="28.4079" y1="6.43616" x2="24.7966" y2="6.43616" gradientUnits="userSpaceOnUse">
<stop stop-color="#92F37F"/>
<stop offset="1" stop-color="#4AB272"/>
</linearGradient>
<linearGradient id="paint22_linear_343_5959" x1="6.43616" y1="27.5913" x2="6.43616" y2="31.2027" gradientUnits="userSpaceOnUse">
<stop stop-color="#92F37F"/>
<stop offset="1" stop-color="#4AB272"/>
</linearGradient>
<linearGradient id="paint23_linear_343_5959" x1="49.5641" y1="28.4087" x2="49.5641" y2="24.7974" gradientUnits="userSpaceOnUse">
<stop stop-color="#92F37F"/>
<stop offset="1" stop-color="#4AB272"/>
</linearGradient>
<linearGradient id="paint24_linear_343_5959" x1="27.5906" y1="49.5638" x2="31.2019" y2="49.5638" gradientUnits="userSpaceOnUse">
<stop stop-color="#92F37F"/>
<stop offset="1" stop-color="#4AB272"/>
</linearGradient>
<linearGradient id="paint25_linear_343_5959" x1="47.5202" y1="12.5069" x2="44.9668" y2="9.95352" gradientUnits="userSpaceOnUse">
<stop stop-color="#00ADFB"/>
<stop offset="1" stop-color="#3F3CED"/>
</linearGradient>
<linearGradient id="paint26_linear_343_5959" x1="40.5658" y1="5.42135" x2="40.5658" y2="-0.891166" gradientUnits="userSpaceOnUse">
<stop stop-color="#9B62CD"/>
<stop offset="0.3003" stop-color="#985DCB"/>
<stop offset="0.6716" stop-color="#8F4EC7"/>
<stop offset="1" stop-color="#833AC1"/>
</linearGradient>
<linearGradient id="paint27_linear_343_5959" x1="36.6042" y1="12.4576" x2="36.6042" y2="9.3745" gradientUnits="userSpaceOnUse">
<stop stop-color="#92F37F"/>
<stop offset="1" stop-color="#4AB272"/>
</linearGradient>
<linearGradient id="paint28_linear_343_5959" x1="16.6936" y1="7.76633" x2="19.2476" y2="6.47214" gradientUnits="userSpaceOnUse">
<stop stop-color="#00ADFB"/>
<stop offset="1" stop-color="#3F3CED"/>
</linearGradient>
<linearGradient id="paint29_linear_343_5959" x1="4.10805" y1="34.7264" x2="9.41145" y2="41.8272" gradientUnits="userSpaceOnUse">
<stop stop-color="#FF819C"/>
<stop offset="0.2594" stop-color="#FF7E9A"/>
<stop offset="0.4757" stop-color="#FE7396"/>
<stop offset="0.6765" stop-color="#FC628E"/>
<stop offset="0.8668" stop-color="#FA4A83"/>
<stop offset="1" stop-color="#F83479"/>
</linearGradient>
<linearGradient id="paint30_linear_343_5959" x1="48.613" y1="17.2927" x2="53.9164" y2="24.3936" gradientUnits="userSpaceOnUse">
<stop stop-color="#FFD945"/>
<stop offset="0.3043" stop-color="#FFCD3E"/>
<stop offset="0.8558" stop-color="#FFAD2B"/>
<stop offset="1" stop-color="#FFA325"/>
</linearGradient>
<linearGradient id="paint31_linear_343_5959" x1="7.59333" y1="8.71936" x2="11.3436" y2="13.7407" gradientUnits="userSpaceOnUse">
<stop stop-color="#FFD945"/>
<stop offset="0.3043" stop-color="#FFCD3E"/>
<stop offset="0.8558" stop-color="#FFAD2B"/>
<stop offset="1" stop-color="#FFA325"/>
</linearGradient>
<linearGradient id="paint32_linear_343_5959" x1="40.1529" y1="37.344" x2="43.9033" y2="42.3655" gradientUnits="userSpaceOnUse">
<stop stop-color="#FFD945"/>
<stop offset="0.3043" stop-color="#FFCD3E"/>
<stop offset="0.8558" stop-color="#FFAD2B"/>
<stop offset="1" stop-color="#FFA325"/>
</linearGradient>
<linearGradient id="paint33_linear_343_5959" x1="33.1392" y1="3.1669" x2="36.8897" y2="8.18828" gradientUnits="userSpaceOnUse">
<stop stop-color="#FFA325"/>
<stop offset="1" stop-color="#FF7044"/>
</linearGradient>
</defs>
</svg>
