<svg width="48" height="42" viewBox="0 0 48 42" fill="none" xmlns="http://www.w3.org/2000/svg">
<path fill-rule="evenodd" clip-rule="evenodd" d="M5.1136 7.65941C4.09879 8.9647 3.42857 10.7909 3.42857 13.44C3.42857 15.0233 3.60884 16.0349 3.8385 16.6458C4.05813 17.23 4.26118 17.3021 4.26453 17.3033C4.29816 17.3174 4.48667 17.3785 4.96906 17.2209C5.44629 17.065 6.03892 16.7482 6.71788 16.2729C8.07112 15.3257 9.47552 13.958 10.5733 12.7797C11.1142 12.1992 11.5651 11.6815 11.8799 11.3101C12.037 11.1247 12.1596 10.9764 12.2419 10.8758C12.283 10.8256 12.314 10.7873 12.3341 10.7623L12.356 10.7349L12.3607 10.7291C12.6855 10.3201 13.1854 10.08 13.7143 10.08H34.2857C34.8146 10.08 35.3138 10.3192 35.6386 10.7282L35.644 10.7349L35.6659 10.7623C35.686 10.7873 35.717 10.8256 35.7581 10.8758C35.8404 10.9764 35.963 11.1247 36.1201 11.3101C36.4349 11.6815 36.8858 12.1992 37.4267 12.7797C38.5245 13.958 39.9289 15.3257 41.2821 16.2729C41.9611 16.7482 42.5537 17.065 43.0309 17.2209C43.5133 17.3785 43.7018 17.3175 43.7354 17.3033C43.7388 17.3021 43.9419 17.23 44.1615 16.6458C44.3912 16.0349 44.5714 15.0233 44.5714 13.44C44.5714 10.7909 43.9012 8.9647 42.8864 7.65941C41.8615 6.34118 40.3631 5.39749 38.4337 4.73569C34.48 3.37959 29.2334 3.36001 24 3.36001C18.7666 3.36001 13.52 3.37959 9.56632 4.73569C7.63686 5.39749 6.13846 6.34118 5.1136 7.65941ZM33.4683 13.44C33.473 13.4456 33.4778 13.4512 33.4826 13.4568C33.8241 13.8598 34.3106 14.4183 34.8947 15.0453C36.0469 16.282 37.6426 17.8543 39.2893 19.0071C40.1104 19.5818 41.0177 20.105 41.9467 20.4085C42.8706 20.7103 43.9946 20.85 45.086 20.3917C46.2106 19.9193 46.9437 18.9645 47.3787 17.8074C47.8053 16.6726 48 15.2167 48 13.44C48 10.2092 47.1702 7.62531 45.6136 5.62311C44.067 3.63384 41.9226 2.37253 39.5663 1.56433C35.0041 -0.000498075 29.1941 -0.000227602 24.1828 5.71401e-06H23.8172C18.8059 -0.000227602 12.9959 -0.000498075 8.43369 1.56433C6.07742 2.37253 3.93297 3.63384 2.3864 5.62311C0.829778 7.62531 0 10.2092 0 13.44C0 15.2167 0.194729 16.6726 0.621323 17.8074C1.05633 18.9645 1.78942 19.9193 2.914 20.3917C4.00537 20.85 5.1294 20.7103 6.05327 20.4085C6.98228 20.105 7.88965 19.5818 8.71069 19.0071C10.3574 17.8543 11.9531 16.282 13.1053 15.0453C13.6894 14.4183 14.1759 13.8598 14.5174 13.4568C14.5222 13.4512 14.527 13.4456 14.5317 13.44H33.4683ZM14.2164 15.6121C14.5379 15.297 14.9739 15.12 15.4286 15.12H32.5714C33.0261 15.12 33.4621 15.297 33.7836 15.6121L32.5714 16.8C33.7836 15.6121 33.783 15.6115 33.7836 15.6121L33.7894 15.6178L33.7984 15.6267L33.8254 15.6537C33.8474 15.6759 33.8774 15.7064 33.9147 15.7452C33.9892 15.8227 34.0934 15.9332 34.2228 16.0763C34.4816 16.3625 34.8419 16.7797 35.2695 17.3244C36.1243 18.4135 37.2511 20.0164 38.3741 22.1075C40.6217 26.2925 42.8571 32.4394 42.8571 40.32C42.8571 41.2478 42.0896 42 41.1429 42H6.85714C5.91037 42 5.14286 41.2478 5.14286 40.32C5.14286 32.4394 7.37829 26.2925 9.62585 22.1075C10.7489 20.0164 11.8757 18.4135 12.7305 17.3244C13.1581 16.7797 13.5184 16.3625 13.7772 16.0763C13.9066 15.9332 14.0108 15.8227 14.0853 15.7452C14.1226 15.7064 14.1526 15.6759 14.1746 15.6537L14.2016 15.6267L14.2106 15.6178L14.2139 15.6145L14.2164 15.6121C14.217 15.6115 14.2164 15.6121 15.4286 16.8L14.2164 15.6121ZM16.1872 18.48C15.991 18.7035 15.7396 19.0017 15.4481 19.3731C14.6958 20.3315 13.6797 21.7736 12.6599 23.6725C10.7822 27.1686 8.89428 32.2078 8.60857 38.64H39.3914C39.1057 32.2078 37.2178 27.1686 35.3401 23.6725C34.3203 21.7736 33.3042 20.3315 32.5519 19.3731C32.2604 19.0017 32.009 18.7035 31.8128 18.48H16.1872ZM16.6431 17.9856C16.6435 17.9853 16.6437 17.985 16.6431 17.9856Z" fill="#E6B323"/>
<path fill-rule="evenodd" clip-rule="evenodd" d="M24 23.4C21.349 23.4 19.2 25.6833 19.2 28.5C19.2 31.3167 21.349 33.6 24 33.6C26.651 33.6 28.8 31.3167 28.8 28.5C28.8 25.6833 26.651 23.4 24 23.4ZM16 28.5C16 23.8056 19.5817 20 24 20C28.4183 20 32 23.8056 32 28.5C32 33.1944 28.4183 37 24 37C19.5817 37 16 33.1944 16 28.5Z" fill="#E6B323"/>
</svg>
